<svg width="133" height="133" viewBox="0 0 133 133" fill="none" xmlns="http://www.w3.org/2000/svg">
<path fill-rule="evenodd" clip-rule="evenodd" d="M16.625 41.5625V49.875H116.375V41.5625H16.625ZM116.375 58.1875H16.625V99.75H116.375V58.1875ZM16.625 33.25H116.375C118.58 33.25 120.694 34.1258 122.253 35.6847C123.812 37.2436 124.688 39.3579 124.688 41.5625V99.75C124.688 101.955 123.812 104.069 122.253 105.628C120.694 107.187 118.58 108.062 116.375 108.062H16.625C14.4204 108.062 12.3061 107.187 10.7472 105.628C9.18828 104.069 8.3125 101.955 8.3125 99.75V41.5625C8.3125 39.3579 9.18828 37.2436 10.7472 35.6847C12.3061 34.1258 14.4204 33.25 16.625 33.25ZM41.5625 83.125H24.9375V91.4375H41.5625V83.125Z" fill="url(#paint0_linear_2_626)"/>
<defs>
<linearGradient id="paint0_linear_2_626" x1="66.5" y1="33.25" x2="66.5" y2="108.062" gradientUnits="userSpaceOnUse">
<stop stop-color="#112F91"/>
<stop offset="1" stop-color="#3853AB"/>
</linearGradient>
</defs>
</svg>
