<svg width="46" height="51" viewBox="0 0 46 51" fill="none" xmlns="http://www.w3.org/2000/svg">
<path d="M19.4 0.455998C24.728 0.455998 29.384 1.512 33.368 3.624C37.352 5.736 40.424 8.712 42.584 12.552C44.792 16.344 45.896 20.736 45.896 25.728C45.896 30.672 44.792 35.064 42.584 38.904C40.424 42.744 37.328 45.72 33.296 47.832C29.312 49.944 24.68 51 19.4 51H0.464V0.455998H19.4ZM18.608 40.344C23.264 40.344 26.888 39.072 29.48 36.528C32.072 33.984 33.368 30.384 33.368 25.728C33.368 21.072 32.072 17.448 29.48 14.856C26.888 12.264 23.264 10.968 18.608 10.968H12.776V40.344H18.608Z" fill="#112F91"/>
</svg>
