<svg width="152" height="39" viewBox="0 0 152 39" fill="none" xmlns="http://www.w3.org/2000/svg">
<path d="M9.7 3.728C12.364 3.728 14.692 4.256 16.684 5.312C18.676 6.368 20.212 7.856 21.292 9.776C22.396 11.672 22.948 13.868 22.948 16.364C22.948 18.836 22.396 21.032 21.292 22.952C20.212 24.872 18.664 26.36 16.648 27.416C14.656 28.472 12.34 29 9.7 29H0.232V3.728H9.7ZM9.304 23.672C11.632 23.672 13.444 23.036 14.74 21.764C16.036 20.492 16.684 18.692 16.684 16.364C16.684 14.036 16.036 12.224 14.74 10.928C13.444 9.632 11.632 8.984 9.304 8.984H6.388V23.672H9.304ZM29.4843 6.824C28.4043 6.824 27.5163 6.512 26.8203 5.888C26.1483 5.24 25.8123 4.448 25.8123 3.512C25.8123 2.552 26.1483 1.76 26.8203 1.136C27.5163 0.487998 28.4043 0.163998 29.4843 0.163998C30.5403 0.163998 31.4043 0.487998 32.0763 1.136C32.7723 1.76 33.1203 2.552 33.1203 3.512C33.1203 4.448 32.7723 5.24 32.0763 5.888C31.4043 6.512 30.5403 6.824 29.4843 6.824ZM32.5443 8.912V29H26.3883V8.912H32.5443ZM44.6374 8.624C46.0534 8.624 47.2894 8.912 48.3454 9.488C49.4254 10.064 50.2534 10.82 50.8294 11.756V8.912H56.9854V28.964C56.9854 30.812 56.6134 32.48 55.8694 33.968C55.1494 35.48 54.0334 36.68 52.5214 37.568C51.0334 38.456 49.1734 38.9 46.9414 38.9C43.9654 38.9 41.5534 38.192 39.7054 36.776C37.8574 35.384 36.8014 33.488 36.5374 31.088H42.6214C42.8134 31.856 43.2694 32.456 43.9894 32.888C44.7094 33.344 45.5974 33.572 46.6534 33.572C47.9254 33.572 48.9334 33.2 49.6774 32.456C50.4454 31.736 50.8294 30.572 50.8294 28.964V26.12C50.2294 27.056 49.4014 27.824 48.3454 28.424C47.2894 29 46.0534 29.288 44.6374 29.288C42.9814 29.288 41.4814 28.868 40.1374 28.028C38.7934 27.164 37.7254 25.952 36.9334 24.392C36.1654 22.808 35.7814 20.984 35.7814 18.92C35.7814 16.856 36.1654 15.044 36.9334 13.484C37.7254 11.924 38.7934 10.724 40.1374 9.884C41.4814 9.044 42.9814 8.624 44.6374 8.624ZM50.8294 18.956C50.8294 17.42 50.3974 16.208 49.5334 15.32C48.6934 14.432 47.6614 13.988 46.4374 13.988C45.2134 13.988 44.1694 14.432 43.3054 15.32C42.4654 16.184 42.0454 17.384 42.0454 18.92C42.0454 20.456 42.4654 21.68 43.3054 22.592C44.1694 23.48 45.2134 23.924 46.4374 23.924C47.6614 23.924 48.6934 23.48 49.5334 22.592C50.3974 21.704 50.8294 20.492 50.8294 18.956ZM64.535 6.824C63.455 6.824 62.567 6.512 61.871 5.888C61.199 5.24 60.863 4.448 60.863 3.512C60.863 2.552 61.199 1.76 61.871 1.136C62.567 0.487998 63.455 0.163998 64.535 0.163998C65.591 0.163998 66.455 0.487998 67.127 1.136C67.823 1.76 68.171 2.552 68.171 3.512C68.171 4.448 67.823 5.24 67.127 5.888C66.455 6.512 65.591 6.824 64.535 6.824ZM67.595 8.912V29H61.439V8.912H67.595ZM83.2522 23.78V29H80.1202C77.8882 29 76.1482 28.46 74.9002 27.38C73.6522 26.276 73.0282 24.488 73.0282 22.016V14.024H70.5802V8.912H73.0282V4.016H79.1842V8.912H83.2162V14.024H79.1842V22.088C79.1842 22.688 79.3282 23.12 79.6162 23.384C79.9042 23.648 80.3842 23.78 81.0562 23.78H83.2522ZM85.4572 18.92C85.4572 16.856 85.8412 15.044 86.6092 13.484C87.4012 11.924 88.4692 10.724 89.8132 9.884C91.1572 9.044 92.6572 8.624 94.3132 8.624C95.7292 8.624 96.9652 8.912 98.0212 9.488C99.1012 10.064 99.9292 10.82 100.505 11.756V8.912H106.661V29H100.505V26.156C99.9052 27.092 99.0652 27.848 97.9852 28.424C96.9292 29 95.6932 29.288 94.2772 29.288C92.6452 29.288 91.1572 28.868 89.8132 28.028C88.4692 27.164 87.4012 25.952 86.6092 24.392C85.8412 22.808 85.4572 20.984 85.4572 18.92ZM100.505 18.956C100.505 17.42 100.073 16.208 99.2092 15.32C98.3692 14.432 97.3372 13.988 96.1132 13.988C94.8892 13.988 93.8452 14.432 92.9812 15.32C92.1412 16.184 91.7212 17.384 91.7212 18.92C91.7212 20.456 92.1412 21.68 92.9812 22.592C93.8452 23.48 94.8892 23.924 96.1132 23.924C97.3372 23.924 98.3692 23.48 99.2092 22.592C100.073 21.704 100.505 20.492 100.505 18.956ZM117.271 2.36V29H111.115V2.36H117.271ZM124.828 6.824C123.748 6.824 122.86 6.512 122.164 5.888C121.492 5.24 121.156 4.448 121.156 3.512C121.156 2.552 121.492 1.76 122.164 1.136C122.86 0.487998 123.748 0.163998 124.828 0.163998C125.884 0.163998 126.748 0.487998 127.42 1.136C128.116 1.76 128.464 2.552 128.464 3.512C128.464 4.448 128.116 5.24 127.42 5.888C126.748 6.512 125.884 6.824 124.828 6.824ZM127.888 8.912V29H121.732V8.912H127.888ZM151.285 18.632C151.285 19.208 151.249 19.808 151.177 20.432H137.245C137.341 21.68 137.737 22.64 138.433 23.312C139.153 23.96 140.029 24.284 141.061 24.284C142.597 24.284 143.665 23.636 144.265 22.34H150.817C150.481 23.66 149.869 24.848 148.981 25.904C148.117 26.96 147.025 27.788 145.705 28.388C144.385 28.988 142.909 29.288 141.277 29.288C139.309 29.288 137.557 28.868 136.021 28.028C134.485 27.188 133.285 25.988 132.421 24.428C131.557 22.868 131.125 21.044 131.125 18.956C131.125 16.868 131.545 15.044 132.385 13.484C133.249 11.924 134.449 10.724 135.985 9.884C137.521 9.044 139.285 8.624 141.277 8.624C143.221 8.624 144.949 9.032 146.461 9.848C147.973 10.664 149.149 11.828 149.989 13.34C150.853 14.852 151.285 16.616 151.285 18.632ZM144.985 17.012C144.985 15.956 144.625 15.116 143.905 14.492C143.185 13.868 142.285 13.556 141.205 13.556C140.173 13.556 139.297 13.856 138.577 14.456C137.881 15.056 137.449 15.908 137.281 17.012H144.985Z" fill="#112F91"/>
</svg>
