<svg width="1440" height="198" viewBox="0 0 1440 198" fill="none" xmlns="http://www.w3.org/2000/svg">
<path fill-rule="evenodd" clip-rule="evenodd" d="M0 44.2828L34 58.5347C69 73.2956 137 102.817 206 106.38C274 109.943 343 88.0566 411 95.1825C480 102.817 549 139.465 617 131.83C686 124.704 754 73.2956 823 54.9717C891 36.6478 960 51.4087 1029 73.2956C1097 95.1825 1166 124.704 1234 113.506C1303 102.817 1371 51.4087 1406 25.9589L1440 0V198H1406C1371 198 1303 198 1234 198C1166 198 1097 198 1029 198C960 198 891 198 823 198C754 198 686 198 617 198C549 198 480 198 411 198C343 198 274 198 206 198C137 198 69 198 34 198H0V44.2828Z" fill="#112F91"/>
</svg>
