<svg width="565" height="454" viewBox="0 0 565 454" fill="none" xmlns="http://www.w3.org/2000/svg">
<g clip-path="url(#clip0_2_375)">
<path d="M393.036 441.893L382.588 441.892L377.618 401.586H393.038L393.036 441.893Z" fill="#FFB6B6"/>
<path d="M392.757 438.48L381.602 433.941L381.283 433.81L375.124 438.48C371.646 438.48 368.311 439.862 365.852 442.322C363.393 444.781 362.012 448.117 362.011 451.595V452.021H395.697V438.48H392.757Z" fill="#2F2E41"/>
<path d="M487.438 428.307L478.087 432.968L455.662 399.111L469.463 392.231L487.438 428.307Z" fill="#FFB6B6"/>
<path d="M488.303 424.062L485.911 425.25L485.666 425.373L473.675 426.298L473.315 426.323L469.883 433.245C468.342 434.013 466.967 435.078 465.838 436.377C464.708 437.677 463.845 439.187 463.299 440.82C462.753 442.454 462.534 444.179 462.655 445.897C462.776 447.615 463.234 449.292 464.003 450.833L464.191 451.21L494.339 436.186L488.303 424.062Z" fill="#2F2E41"/>
<path d="M385.95 225.244L443.56 227.261L443.962 226.677C443.962 226.677 448.876 238.146 448.876 247.977C448.876 251.245 446.603 272.622 447.758 276.666C447.902 277.169 446.913 278.402 447.238 280.744C447.448 282.264 448.609 281.095 448.876 283.202C449.067 284.714 447.024 285.549 447.238 287.298C447.471 289.209 450.282 295.399 450.535 297.524C453.228 320.155 456.815 352.941 456.815 352.941C456.815 352.941 471.218 391.528 474.265 392.154C479.379 393.207 482.832 402.508 479.998 404.442C478.649 405.363 461.206 411.56 461.206 411.56C460.248 411.733 457.25 410.229 459.16 406.672C459.511 406.017 457.414 407.684 457.066 406.9C456.695 406.066 457.423 402.749 456.998 401.824C453.186 393.514 447.334 382 441.788 376.087C433.593 367.351 428.403 356.224 426.976 344.331L414.255 273.777L409.895 293.562L406.287 297.128L407.277 305.442L407.106 313.512L398.097 347.099C398.097 347.099 396.746 409.823 398.916 411.815C400.091 412.894 405.079 426.182 395.64 427.38L378.491 426.056C378.491 426.056 376.181 421.186 377.336 419.453C378.491 417.72 378.422 418.193 377.012 415.356C375.603 412.519 376.181 407.713 376.181 407.713C373.934 385.124 373.048 362.421 373.527 339.726C374.386 302.45 379.596 259.628 379.596 258.755C379.639 257.863 379.475 256.973 379.116 256.156V253.803L381.329 245.466L385.95 225.244Z" fill="#2F2E41"/>
<path d="M467.021 232.29C479.587 232.29 489.774 222.102 489.774 209.533C489.774 196.965 479.587 186.776 467.021 186.776C454.456 186.776 444.269 196.965 444.269 209.533C444.269 222.102 454.456 232.29 467.021 232.29Z" fill="#112F91"/>
<path d="M463.918 221.377C463.525 221.377 463.137 221.286 462.786 221.11C462.434 220.934 462.129 220.679 461.893 220.364L455.686 212.086C455.487 211.82 455.341 211.518 455.259 211.196C455.176 210.874 455.158 210.539 455.205 210.209C455.252 209.88 455.364 209.564 455.533 209.278C455.702 208.992 455.926 208.742 456.192 208.542C456.458 208.343 456.761 208.198 457.083 208.115C457.405 208.033 457.74 208.015 458.069 208.062C458.398 208.109 458.714 208.22 459 208.389C459.286 208.559 459.536 208.783 459.735 209.049L463.796 214.464L474.226 198.816C474.41 198.539 474.647 198.301 474.924 198.116C475.2 197.931 475.51 197.802 475.836 197.736C476.162 197.671 476.498 197.67 476.824 197.735C477.15 197.799 477.461 197.927 477.737 198.112C478.014 198.296 478.252 198.534 478.437 198.81C478.622 199.087 478.75 199.397 478.815 199.723C478.88 200.049 478.881 200.385 478.816 200.711C478.751 201.037 478.623 201.348 478.438 201.624L466.024 220.25C465.799 220.587 465.497 220.865 465.143 221.061C464.789 221.257 464.393 221.365 463.988 221.376C463.964 221.377 463.941 221.377 463.918 221.377Z" fill="white"/>
<path d="M478.272 233.592C478.494 232.661 478.509 231.693 478.316 230.756C478.123 229.819 477.728 228.936 477.157 228.168C476.586 227.401 475.854 226.768 475.012 226.314C474.17 225.86 473.238 225.596 472.283 225.541L460.625 185.812L452.739 194.966L465.286 232.165C465.3 233.776 465.904 235.325 466.984 236.52C468.064 237.715 469.545 238.472 471.146 238.648C472.746 238.823 474.356 238.406 475.669 237.474C476.983 236.542 477.909 235.161 478.272 233.592V233.592Z" fill="#FFB8B8"/>
<path d="M470.047 214.209L468.532 208.655L470.268 205.338L470.137 204.952L469.613 203.462L466.894 201.282L467.869 198.505L464.429 188.732L463.585 187.037L443.839 147.38L439.105 137.869L438.007 136.148L434.592 130.791L429.924 123.476C429.182 122.306 428.214 121.296 427.078 120.505C425.942 119.713 424.66 119.155 423.306 118.864C422.869 118.767 422.425 118.699 421.979 118.659L421.66 118.634C420.863 118.59 420.063 118.637 419.277 118.773H419.26C417.874 119.014 416.552 119.538 415.378 120.313C414.454 120.912 413.63 121.653 412.937 122.509C411.343 124.487 410.514 126.974 410.603 129.513L410.751 133.511L410.898 137.148L417.827 149.682L418.277 150.501L418.286 150.525L439.604 189.109L446.034 200.742L447.008 202.511L451.333 205.378L450.178 208.262L450.514 212.751L454.191 215.528L459.523 220.943L459.736 221.385L461.374 220.558L461.529 220.476L461.898 220.37L466.968 218.838L470.047 217.912L470.145 217.879L470.989 217.666L470.047 214.209Z" fill="#E6E6E6"/>
<path d="M557.69 394.563C556.145 392.599 554.048 391.143 551.669 390.382C549.289 389.621 546.737 389.591 544.34 390.295L543.816 390.451L539.114 408.809C538.41 406.073 536.903 399.896 535.953 393.85L535.871 393.35L535.404 393.555C530.49 395.728 525.869 398.514 521.653 401.846C514.184 407.839 508.108 415.387 503.85 423.965C499.591 432.544 497.251 441.947 496.993 451.521L496.985 451.874L496.976 452.095L497.599 451.874L510.957 447.098C516.871 447.619 522.827 446.813 528.39 444.738C533.953 442.663 538.982 439.372 543.111 435.105C548.509 429.411 552.21 422.088 555.79 415.002C556.838 412.937 557.911 410.808 559.008 408.76C560.233 406.533 560.761 403.99 560.526 401.459C560.291 398.928 559.303 396.526 557.69 394.563V394.563Z" fill="#F2F2F2"/>
<path d="M214.897 89.8163H213.259V26.7032H331.735V28.3416H214.897V89.8163Z" fill="#3F3D56"/>
<path d="M349.903 45.5144C362.468 45.5144 372.655 35.3256 372.655 22.7572C372.655 10.1887 362.468 0 349.903 0C337.337 0 327.151 10.1887 327.151 22.7572C327.151 35.3256 337.337 45.5144 349.903 45.5144Z" fill="#112F91"/>
<path d="M346.799 34.6012C346.406 34.6012 346.018 34.5097 345.667 34.3339C345.316 34.1581 345.01 33.9029 344.774 33.5884L338.567 25.3103C338.368 25.0444 338.223 24.7417 338.14 24.4197C338.058 24.0977 338.039 23.7626 338.087 23.4335C338.134 23.1044 338.245 22.7878 338.414 22.5018C338.584 22.2157 338.808 21.9658 339.073 21.7664C339.339 21.567 339.642 21.4218 339.964 21.3394C340.286 21.2569 340.621 21.2386 340.95 21.2856C341.279 21.3327 341.595 21.444 341.881 21.6134C342.167 21.7828 342.417 22.0069 342.617 22.2728L346.677 27.6881L357.107 12.04C357.292 11.763 357.529 11.5251 357.805 11.3399C358.081 11.1546 358.391 11.0256 358.717 10.9602C359.043 10.8948 359.379 10.8943 359.705 10.9588C360.031 11.0233 360.342 11.1514 360.619 11.336C360.895 11.5205 361.133 11.7577 361.318 12.0341C361.503 12.3106 361.632 12.6207 361.697 12.9469C361.762 13.2731 361.762 13.609 361.697 13.9352C361.632 14.2615 361.504 14.5718 361.319 14.8484L348.905 33.4739C348.68 33.8107 348.378 34.0888 348.024 34.2848C347.67 34.4808 347.274 34.589 346.869 34.6004C346.846 34.6008 346.822 34.6012 346.799 34.6012Z" fill="white"/>
<path d="M134.633 243.042H132.995V306.155H251.471V304.517H134.633V243.042Z" fill="#3F3D56"/>
<path d="M269.639 328.955C282.205 328.955 292.392 318.766 292.392 306.198C292.392 293.629 282.205 283.441 269.639 283.441C257.074 283.441 246.887 293.629 246.887 306.198C246.887 318.766 257.074 328.955 269.639 328.955Z" fill="#112F91"/>
<path d="M266.536 318.042C266.143 318.042 265.755 317.95 265.404 317.775C265.052 317.599 264.747 317.344 264.511 317.029L258.304 308.751C258.105 308.485 257.96 308.182 257.877 307.86C257.795 307.538 257.776 307.203 257.823 306.874C257.87 306.545 257.982 306.229 258.151 305.942C258.32 305.656 258.544 305.407 258.81 305.207C259.076 305.008 259.379 304.863 259.701 304.78C260.023 304.698 260.358 304.679 260.687 304.726C261.016 304.773 261.332 304.885 261.618 305.054C261.904 305.224 262.154 305.448 262.353 305.714L266.414 311.129L276.844 295.481C277.028 295.204 277.265 294.966 277.542 294.781C277.818 294.595 278.128 294.466 278.454 294.401C278.78 294.336 279.116 294.335 279.442 294.4C279.768 294.464 280.079 294.592 280.355 294.777C280.632 294.961 280.87 295.198 281.055 295.475C281.24 295.751 281.368 296.061 281.433 296.388C281.498 296.714 281.499 297.05 281.434 297.376C281.369 297.702 281.241 298.013 281.056 298.289L268.642 316.915C268.417 317.251 268.115 317.53 267.761 317.726C267.407 317.922 267.011 318.03 266.606 318.041C266.583 318.042 266.559 318.042 266.536 318.042Z" fill="white"/>
<path d="M449.695 245.363C449.718 247.088 449.441 248.804 448.876 250.434L448.753 250.41C434.206 252.926 421.231 253.338 415.228 244.407C407.397 234.433 396.624 234.545 384.608 238.924L383.183 237.384L380.759 234.771L382.986 232.248L380.759 227.382L382.618 221.377L384.993 220.943L384.354 215.774L383.355 212.751L386.287 209.532L388.777 201.496L386.983 184.677C384.528 161.625 389.284 138.378 400.595 118.143L407.401 112.031L410.227 109.492L414.019 102.414L418.024 102.881L428.867 104.134L429.236 105.019L431.898 111.442L445.919 126.507L445.288 132.864L445.01 135.665L444.805 137.68L443.839 147.38L439.899 187.004L439.604 189.109L436.435 211.891C441.586 216.872 446.14 226.464 448.327 235.23C448.573 236.205 447.876 237.196 448.057 238.146C448.311 239.49 449.416 240.768 449.539 242.021C449.653 243.131 449.705 244.247 449.695 245.363V245.363Z" fill="#E6E6E6"/>
<path d="M421.923 99.8772C432.325 99.8772 440.757 91.443 440.757 81.0389C440.757 70.6348 432.325 62.2006 421.923 62.2006C411.521 62.2006 403.089 70.6348 403.089 81.0389C403.089 91.443 411.521 99.8772 421.923 99.8772Z" fill="#FFB6B6"/>
<path d="M444.627 75.8996C443.513 72.4237 440.455 69.4827 436.826 69.0984C437.101 66.7897 436.737 64.4499 435.775 62.3336C434.812 60.2173 433.288 58.4057 431.367 57.096C429.447 55.7862 427.204 55.0286 424.883 54.9057C422.562 54.7827 420.251 55.2991 418.203 56.3985C417.768 55.8755 417.205 55.4737 416.57 55.232C415.934 54.9903 415.246 54.9169 414.574 55.019C413.229 55.2406 411.962 55.7961 410.887 56.6345C408.219 58.5865 406.13 61.2257 404.842 64.2711C403.554 67.3166 403.116 70.6542 403.575 73.9289C403.567 72.2678 404.302 75.4815 406.412 75.7655C408.17 76.1192 409.843 76.8096 411.34 77.7987C412.836 78.7877 414.504 79.4871 416.258 79.8607C418.028 80.1197 418.485 87.217 417.22 91.7882C416.981 92.6545 416.859 93.8168 417.657 94.2297C418.64 94.7381 419.634 93.4598 420.734 93.3352C421.227 93.3274 421.704 93.5116 422.065 93.8488C422.425 94.186 422.64 94.65 422.665 95.143C422.666 95.6376 422.549 96.1252 422.324 96.5654C422.098 97.0056 421.771 97.3855 421.369 97.6736C420.561 98.2416 419.666 98.6752 418.719 98.9577L419.037 99.4086C419.314 99.924 419.763 100.327 420.305 100.548C420.847 100.769 421.449 100.794 422.008 100.62C423.268 102.139 436.246 97.9203 436.879 95.1469C439.598 92.6974 441.855 89.7806 443.545 86.5348C445.233 83.253 445.62 79.4544 444.627 75.8996V75.8996Z" fill="#2F2E41"/>
<path d="M459.859 133.273C459.597 135.469 457.541 137.107 455.379 137.566C454.279 137.777 453.151 137.797 452.045 137.623C450.965 137.463 449.897 137.224 448.851 136.91C447.557 136.542 446.277 136.127 445.01 135.665C441.391 134.373 437.903 132.741 434.592 130.791C432.088 129.329 429.691 127.692 427.418 125.892C426.238 124.958 425.094 123.983 423.986 122.968L425.37 123.623C424.133 121.96 422.897 120.297 421.66 118.634C420.464 117.028 419.271 115.423 418.081 113.817C418.007 113.719 417.95 113.653 417.925 113.621V113.612C417.376 112.883 416.836 112.154 416.295 111.425C414.666 109.238 413.06 106.027 414.936 104.052C415.336 103.668 415.821 103.384 416.352 103.223C416.883 103.062 417.445 103.029 417.991 103.127C418.579 103.203 419.148 103.386 419.67 103.667C421.102 104.595 422.318 105.822 423.232 107.264C424.51 105.404 426.992 104.716 429.236 105.019C429.359 105.027 429.473 105.044 429.588 105.06C431.922 105.462 432.93 104.2 434.953 105.437C435.894 106.01 436.468 108.959 437.41 109.533C437.942 109.861 439.916 110.352 440.456 110.688C441.521 111.343 441.251 113.793 442.324 114.448C443.118 114.931 445.247 113.629 446.042 114.112C446.877 114.628 448.04 118.036 448.876 118.544C450.538 119.568 451.873 117.7 453.536 118.716C455.674 120.035 457.95 121.501 458.851 123.844C459.646 125.909 458.622 128.735 456.648 129.325C457.591 129.437 458.453 129.912 459.052 130.649C459.651 131.386 459.941 132.327 459.859 133.273V133.273Z" fill="#E6E6E6"/>
<path opacity="0.2" d="M445.01 135.665L444.805 137.68C442.484 137.457 440.2 136.942 438.007 136.148C435.121 135.179 432.617 133.317 430.857 130.832C429.744 129.161 428.581 127.498 427.418 125.892C425.485 123.205 423.568 120.699 421.979 118.659C420.038 116.193 418.58 114.407 418.081 113.817C418.007 113.719 417.95 113.653 417.925 113.621L417.901 113.596L417.925 113.612C427.657 125.932 436.849 133.036 445.288 132.864C445.288 132.864 446.279 136.124 445.01 135.665Z" fill="black"/>
<path d="M355.954 37.0112C355.715 37.9373 355.681 38.9048 355.855 39.8454C356.03 40.786 356.408 41.6768 356.964 42.4553C357.52 43.2337 358.24 43.8807 359.073 44.3507C359.906 44.8208 360.832 45.1024 361.786 45.1758L372.673 85.1233L380.736 76.1232L368.91 38.6887C368.927 37.0781 368.353 35.5172 367.296 34.3018C366.24 33.0863 364.774 32.3008 363.177 32.0941C361.58 31.8873 359.963 32.2736 358.632 33.1799C357.3 34.0862 356.348 35.4494 355.954 37.0112Z" fill="#FFB8B8"/>
<path d="M419.874 139.163L419.801 135.526L412.937 122.509L412.684 122.034L412.667 122.009L407.401 112.031L381.989 63.8416L379.26 62.8389L379.396 58.9245L379.26 54.647L375.981 52.4483L374.583 49.7974L372.601 50.3626H372.593L372.536 50.379L363.87 52.812H363.862L362.06 53.8278L360.422 58.7429L360.064 61.0699L360.422 65.2965L364.517 66.1157L363.161 70.4496L367.277 82.9173C372.429 104.708 379.464 123.517 391.61 134.256L392.61 135.895L400.513 148.83C401.591 150.599 403.17 152.009 405.048 152.883C406.927 153.756 409.023 154.053 411.07 153.737H411.078C412.468 153.521 413.8 153.025 414.993 152.278C416.093 151.6 417.055 150.718 417.827 149.682C419.238 147.807 419.985 145.515 419.948 143.169L419.874 139.163Z" fill="#E6E6E6"/>
<path d="M563.457 453.748L340.891 454C340.632 454 340.384 453.897 340.201 453.714C340.018 453.531 339.916 453.283 339.916 453.025C339.916 452.766 340.018 452.518 340.201 452.335C340.384 452.152 340.632 452.049 340.891 452.049L563.457 451.797C563.716 451.797 563.964 451.9 564.147 452.083C564.33 452.266 564.433 452.514 564.433 452.773C564.433 453.032 564.33 453.28 564.147 453.463C563.964 453.645 563.716 453.748 563.457 453.748V453.748Z" fill="#CACACA"/>
<path d="M68.4928 125.917C68.4792 113.603 73.1828 101.751 81.6366 92.7995L52.6245 52.8594C51.4302 51.2139 49.8955 49.8452 48.1247 48.8464C46.354 47.8476 44.3889 47.2422 42.3632 47.0715C40.3375 46.9007 38.2988 47.1685 36.3859 47.8568C34.4731 48.545 32.7309 49.6375 31.2782 51.0598C21.3398 60.75 13.4498 72.3391 8.07671 85.1387C2.70361 97.9383 -0.0429644 111.688 0.000117607 125.57C0.000198529 130.812 0.390935 136.047 1.16906 141.231C1.47433 143.281 2.2229 145.239 3.36261 146.969C4.50232 148.7 6.00571 150.161 7.76795 151.251C9.5103 152.329 11.4669 153.015 13.5013 153.259C15.5358 153.504 17.599 153.301 19.5472 152.666L69.6426 136.386C68.8802 132.948 68.4947 129.438 68.4928 125.917V125.917Z" fill="#F2F2F2"/>
<path d="M71.157 141.743L19.0762 158.668C17.1487 159.292 15.3777 160.322 13.8831 161.69C12.3886 163.057 11.2054 164.73 10.4138 166.595C9.6222 168.46 9.24065 170.474 9.29501 172.499C9.34936 174.524 9.83836 176.514 10.7289 178.334C18.1456 193.385 29.0788 206.426 42.6027 216.354C56.1266 226.282 71.8431 232.805 88.4215 235.369C90.4405 235.68 92.5028 235.55 94.4669 234.988C96.4309 234.426 98.2503 233.446 99.8001 232.115C101.348 230.788 102.59 229.141 103.441 227.288C104.293 225.435 104.733 223.419 104.732 221.38V172.726C97.0187 170.724 89.9184 166.849 84.0615 161.444C78.2045 156.039 73.7719 149.272 71.157 141.743Z" fill="#E6E6E6"/>
<path d="M227.778 172.142C226.899 170.054 225.58 168.179 223.911 166.646C222.243 165.113 220.264 163.957 218.109 163.257L161.308 144.797C157.993 152.597 152.686 159.388 145.921 164.491C139.155 169.594 131.167 172.829 122.758 173.872V233.066C122.76 235.338 123.252 237.583 124.201 239.648C125.151 241.712 126.535 243.546 128.26 245.025C129.984 246.505 132.008 247.593 134.192 248.217C136.377 248.841 138.67 248.985 140.915 248.64C159.37 245.784 176.866 238.523 191.92 227.472C206.975 216.42 219.146 201.903 227.402 185.149C228.395 183.135 228.942 180.931 229.007 178.686C229.072 176.442 228.653 174.21 227.778 172.142Z" fill="#3F3D56"/>
<path d="M213.666 36.3668C212.049 34.7834 210.11 33.5671 207.98 32.8009C205.851 32.0347 203.581 31.7365 201.326 31.9266C199.071 32.1167 196.884 32.7906 194.912 33.9025C192.941 35.0144 191.233 36.5381 189.903 38.3699L151.07 91.8315C155.537 96.3108 159.079 101.626 161.493 107.475C163.906 113.323 165.144 119.59 165.136 125.917C165.136 127.094 165.08 128.257 164.997 129.413L226.725 149.474C228.908 150.179 231.218 150.399 233.494 150.12C235.771 149.84 237.959 149.068 239.906 147.856C241.854 146.644 243.513 145.022 244.77 143.103C246.027 141.184 246.85 139.014 247.183 136.745C248.05 130.973 248.484 125.146 248.484 119.31C248.532 103.856 245.475 88.5511 239.493 74.3027C233.512 60.0544 224.729 47.1537 213.666 36.3668V36.3668Z" fill="#112F91"/>
<path d="M116.815 77.5844C125.128 77.575 133.302 79.7219 140.539 83.8155L164.241 51.185C165.449 49.5232 166.282 47.619 166.683 45.6037C167.084 43.5885 167.043 41.5102 166.563 39.5123C166.098 37.5526 165.214 35.7171 163.971 34.1324C162.728 32.5478 161.156 31.2519 159.363 30.334C144.73 22.8901 128.549 18.9985 112.131 18.9746C95.7139 18.9507 79.5217 22.7951 64.8665 30.1964C63.0183 31.1291 61.395 32.4526 60.109 34.0752C58.8229 35.6977 57.9049 37.5805 57.4186 39.5931C56.939 41.577 56.8963 43.6415 57.2937 45.6435C57.691 47.6455 58.5188 49.5372 59.7197 51.1874L86.6079 88.2043C95.169 81.3181 105.829 77.5704 116.815 77.5844V77.5844Z" fill="#E6E6E6"/>
</g>
<defs>
<clipPath id="clip0_2_375">
<rect width="564.432" height="454" fill="white" transform="translate(0.00012207)"/>
</clipPath>
</defs>
</svg>
