<svg width="15" height="21" viewBox="0 0 15 21" fill="none" xmlns="http://www.w3.org/2000/svg">
<path d="M10.8642 15.5564C10.2422 16.3304 9.67621 17.1457 9.17016 17.9964C8.73809 18.7965 8.55798 19.339 8.24221 20.303C8.04856 20.8356 7.87354 20.9946 7.49725 20.9946C7.08721 20.9946 6.90118 20.7241 6.75745 20.3059C6.45897 19.3955 6.22477 18.7008 5.85528 18.0443C5.13024 16.7768 4.2293 15.6505 3.34407 14.5681C3.10442 14.2617 1.55497 12.477 0.85741 11.0687C0.85741 11.0687 6.66836e-05 9.52175 6.66836e-05 7.36126C6.66836e-05 5.34034 0.845574 3.93872 0.845574 3.93872L3.27985 4.57536L4.75817 8.37773L5.12391 8.90205L5.19704 8.99703L5.2943 9.11594L5.46505 9.30585L5.70903 9.54406L7.02546 10.5914L10.3167 12.4472L10.8642 15.5564V15.5564Z" fill="#34A853"/>
<path d="M14.261 10.8086C13.4578 12.6004 11.9088 14.1754 10.8608 15.5577L5.2943 9.1184C5.2943 9.1184 6.07852 10.12 7.50105 10.12C9.08561 10.12 10.3657 8.88431 10.3657 7.32619C10.3657 6.25771 9.70746 5.52368 9.70746 5.52368L13.4861 6.51246L14.261 10.8086V10.8086Z" fill="#FBBC04"/>
<path d="M5.23213 0.331112C3.38338 0.913218 1.801 2.13528 0.843867 3.93733L5.2926 9.11454C5.2926 9.11454 4.63436 8.36724 4.63436 7.3054C4.63436 5.711 6.00914 4.51989 7.49432 4.51989C8.89875 4.51989 9.70535 5.51983 9.70535 5.51983V2.25825L5.23213 0.331055V0.331112Z" fill="#4285F4"/>
<path d="M13.2413 2.61871C12.1371 1.32855 10.1941 0 7.51546 0C6.21585 0 5.23675 0.333196 5.23675 0.333196L9.70956 5.52272H12.8786L13.2413 2.61876V2.61871Z" fill="#1A73E8"/>
<path d="M14.261 10.8085C14.261 10.8085 15 9.39525 15 7.34789C15 5.41286 14.2297 3.72141 13.2413 2.61865L9.70706 5.52312L14.261 10.8085V10.8085Z" fill="#EA4335"/>
</svg>
