<svg width="40" height="40" viewBox="0 0 40 40" fill="none" xmlns="http://www.w3.org/2000/svg">
<path fill-rule="evenodd" clip-rule="evenodd" d="M27.5583 1.77675C25.6033 1.68675 24.98 1.66675 20 1.66675C15.02 1.66675 14.3967 1.68841 12.4433 1.77675C10.49 1.86508 9.15667 2.17675 7.99 2.62841C6.76833 3.09008 5.66 3.81175 4.74333 4.74508C3.81 5.66008 3.09 6.76675 2.63 7.99008C2.17667 9.15675 1.86667 10.4901 1.77667 12.4401C1.68667 14.3984 1.66667 15.0217 1.66667 20.0001C1.66667 24.9801 1.68833 25.6034 1.77667 27.5584C1.865 29.5084 2.17667 30.8417 2.63 32.0084C3.09001 33.2319 3.8112 34.3404 4.74333 35.2567C5.66 36.1901 6.76833 36.9101 7.99 37.3701C9.15667 37.8234 10.49 38.1334 12.44 38.2234C14.3967 38.3134 15.02 38.3334 20 38.3334C24.98 38.3334 25.6033 38.3117 27.5583 38.2234C29.5083 38.1351 30.8417 37.8234 32.0083 37.3701C33.2318 36.91 34.3403 36.1888 35.2567 35.2567C36.1894 34.3412 36.9111 33.2332 37.3717 32.0101C37.8233 30.8434 38.1333 29.5101 38.2233 27.5601C38.3133 25.6017 38.3333 24.9784 38.3333 20.0001C38.3333 15.0201 38.3117 14.3967 38.2233 12.4434C38.135 10.4901 37.8233 9.15675 37.3717 7.99008C36.9105 6.76688 36.1881 5.65894 35.255 4.74341C34.3399 3.81092 33.2325 3.08915 32.01 2.62841C30.8433 2.17675 29.51 1.86675 27.56 1.77675H27.5583ZM12.5917 5.07675C14.525 4.98841 15.105 4.97008 20 4.97008C24.895 4.97008 25.475 4.98841 27.4083 5.07675C29.1967 5.15841 30.1667 5.45675 30.8133 5.70841C31.6683 6.04175 32.28 6.43675 32.9217 7.07842C33.5299 7.67017 33.998 8.39055 34.2917 9.18675C34.5433 9.83342 34.8417 10.8034 34.9233 12.5917C35.0117 14.5251 35.03 15.1051 35.03 20.0001C35.03 24.8951 35.0117 25.4751 34.9233 27.4084C34.8417 29.1967 34.5433 30.1668 34.2917 30.8134C33.9983 31.6084 33.53 32.3301 32.9217 32.9217C32.33 33.5301 31.6083 33.9984 30.8133 34.2918C30.1667 34.5434 29.1967 34.8418 27.4083 34.9234C25.475 35.0118 24.8967 35.0301 20 35.0301C15.1033 35.0301 14.525 35.0118 12.5917 34.9234C10.8033 34.8418 9.83333 34.5434 9.18666 34.2918C8.33167 33.9584 7.72 33.5634 7.07833 32.9217C6.47 32.3301 6.00167 31.6084 5.70833 30.8134C5.45667 30.1668 5.15833 29.1967 5.07667 27.4084C4.98833 25.4751 4.97 24.8951 4.97 20.0001C4.97 15.1051 4.98833 14.5251 5.07667 12.5917C5.15833 10.8034 5.45667 9.83342 5.70833 9.18675C6.04167 8.33175 6.43667 7.72008 7.07833 7.07842C7.67012 6.4702 8.39049 6.0021 9.18666 5.70841C9.83333 5.45675 10.8033 5.15841 12.5917 5.07675V5.07675ZM22.3417 25.6517C21.0339 26.1961 19.5777 26.2696 18.2218 25.8596C16.8659 25.4496 15.6943 24.5816 14.9073 23.4038C14.1203 22.226 13.7666 20.8115 13.9066 19.4019C14.0466 17.9923 14.6717 16.675 15.675 15.6751C16.3146 15.0359 17.088 14.5464 17.9394 14.242C18.7909 13.9376 19.6993 13.8257 20.5992 13.9144C21.4991 14.0032 22.3681 14.2904 23.1437 14.7553C23.9192 15.2202 24.5821 15.8513 25.0845 16.6032C25.5869 17.355 25.9163 18.2089 26.0491 19.1034C26.1819 19.9978 26.1147 20.9106 25.8524 21.7759C25.5901 22.6413 25.1392 23.4378 24.5321 24.108C23.9251 24.7781 23.177 25.3054 22.3417 25.6517ZM26.6633 13.3367C25.7883 12.4617 24.7495 11.7676 23.6062 11.294C22.4629 10.8204 21.2375 10.5767 20 10.5767C18.7625 10.5767 17.5371 10.8204 16.3938 11.294C15.2505 11.7676 14.2117 12.4617 13.3367 13.3367C12.4616 14.2118 11.7675 15.2506 11.2939 16.3939C10.8204 17.5372 10.5766 18.7626 10.5766 20.0001C10.5766 21.2376 10.8204 22.463 11.2939 23.6063C11.7675 24.7495 12.4616 25.7884 13.3367 26.6634C15.1039 28.4306 17.5008 29.4235 20 29.4235C22.4992 29.4235 24.8961 28.4306 26.6633 26.6634C28.4306 24.8962 29.4234 22.4993 29.4234 20.0001C29.4234 17.5008 28.4306 15.104 26.6633 13.3367V13.3367ZM8.48666 11.9801C8.26982 11.7755 8.09623 11.5296 7.97616 11.2567C7.85609 10.9839 7.79198 10.6897 7.78764 10.3916C7.78329 10.0936 7.8388 9.79766 7.95086 9.52143C8.06293 9.2452 8.22928 8.99427 8.44007 8.78348C8.65085 8.57269 8.90179 8.40634 9.17802 8.29428C9.45424 8.18221 9.75015 8.12671 10.0482 8.13105C10.3463 8.1354 10.6404 8.1995 10.9133 8.31958C11.1861 8.43965 11.4321 8.61324 11.6367 8.83008C12.0345 9.2518 12.2523 9.81195 12.2438 10.3916C12.2354 10.9713 12.0013 11.5249 11.5914 11.9348C11.1815 12.3448 10.6279 12.5788 10.0482 12.5872C9.46854 12.5957 8.90838 12.3779 8.48666 11.9801V11.9801Z" fill="#112F91"/>
</svg>
