<svg width="219" height="108" viewBox="0 0 219 108" fill="none" xmlns="http://www.w3.org/2000/svg">
<path d="M15.6 19.304C19.152 19.304 22.256 20.008 24.912 21.416C27.568 22.824 29.616 24.808 31.056 27.368C32.528 29.896 33.264 32.824 33.264 36.152C33.264 39.448 32.528 42.376 31.056 44.936C29.616 47.496 27.552 49.48 24.864 50.888C22.208 52.296 19.12 53 15.6 53H2.976V19.304H15.6ZM15.072 45.896C18.176 45.896 20.592 45.048 22.32 43.352C24.048 41.656 24.912 39.256 24.912 36.152C24.912 33.048 24.048 30.632 22.32 28.904C20.592 27.176 18.176 26.312 15.072 26.312H11.184V45.896H15.072ZM41.979 23.432C40.539 23.432 39.355 23.016 38.427 22.184C37.531 21.32 37.083 20.264 37.083 19.016C37.083 17.736 37.531 16.68 38.427 15.848C39.355 14.984 40.539 14.552 41.979 14.552C43.387 14.552 44.539 14.984 45.435 15.848C46.363 16.68 46.827 17.736 46.827 19.016C46.827 20.264 46.363 21.32 45.435 22.184C44.539 23.016 43.387 23.432 41.979 23.432ZM46.059 26.216V53H37.851V26.216H46.059ZM62.1833 25.832C64.0713 25.832 65.7193 26.216 67.1273 26.984C68.5673 27.752 69.6713 28.76 70.4393 30.008V26.216H78.6473V52.952C78.6473 55.416 78.1513 57.64 77.1593 59.624C76.1993 61.64 74.7113 63.24 72.6953 64.424C70.7113 65.608 68.2313 66.2 65.2553 66.2C61.2873 66.2 58.0713 65.256 55.6073 63.368C53.1433 61.512 51.7353 58.984 51.3833 55.784H59.4953C59.7513 56.808 60.3593 57.608 61.3193 58.184C62.2793 58.792 63.4633 59.096 64.8713 59.096C66.5673 59.096 67.9113 58.6 68.9033 57.608C69.9273 56.648 70.4393 55.096 70.4393 52.952V49.16C69.6393 50.408 68.5353 51.432 67.1273 52.232C65.7193 53 64.0713 53.384 62.1833 53.384C59.9753 53.384 57.9753 52.824 56.1833 51.704C54.3913 50.552 52.9673 48.936 51.9113 46.856C50.8873 44.744 50.3753 42.312 50.3753 39.56C50.3753 36.808 50.8873 34.392 51.9113 32.312C52.9673 30.232 54.3913 28.632 56.1833 27.512C57.9753 26.392 59.9753 25.832 62.1833 25.832ZM70.4393 39.608C70.4393 37.56 69.8633 35.944 68.7113 34.76C67.5913 33.576 66.2153 32.984 64.5833 32.984C62.9513 32.984 61.5593 33.576 60.4073 34.76C59.2873 35.912 58.7273 37.512 58.7273 39.56C58.7273 41.608 59.2873 43.24 60.4073 44.456C61.5593 45.64 62.9513 46.232 64.5833 46.232C66.2153 46.232 67.5913 45.64 68.7113 44.456C69.8633 43.272 70.4393 41.656 70.4393 39.608ZM88.7134 23.432C87.2734 23.432 86.0894 23.016 85.1614 22.184C84.2654 21.32 83.8174 20.264 83.8174 19.016C83.8174 17.736 84.2654 16.68 85.1614 15.848C86.0894 14.984 87.2734 14.552 88.7134 14.552C90.1214 14.552 91.2734 14.984 92.1694 15.848C93.0974 16.68 93.5614 17.736 93.5614 19.016C93.5614 20.264 93.0974 21.32 92.1694 22.184C91.2734 23.016 90.1214 23.432 88.7134 23.432ZM92.7934 26.216V53H84.5854V26.216H92.7934ZM113.67 46.04V53H109.494C106.518 53 104.198 52.28 102.534 50.84C100.87 49.368 100.038 46.984 100.038 43.688V33.032H96.7736V26.216H100.038V19.688H108.246V26.216H113.622V33.032H108.246V43.784C108.246 44.584 108.438 45.16 108.822 45.512C109.206 45.864 109.846 46.04 110.742 46.04H113.67ZM116.61 39.56C116.61 36.808 117.122 34.392 118.146 32.312C119.202 30.232 120.626 28.632 122.418 27.512C124.21 26.392 126.21 25.832 128.418 25.832C130.306 25.832 131.954 26.216 133.362 26.984C134.802 27.752 135.906 28.76 136.674 30.008V26.216H144.882V53H136.674V49.208C135.874 50.456 134.754 51.464 133.314 52.232C131.906 53 130.258 53.384 128.37 53.384C126.194 53.384 124.21 52.824 122.418 51.704C120.626 50.552 119.202 48.936 118.146 46.856C117.122 44.744 116.61 42.312 116.61 39.56ZM136.674 39.608C136.674 37.56 136.098 35.944 134.946 34.76C133.826 33.576 132.45 32.984 130.818 32.984C129.186 32.984 127.794 33.576 126.642 34.76C125.522 35.912 124.962 37.512 124.962 39.56C124.962 41.608 125.522 43.24 126.642 44.456C127.794 45.64 129.186 46.232 130.818 46.232C132.45 46.232 133.826 45.64 134.946 44.456C136.098 43.272 136.674 41.656 136.674 39.608ZM159.028 17.48V53H150.82V17.48H159.028ZM169.104 23.432C167.664 23.432 166.48 23.016 165.552 22.184C164.656 21.32 164.208 20.264 164.208 19.016C164.208 17.736 164.656 16.68 165.552 15.848C166.48 14.984 167.664 14.552 169.104 14.552C170.512 14.552 171.664 14.984 172.56 15.848C173.488 16.68 173.952 17.736 173.952 19.016C173.952 20.264 173.488 21.32 172.56 22.184C171.664 23.016 170.512 23.432 169.104 23.432ZM173.184 26.216V53H164.976V26.216H173.184ZM204.38 39.176C204.38 39.944 204.332 40.744 204.236 41.576H185.66C185.788 43.24 186.316 44.52 187.244 45.416C188.204 46.28 189.372 46.712 190.748 46.712C192.796 46.712 194.22 45.848 195.02 44.12H203.756C203.308 45.88 202.492 47.464 201.308 48.872C200.156 50.28 198.7 51.384 196.94 52.184C195.18 52.984 193.212 53.384 191.036 53.384C188.412 53.384 186.076 52.824 184.028 51.704C181.98 50.584 180.38 48.984 179.228 46.904C178.076 44.824 177.5 42.392 177.5 39.608C177.5 36.824 178.06 34.392 179.18 32.312C180.332 30.232 181.932 28.632 183.98 27.512C186.028 26.392 188.38 25.832 191.036 25.832C193.628 25.832 195.932 26.376 197.948 27.464C199.964 28.552 201.532 30.104 202.652 32.12C203.804 34.136 204.38 36.488 204.38 39.176ZM195.98 37.016C195.98 35.608 195.5 34.488 194.54 33.656C193.58 32.824 192.38 32.408 190.94 32.408C189.564 32.408 188.396 32.808 187.436 33.608C186.508 34.408 185.932 35.544 185.708 37.016H195.98Z" fill="white"/>
<path d="M13.56 81.272L8.112 91.688V98H5.928V91.688L0.456 81.272H2.88L7.008 89.744L11.136 81.272H13.56ZM21.5996 98.216C20.3676 98.216 19.2476 97.936 18.2396 97.376C17.2476 96.816 16.4636 96.024 15.8876 95C15.3276 93.96 15.0476 92.76 15.0476 91.4C15.0476 90.056 15.3356 88.872 15.9116 87.848C16.5036 86.808 17.3036 86.016 18.3116 85.472C19.3196 84.912 20.4476 84.632 21.6956 84.632C22.9436 84.632 24.0716 84.912 25.0796 85.472C26.0876 86.016 26.8796 86.8 27.4556 87.824C28.0476 88.848 28.3436 90.04 28.3436 91.4C28.3436 92.76 28.0396 93.96 27.4316 95C26.8396 96.024 26.0316 96.816 25.0076 97.376C23.9836 97.936 22.8476 98.216 21.5996 98.216ZM21.5996 96.296C22.3836 96.296 23.1196 96.112 23.8076 95.744C24.4956 95.376 25.0476 94.824 25.4636 94.088C25.8956 93.352 26.1116 92.456 26.1116 91.4C26.1116 90.344 25.9036 89.448 25.4876 88.712C25.0716 87.976 24.5276 87.432 23.8556 87.08C23.1836 86.712 22.4556 86.528 21.6716 86.528C20.8716 86.528 20.1356 86.712 19.4636 87.08C18.8076 87.432 18.2796 87.976 17.8796 88.712C17.4796 89.448 17.2796 90.344 17.2796 91.4C17.2796 92.472 17.4716 93.376 17.8556 94.112C18.2556 94.848 18.7836 95.4 19.4396 95.768C20.0956 96.12 20.8156 96.296 21.5996 96.296ZM42.8792 84.848V98H40.6952V96.056C40.2792 96.728 39.6952 97.256 38.9432 97.64C38.2072 98.008 37.3912 98.192 36.4952 98.192C35.4712 98.192 34.5512 97.984 33.7352 97.568C32.9192 97.136 32.2712 96.496 31.7912 95.648C31.3272 94.8 31.0952 93.768 31.0952 92.552V84.848H33.2552V92.264C33.2552 93.56 33.5832 94.56 34.2392 95.264C34.8952 95.952 35.7912 96.296 36.9272 96.296C38.0952 96.296 39.0152 95.936 39.6872 95.216C40.3592 94.496 40.6952 93.448 40.6952 92.072V84.848H42.8792ZM48.7508 86.984C49.1348 86.232 49.6788 85.648 50.3828 85.232C51.1028 84.816 51.9748 84.608 52.9988 84.608V86.864H52.4228C49.9748 86.864 48.7508 88.192 48.7508 90.848V98H46.5668V84.848H48.7508V86.984ZM67.1263 81.272C68.9503 81.272 70.5263 81.616 71.8543 82.304C73.1983 82.976 74.2223 83.944 74.9263 85.208C75.6463 86.472 76.0063 87.96 76.0063 89.672C76.0063 91.384 75.6463 92.872 74.9263 94.136C74.2223 95.384 73.1983 96.344 71.8543 97.016C70.5263 97.672 68.9503 98 67.1263 98H61.9183V81.272H67.1263ZM67.1263 96.2C69.2863 96.2 70.9343 95.632 72.0703 94.496C73.2063 93.344 73.7743 91.736 73.7743 89.672C73.7743 87.592 73.1983 85.968 72.0463 84.8C70.9103 83.632 69.2703 83.048 67.1263 83.048H64.1023V96.2H67.1263ZM80.0151 82.712C79.5991 82.712 79.2471 82.568 78.9591 82.28C78.6711 81.992 78.5271 81.64 78.5271 81.224C78.5271 80.808 78.6711 80.456 78.9591 80.168C79.2471 79.88 79.5991 79.736 80.0151 79.736C80.4151 79.736 80.7511 79.88 81.0231 80.168C81.3111 80.456 81.4551 80.808 81.4551 81.224C81.4551 81.64 81.3111 81.992 81.0231 82.28C80.7511 82.568 80.4151 82.712 80.0151 82.712ZM81.0711 84.848V98H78.8871V84.848H81.0711ZM90.2173 84.632C91.3533 84.632 92.3453 84.88 93.1933 85.376C94.0573 85.872 94.6973 86.496 95.1133 87.248V84.848H97.3213V98.288C97.3213 99.488 97.0653 100.552 96.5533 101.48C96.0413 102.424 95.3053 103.16 94.3453 103.688C93.4013 104.216 92.2973 104.48 91.0333 104.48C89.3053 104.48 87.8653 104.072 86.7133 103.256C85.5613 102.44 84.8813 101.328 84.6733 99.92H86.8333C87.0733 100.72 87.5693 101.36 88.3213 101.84C89.0733 102.336 89.9773 102.584 91.0333 102.584C92.2333 102.584 93.2093 102.208 93.9613 101.456C94.7293 100.704 95.1133 99.648 95.1133 98.288V95.528C94.6813 96.296 94.0413 96.936 93.1933 97.448C92.3453 97.96 91.3533 98.216 90.2173 98.216C89.0493 98.216 87.9853 97.928 87.0253 97.352C86.0813 96.776 85.3373 95.968 84.7933 94.928C84.2493 93.888 83.9773 92.704 83.9773 91.376C83.9773 90.032 84.2493 88.856 84.7933 87.848C85.3373 86.824 86.0813 86.032 87.0253 85.472C87.9853 84.912 89.0493 84.632 90.2173 84.632ZM95.1133 91.4C95.1133 90.408 94.9133 89.544 94.5133 88.808C94.1133 88.072 93.5693 87.512 92.8813 87.128C92.2093 86.728 91.4653 86.528 90.6493 86.528C89.8333 86.528 89.0893 86.72 88.4173 87.104C87.7453 87.488 87.2093 88.048 86.8093 88.784C86.4093 89.52 86.2093 90.384 86.2093 91.376C86.2093 92.384 86.4093 93.264 86.8093 94.016C87.2093 94.752 87.7453 95.32 88.4173 95.72C89.0893 96.104 89.8333 96.296 90.6493 96.296C91.4653 96.296 92.2093 96.104 92.8813 95.72C93.5693 95.32 94.1133 94.752 94.5133 94.016C94.9133 93.264 95.1133 92.392 95.1133 91.4ZM102.14 82.712C101.724 82.712 101.372 82.568 101.084 82.28C100.796 81.992 100.652 81.64 100.652 81.224C100.652 80.808 100.796 80.456 101.084 80.168C101.372 79.88 101.724 79.736 102.14 79.736C102.54 79.736 102.876 79.88 103.148 80.168C103.436 80.456 103.58 80.808 103.58 81.224C103.58 81.64 103.436 81.992 103.148 82.28C102.876 82.568 102.54 82.712 102.14 82.712ZM103.196 84.848V98H101.012V84.848H103.196ZM109.582 86.648V94.4C109.582 95.04 109.718 95.496 109.99 95.768C110.262 96.024 110.734 96.152 111.406 96.152H113.014V98H111.046C109.83 98 108.918 97.72 108.31 97.16C107.702 96.6 107.398 95.68 107.398 94.4V86.648H105.694V84.848H107.398V81.536H109.582V84.848H113.014V86.648H109.582ZM114.845 91.376C114.845 90.032 115.117 88.856 115.661 87.848C116.205 86.824 116.949 86.032 117.893 85.472C118.853 84.912 119.917 84.632 121.085 84.632C122.237 84.632 123.237 84.88 124.085 85.376C124.933 85.872 125.565 86.496 125.981 87.248V84.848H128.189V98H125.981V95.552C125.549 96.32 124.901 96.96 124.037 97.472C123.189 97.968 122.197 98.216 121.061 98.216C119.893 98.216 118.837 97.928 117.893 97.352C116.949 96.776 116.205 95.968 115.661 94.928C115.117 93.888 114.845 92.704 114.845 91.376ZM125.981 91.4C125.981 90.408 125.781 89.544 125.381 88.808C124.981 88.072 124.437 87.512 123.749 87.128C123.077 86.728 122.333 86.528 121.517 86.528C120.701 86.528 119.957 86.72 119.285 87.104C118.613 87.488 118.077 88.048 117.677 88.784C117.277 89.52 117.077 90.384 117.077 91.376C117.077 92.384 117.277 93.264 117.677 94.016C118.077 94.752 118.613 95.32 119.285 95.72C119.957 96.104 120.701 96.296 121.517 96.296C122.333 96.296 123.077 96.104 123.749 95.72C124.437 95.32 124.981 94.752 125.381 94.016C125.781 93.264 125.981 92.392 125.981 91.4ZM134.063 80.24V98H131.879V80.24H134.063ZM152.56 89.384C153.168 89.48 153.72 89.728 154.216 90.128C154.728 90.528 155.128 91.024 155.416 91.616C155.72 92.208 155.872 92.84 155.872 93.512C155.872 94.36 155.656 95.128 155.224 95.816C154.792 96.488 154.16 97.024 153.328 97.424C152.512 97.808 151.544 98 150.424 98H144.184V81.272H150.184C151.32 81.272 152.288 81.464 153.088 81.848C153.888 82.216 154.488 82.72 154.888 83.36C155.288 84 155.488 84.72 155.488 85.52C155.488 86.512 155.216 87.336 154.672 87.992C154.144 88.632 153.44 89.096 152.56 89.384ZM146.368 88.496H150.04C151.064 88.496 151.856 88.256 152.416 87.776C152.976 87.296 153.256 86.632 153.256 85.784C153.256 84.936 152.976 84.272 152.416 83.792C151.856 83.312 151.048 83.072 149.992 83.072H146.368V88.496ZM150.232 96.2C151.32 96.2 152.168 95.944 152.776 95.432C153.384 94.92 153.688 94.208 153.688 93.296C153.688 92.368 153.368 91.64 152.728 91.112C152.088 90.568 151.232 90.296 150.16 90.296H146.368V96.2H150.232ZM170.567 84.848V98H168.383V96.056C167.967 96.728 167.383 97.256 166.631 97.64C165.895 98.008 165.079 98.192 164.183 98.192C163.159 98.192 162.239 97.984 161.423 97.568C160.607 97.136 159.959 96.496 159.479 95.648C159.015 94.8 158.783 93.768 158.783 92.552V84.848H160.943V92.264C160.943 93.56 161.271 94.56 161.927 95.264C162.583 95.952 163.479 96.296 164.615 96.296C165.783 96.296 166.703 95.936 167.375 95.216C168.047 94.496 168.383 93.448 168.383 92.072V84.848H170.567ZM173.438 91.376C173.438 90.032 173.71 88.856 174.254 87.848C174.798 86.824 175.542 86.032 176.486 85.472C177.446 84.912 178.518 84.632 179.702 84.632C180.726 84.632 181.678 84.872 182.558 85.352C183.438 85.816 184.11 86.432 184.574 87.2V80.24H186.782V98H184.574V95.528C184.142 96.312 183.502 96.96 182.654 97.472C181.806 97.968 180.814 98.216 179.678 98.216C178.51 98.216 177.446 97.928 176.486 97.352C175.542 96.776 174.798 95.968 174.254 94.928C173.71 93.888 173.438 92.704 173.438 91.376ZM184.574 91.4C184.574 90.408 184.374 89.544 183.974 88.808C183.574 88.072 183.03 87.512 182.342 87.128C181.67 86.728 180.926 86.528 180.11 86.528C179.294 86.528 178.55 86.72 177.878 87.104C177.206 87.488 176.67 88.048 176.27 88.784C175.87 89.52 175.67 90.384 175.67 91.376C175.67 92.384 175.87 93.264 176.27 94.016C176.67 94.752 177.206 95.32 177.878 95.72C178.55 96.104 179.294 96.296 180.11 96.296C180.926 96.296 181.67 96.104 182.342 95.72C183.03 95.32 183.574 94.752 183.974 94.016C184.374 93.264 184.574 92.392 184.574 91.4ZM189.657 91.376C189.657 90.032 189.929 88.856 190.473 87.848C191.017 86.824 191.761 86.032 192.705 85.472C193.665 84.912 194.737 84.632 195.921 84.632C196.945 84.632 197.897 84.872 198.777 85.352C199.657 85.816 200.329 86.432 200.793 87.2V80.24H203.001V98H200.793V95.528C200.361 96.312 199.721 96.96 198.873 97.472C198.025 97.968 197.033 98.216 195.897 98.216C194.729 98.216 193.665 97.928 192.705 97.352C191.761 96.776 191.017 95.968 190.473 94.928C189.929 93.888 189.657 92.704 189.657 91.376ZM200.793 91.4C200.793 90.408 200.593 89.544 200.193 88.808C199.793 88.072 199.249 87.512 198.561 87.128C197.889 86.728 197.145 86.528 196.329 86.528C195.513 86.528 194.769 86.72 194.097 87.104C193.425 87.488 192.889 88.048 192.489 88.784C192.089 89.52 191.889 90.384 191.889 91.376C191.889 92.384 192.089 93.264 192.489 94.016C192.889 94.752 193.425 95.32 194.097 95.72C194.769 96.104 195.513 96.296 196.329 96.296C197.145 96.296 197.889 96.104 198.561 95.72C199.249 95.32 199.793 94.752 200.193 94.016C200.593 93.264 200.793 92.392 200.793 91.4ZM218.02 84.848L210.1 104.192H207.844L210.436 97.856L205.132 84.848H207.556L211.684 95.504L215.764 84.848H218.02Z" fill="white"/>
</svg>
