<svg width="272" height="69" viewBox="0 0 272 69" fill="none" xmlns="http://www.w3.org/2000/svg">
<path d="M109.735 41.757L105.422 50.003V55H103.693V50.003L99.361 41.757H101.28L104.548 48.464L107.816 41.757H109.735ZM116.1 55.171C115.124 55.171 114.238 54.9493 113.44 54.506C112.654 54.0627 112.034 53.4357 111.578 52.625C111.134 51.8017 110.913 50.8517 110.913 49.775C110.913 48.711 111.141 47.7737 111.597 46.963C112.065 46.1397 112.699 45.5127 113.497 45.082C114.295 44.6387 115.188 44.417 116.176 44.417C117.164 44.417 118.057 44.6387 118.855 45.082C119.653 45.5127 120.28 46.1333 120.736 46.944C121.204 47.7547 121.439 48.6983 121.439 49.775C121.439 50.8517 121.198 51.8017 120.717 52.625C120.248 53.4357 119.608 54.0627 118.798 54.506C117.987 54.9493 117.088 55.171 116.1 55.171ZM116.1 53.651C116.72 53.651 117.303 53.5053 117.848 53.214C118.392 52.9227 118.829 52.4857 119.159 51.903C119.501 51.3203 119.672 50.611 119.672 49.775C119.672 48.939 119.507 48.2297 119.178 47.647C118.848 47.0643 118.418 46.6337 117.886 46.355C117.354 46.0637 116.777 45.918 116.157 45.918C115.523 45.918 114.941 46.0637 114.409 46.355C113.889 46.6337 113.471 47.0643 113.155 47.647C112.838 48.2297 112.68 48.939 112.68 49.775C112.68 50.6237 112.832 51.3393 113.136 51.922C113.452 52.5047 113.87 52.9417 114.39 53.233C114.909 53.5117 115.479 53.651 116.1 53.651ZM132.946 44.588V55H131.217V53.461C130.888 53.993 130.425 54.411 129.83 54.715C129.247 55.0063 128.601 55.152 127.892 55.152C127.081 55.152 126.353 54.9873 125.707 54.658C125.061 54.316 124.548 53.8093 124.168 53.138C123.801 52.4667 123.617 51.6497 123.617 50.687V44.588H125.327V50.459C125.327 51.485 125.587 52.2767 126.106 52.834C126.625 53.3787 127.335 53.651 128.234 53.651C129.159 53.651 129.887 53.366 130.419 52.796C130.951 52.226 131.217 51.3963 131.217 50.307V44.588H132.946ZM137.594 46.279C137.898 45.6837 138.329 45.2213 138.886 44.892C139.456 44.5627 140.147 44.398 140.957 44.398V46.184H140.501C138.563 46.184 137.594 47.2353 137.594 49.338V55H135.865V44.588H137.594V46.279ZM152.142 41.757C153.586 41.757 154.833 42.0293 155.885 42.574C156.949 43.106 157.759 43.8723 158.317 44.873C158.887 45.8737 159.172 47.0517 159.172 48.407C159.172 49.7623 158.887 50.9403 158.317 51.941C157.759 52.929 156.949 53.689 155.885 54.221C154.833 54.7403 153.586 55 152.142 55H148.019V41.757H152.142ZM152.142 53.575C153.852 53.575 155.156 53.1253 156.056 52.226C156.955 51.314 157.405 50.041 157.405 48.407C157.405 46.7603 156.949 45.4747 156.037 44.55C155.137 43.6253 153.839 43.163 152.142 43.163H149.748V53.575H152.142ZM162.345 42.897C162.016 42.897 161.737 42.783 161.509 42.555C161.281 42.327 161.167 42.0483 161.167 41.719C161.167 41.3897 161.281 41.111 161.509 40.883C161.737 40.655 162.016 40.541 162.345 40.541C162.662 40.541 162.928 40.655 163.143 40.883C163.371 41.111 163.485 41.3897 163.485 41.719C163.485 42.0483 163.371 42.327 163.143 42.555C162.928 42.783 162.662 42.897 162.345 42.897ZM163.181 44.588V55H161.452V44.588H163.181ZM170.422 44.417C171.321 44.417 172.107 44.6133 172.778 45.006C173.462 45.3987 173.969 45.8927 174.298 46.488V44.588H176.046V55.228C176.046 56.178 175.843 57.0203 175.438 57.755C175.033 58.5023 174.45 59.085 173.69 59.503C172.943 59.921 172.069 60.13 171.068 60.13C169.7 60.13 168.56 59.807 167.648 59.161C166.736 58.515 166.198 57.6347 166.033 56.52H167.743C167.933 57.1533 168.326 57.66 168.921 58.04C169.516 58.4327 170.232 58.629 171.068 58.629C172.018 58.629 172.791 58.3313 173.386 57.736C173.994 57.1407 174.298 56.3047 174.298 55.228V53.043C173.956 53.651 173.449 54.1577 172.778 54.563C172.107 54.9683 171.321 55.171 170.422 55.171C169.497 55.171 168.655 54.943 167.895 54.487C167.148 54.031 166.559 53.3913 166.128 52.568C165.697 51.7447 165.482 50.8073 165.482 49.756C165.482 48.692 165.697 47.761 166.128 46.963C166.559 46.1523 167.148 45.5253 167.895 45.082C168.655 44.6387 169.497 44.417 170.422 44.417ZM174.298 49.775C174.298 48.9897 174.14 48.3057 173.823 47.723C173.506 47.1403 173.076 46.697 172.531 46.393C171.999 46.0763 171.41 45.918 170.764 45.918C170.118 45.918 169.529 46.07 168.997 46.374C168.465 46.678 168.041 47.1213 167.724 47.704C167.407 48.2867 167.249 48.9707 167.249 49.756C167.249 50.554 167.407 51.2507 167.724 51.846C168.041 52.4287 168.465 52.8783 168.997 53.195C169.529 53.499 170.118 53.651 170.764 53.651C171.41 53.651 171.999 53.499 172.531 53.195C173.076 52.8783 173.506 52.4287 173.823 51.846C174.14 51.2507 174.298 50.5603 174.298 49.775ZM179.861 42.897C179.532 42.897 179.253 42.783 179.025 42.555C178.797 42.327 178.683 42.0483 178.683 41.719C178.683 41.3897 178.797 41.111 179.025 40.883C179.253 40.655 179.532 40.541 179.861 40.541C180.178 40.541 180.444 40.655 180.659 40.883C180.887 41.111 181.001 41.3897 181.001 41.719C181.001 42.0483 180.887 42.327 180.659 42.555C180.444 42.783 180.178 42.897 179.861 42.897ZM180.697 44.588V55H178.968V44.588H180.697ZM185.753 46.013V52.15C185.753 52.6567 185.86 53.0177 186.076 53.233C186.291 53.4357 186.665 53.537 187.197 53.537H188.47V55H186.912C185.949 55 185.227 54.7783 184.746 54.335C184.264 53.8917 184.024 53.1633 184.024 52.15V46.013H182.675V44.588H184.024V41.966H185.753V44.588H188.47V46.013H185.753ZM189.919 49.756C189.919 48.692 190.134 47.761 190.565 46.963C190.995 46.1523 191.584 45.5253 192.332 45.082C193.092 44.6387 193.934 44.417 194.859 44.417C195.771 44.417 196.562 44.6133 197.234 45.006C197.905 45.3987 198.405 45.8927 198.735 46.488V44.588H200.483V55H198.735V53.062C198.393 53.67 197.88 54.1767 197.196 54.582C196.524 54.9747 195.739 55.171 194.84 55.171C193.915 55.171 193.079 54.943 192.332 54.487C191.584 54.031 190.995 53.3913 190.565 52.568C190.134 51.7447 189.919 50.8073 189.919 49.756ZM198.735 49.775C198.735 48.9897 198.576 48.3057 198.26 47.723C197.943 47.1403 197.512 46.697 196.968 46.393C196.436 46.0763 195.847 45.918 195.201 45.918C194.555 45.918 193.966 46.07 193.434 46.374C192.902 46.678 192.477 47.1213 192.161 47.704C191.844 48.2867 191.686 48.9707 191.686 49.756C191.686 50.554 191.844 51.2507 192.161 51.846C192.477 52.4287 192.902 52.8783 193.434 53.195C193.966 53.499 194.555 53.651 195.201 53.651C195.847 53.651 196.436 53.499 196.968 53.195C197.512 52.8783 197.943 52.4287 198.26 51.846C198.576 51.2507 198.735 50.5603 198.735 49.775ZM205.133 40.94V55H203.404V40.94H205.133ZM219.777 48.179C220.258 48.255 220.695 48.4513 221.088 48.768C221.493 49.0847 221.81 49.4773 222.038 49.946C222.278 50.4147 222.399 50.915 222.399 51.447C222.399 52.1183 222.228 52.7263 221.886 53.271C221.544 53.803 221.043 54.2273 220.385 54.544C219.739 54.848 218.972 55 218.086 55H213.146V41.757H217.896C218.795 41.757 219.561 41.909 220.195 42.213C220.828 42.5043 221.303 42.9033 221.62 43.41C221.936 43.9167 222.095 44.4867 222.095 45.12C222.095 45.9053 221.879 46.5577 221.449 47.077C221.031 47.5837 220.473 47.951 219.777 48.179ZM214.875 47.476H217.782C218.592 47.476 219.219 47.286 219.663 46.906C220.106 46.526 220.328 46.0003 220.328 45.329C220.328 44.6577 220.106 44.132 219.663 43.752C219.219 43.372 218.58 43.182 217.744 43.182H214.875V47.476ZM217.934 53.575C218.795 53.575 219.466 53.3723 219.948 52.967C220.429 52.5617 220.67 51.998 220.67 51.276C220.67 50.5413 220.416 49.965 219.91 49.547C219.403 49.1163 218.725 48.901 217.877 48.901H214.875V53.575H217.934ZM234.032 44.588V55H232.303V53.461C231.974 53.993 231.511 54.411 230.916 54.715C230.333 55.0063 229.687 55.152 228.978 55.152C228.167 55.152 227.439 54.9873 226.793 54.658C226.147 54.316 225.634 53.8093 225.254 53.138C224.887 52.4667 224.703 51.6497 224.703 50.687V44.588H226.413V50.459C226.413 51.485 226.673 52.2767 227.192 52.834C227.711 53.3787 228.421 53.651 229.32 53.651C230.245 53.651 230.973 53.366 231.505 52.796C232.037 52.226 232.303 51.3963 232.303 50.307V44.588H234.032ZM236.305 49.756C236.305 48.692 236.521 47.761 236.951 46.963C237.382 46.1523 237.971 45.5253 238.718 45.082C239.478 44.6387 240.327 44.417 241.264 44.417C242.075 44.417 242.829 44.607 243.525 44.987C244.222 45.3543 244.754 45.842 245.121 46.45V40.94H246.869V55H245.121V53.043C244.779 53.6637 244.273 54.1767 243.601 54.582C242.93 54.9747 242.145 55.171 241.245 55.171C240.321 55.171 239.478 54.943 238.718 54.487C237.971 54.031 237.382 53.3913 236.951 52.568C236.521 51.7447 236.305 50.8073 236.305 49.756ZM245.121 49.775C245.121 48.9897 244.963 48.3057 244.646 47.723C244.33 47.1403 243.899 46.697 243.354 46.393C242.822 46.0763 242.233 45.918 241.587 45.918C240.941 45.918 240.352 46.07 239.82 46.374C239.288 46.678 238.864 47.1213 238.547 47.704C238.231 48.2867 238.072 48.9707 238.072 49.756C238.072 50.554 238.231 51.2507 238.547 51.846C238.864 52.4287 239.288 52.8783 239.82 53.195C240.352 53.499 240.941 53.651 241.587 53.651C242.233 53.651 242.822 53.499 243.354 53.195C243.899 52.8783 244.33 52.4287 244.646 51.846C244.963 51.2507 245.121 50.5603 245.121 49.775ZM249.145 49.756C249.145 48.692 249.36 47.761 249.791 46.963C250.222 46.1523 250.811 45.5253 251.558 45.082C252.318 44.6387 253.167 44.417 254.104 44.417C254.915 44.417 255.668 44.607 256.365 44.987C257.062 45.3543 257.594 45.842 257.961 46.45V40.94H259.709V55H257.961V53.043C257.619 53.6637 257.112 54.1767 256.441 54.582C255.77 54.9747 254.984 55.171 254.085 55.171C253.16 55.171 252.318 54.943 251.558 54.487C250.811 54.031 250.222 53.3913 249.791 52.568C249.36 51.7447 249.145 50.8073 249.145 49.756ZM257.961 49.775C257.961 48.9897 257.803 48.3057 257.486 47.723C257.169 47.1403 256.739 46.697 256.194 46.393C255.662 46.0763 255.073 45.918 254.427 45.918C253.781 45.918 253.192 46.07 252.66 46.374C252.128 46.678 251.704 47.1213 251.387 47.704C251.07 48.2867 250.912 48.9707 250.912 49.756C250.912 50.554 251.07 51.2507 251.387 51.846C251.704 52.4287 252.128 52.8783 252.66 53.195C253.192 53.499 253.781 53.651 254.427 53.651C255.073 53.651 255.662 53.499 256.194 53.195C256.739 52.8783 257.169 52.4287 257.486 51.846C257.803 51.2507 257.961 50.5603 257.961 49.775ZM271.599 44.588L265.329 59.902H263.543L265.595 54.886L261.396 44.588H263.315L266.583 53.024L269.813 44.588H271.599Z" fill="#1D1A1A"/>
<path d="M105.175 12.662C106.581 12.662 107.81 12.9407 108.861 13.498C109.912 14.0553 110.723 14.8407 111.293 15.854C111.876 16.8547 112.167 18.0137 112.167 19.331C112.167 20.6357 111.876 21.7947 111.293 22.808C110.723 23.8213 109.906 24.6067 108.842 25.164C107.791 25.7213 106.568 26 105.175 26H100.178V12.662H105.175ZM104.966 23.188C106.195 23.188 107.151 22.8523 107.835 22.181C108.519 21.5097 108.861 20.5597 108.861 19.331C108.861 18.1023 108.519 17.146 107.835 16.462C107.151 15.778 106.195 15.436 104.966 15.436H103.427V23.188H104.966ZM115.617 14.296C115.047 14.296 114.578 14.1313 114.211 13.802C113.856 13.46 113.679 13.042 113.679 12.548C113.679 12.0413 113.856 11.6233 114.211 11.294C114.578 10.952 115.047 10.781 115.617 10.781C116.174 10.781 116.63 10.952 116.985 11.294C117.352 11.6233 117.536 12.0413 117.536 12.548C117.536 13.042 117.352 13.46 116.985 13.802C116.63 14.1313 116.174 14.296 115.617 14.296ZM117.232 15.398V26H113.983V15.398H117.232ZM123.614 15.246C124.362 15.246 125.014 15.398 125.571 15.702C126.141 16.006 126.578 16.405 126.882 16.899V15.398H130.131V25.981C130.131 26.9563 129.935 27.8367 129.542 28.622C129.162 29.42 128.573 30.0533 127.775 30.522C126.99 30.9907 126.008 31.225 124.83 31.225C123.26 31.225 121.987 30.8513 121.011 30.104C120.036 29.3693 119.479 28.3687 119.339 27.102H122.55C122.652 27.5073 122.892 27.824 123.272 28.052C123.652 28.2927 124.121 28.413 124.678 28.413C125.35 28.413 125.882 28.2167 126.274 27.824C126.68 27.444 126.882 26.8297 126.882 25.981V24.48C126.566 24.974 126.129 25.3793 125.571 25.696C125.014 26 124.362 26.152 123.614 26.152C122.74 26.152 121.949 25.9303 121.239 25.487C120.53 25.031 119.966 24.3913 119.548 23.568C119.143 22.732 118.94 21.7693 118.94 20.68C118.94 19.5907 119.143 18.6343 119.548 17.811C119.966 16.9877 120.53 16.3543 121.239 15.911C121.949 15.4677 122.74 15.246 123.614 15.246ZM126.882 20.699C126.882 19.8883 126.654 19.2487 126.198 18.78C125.755 18.3113 125.21 18.077 124.564 18.077C123.918 18.077 123.367 18.3113 122.911 18.78C122.468 19.236 122.246 19.8693 122.246 20.68C122.246 21.4907 122.468 22.1367 122.911 22.618C123.367 23.0867 123.918 23.321 124.564 23.321C125.21 23.321 125.755 23.0867 126.198 22.618C126.654 22.1493 126.882 21.5097 126.882 20.699ZM134.116 14.296C133.546 14.296 133.077 14.1313 132.71 13.802C132.355 13.46 132.178 13.042 132.178 12.548C132.178 12.0413 132.355 11.6233 132.71 11.294C133.077 10.952 133.546 10.781 134.116 10.781C134.673 10.781 135.129 10.952 135.484 11.294C135.851 11.6233 136.035 12.0413 136.035 12.548C136.035 13.042 135.851 13.46 135.484 13.802C135.129 14.1313 134.673 14.296 134.116 14.296ZM135.731 15.398V26H132.482V15.398H135.731ZM143.994 23.245V26H142.341C141.163 26 140.245 25.715 139.586 25.145C138.928 24.5623 138.598 23.6187 138.598 22.314V18.096H137.306V15.398H138.598V12.814H141.847V15.398H143.975V18.096H141.847V22.352C141.847 22.6687 141.923 22.8967 142.075 23.036C142.227 23.1753 142.481 23.245 142.835 23.245H143.994ZM145.158 20.68C145.158 19.5907 145.361 18.6343 145.766 17.811C146.184 16.9877 146.748 16.3543 147.457 15.911C148.166 15.4677 148.958 15.246 149.832 15.246C150.579 15.246 151.232 15.398 151.789 15.702C152.359 16.006 152.796 16.405 153.1 16.899V15.398H156.349V26H153.1V24.499C152.783 24.993 152.34 25.392 151.77 25.696C151.213 26 150.56 26.152 149.813 26.152C148.952 26.152 148.166 25.9303 147.457 25.487C146.748 25.031 146.184 24.3913 145.766 23.568C145.361 22.732 145.158 21.7693 145.158 20.68ZM153.1 20.699C153.1 19.8883 152.872 19.2487 152.416 18.78C151.973 18.3113 151.428 18.077 150.782 18.077C150.136 18.077 149.585 18.3113 149.129 18.78C148.686 19.236 148.464 19.8693 148.464 20.68C148.464 21.4907 148.686 22.1367 149.129 22.618C149.585 23.0867 150.136 23.321 150.782 23.321C151.428 23.321 151.973 23.0867 152.416 22.618C152.872 22.1493 153.1 21.5097 153.1 20.699ZM161.948 11.94V26H158.699V11.94H161.948ZM165.937 14.296C165.367 14.296 164.898 14.1313 164.531 13.802C164.176 13.46 163.999 13.042 163.999 12.548C163.999 12.0413 164.176 11.6233 164.531 11.294C164.898 10.952 165.367 10.781 165.937 10.781C166.494 10.781 166.95 10.952 167.305 11.294C167.672 11.6233 167.856 12.0413 167.856 12.548C167.856 13.042 167.672 13.46 167.305 13.802C166.95 14.1313 166.494 14.296 165.937 14.296ZM167.552 15.398V26H164.303V15.398H167.552ZM179.901 20.528C179.901 20.832 179.882 21.1487 179.844 21.478H172.491C172.541 22.1367 172.75 22.6433 173.118 22.998C173.498 23.34 173.96 23.511 174.505 23.511C175.315 23.511 175.879 23.169 176.196 22.485H179.654C179.476 23.1817 179.153 23.8087 178.685 24.366C178.229 24.9233 177.652 25.3603 176.956 25.677C176.259 25.9937 175.48 26.152 174.619 26.152C173.58 26.152 172.655 25.9303 171.845 25.487C171.034 25.0437 170.401 24.4103 169.945 23.587C169.489 22.7637 169.261 21.801 169.261 20.699C169.261 19.597 169.482 18.6343 169.926 17.811C170.382 16.9877 171.015 16.3543 171.826 15.911C172.636 15.4677 173.567 15.246 174.619 15.246C175.645 15.246 176.557 15.4613 177.355 15.892C178.153 16.3227 178.773 16.937 179.217 17.735C179.673 18.533 179.901 19.464 179.901 20.528ZM176.576 19.673C176.576 19.1157 176.386 18.6723 176.006 18.343C175.626 18.0137 175.151 17.849 174.581 17.849C174.036 17.849 173.574 18.0073 173.194 18.324C172.826 18.6407 172.598 19.0903 172.51 19.673H176.576Z" fill="#112F91"/>
<line x1="84.5" y1="2" x2="84.5" y2="67" stroke="#141313"/>
<path d="M58.8973 10.1069C54.0726 5.28145 47.9253 1.99508 41.2328 0.663383C34.5403 -0.668317 27.6032 0.0145346 21.2988 2.62557C14.9944 5.2366 9.60591 9.65864 5.81473 15.3322C2.02355 21.0058 0 27.6763 0 34.5C0 41.3237 2.02355 47.9942 5.81473 53.6678C9.60591 59.3414 14.9944 63.7634 21.2988 66.3744C27.6032 68.9855 34.5403 69.6683 41.2328 68.3366C47.9253 67.0049 54.0726 63.7185 58.8973 58.8931C65.366 52.4232 69 43.6489 69 34.5C69 25.3511 65.366 16.5768 58.8973 10.1069ZM8.99772 22.8248C10.7362 18.969 13.3121 15.5489 16.5383 12.8135C19.7644 10.0782 23.5597 8.09616 27.6479 7.01175C31.7363 5.92734 36.0149 5.76778 40.1727 6.54465C44.3304 7.32151 48.2627 9.01522 51.6837 11.5027C43.2154 10.7029 32.6146 15.031 24.021 23.609C20.7776 26.847 18.0298 30.546 15.8664 34.5862C12.9239 31.0855 10.601 27.1078 8.99772 22.8248ZM28.0198 62.8448C21.4717 61.0904 15.7637 57.0588 11.9209 51.4741C8.07805 45.8896 6.35219 39.1178 7.05328 32.375C10.6129 40.1062 19.5987 47.1317 31.3914 50.2681C35.7939 51.4623 40.3502 51.9909 44.9091 51.8362C43.3597 56.1221 41.0957 60.1148 38.2129 63.6446C34.793 63.9906 31.3386 63.7089 28.0198 62.8135V62.8448ZM49.4883 30.0542C48.3258 25.6319 46.5187 21.4048 44.125 17.5087C48.6088 16.7106 53.1954 16.6788 57.6898 17.4146C59.7015 20.1996 61.1845 23.3305 62.065 26.6512C63.8224 33.2003 63.1867 40.1615 60.2721 46.2838C57.3575 52.4062 52.3551 57.2885 46.1637 60.0535C51.0564 53.1379 52.6246 41.7998 49.4883 30.0542Z" fill="black"/>
</svg>
