<svg width="36" height="36" viewBox="0 0 36 36" fill="none" xmlns="http://www.w3.org/2000/svg">
<path d="M8.99998 30.3751C8.70161 30.3751 8.41546 30.2565 8.20449 30.0456C7.99351 29.8346 7.87498 29.5484 7.87498 29.2501V23.2454C7.25779 23.5398 6.57377 23.6659 5.89217 23.611C5.31503 23.5686 4.75434 23.3995 4.24999 23.1158C3.74565 22.832 3.31004 22.4406 2.97419 21.9693C2.63833 21.4981 2.41048 20.9586 2.30685 20.3892C2.20321 19.8199 2.22635 19.2347 2.37461 18.6753C2.52286 18.116 2.79259 17.5961 3.1646 17.1529C3.53662 16.7096 4.00176 16.3538 4.52694 16.1107C5.05211 15.8677 5.6244 15.7434 6.20308 15.7467C6.78176 15.7499 7.3526 15.8808 7.87498 16.1298V10.1251C7.87498 9.8267 7.99351 9.54056 8.20449 9.32958C8.41546 9.1186 8.70161 9.00007 8.99998 9.00007H15.5672C15.2728 8.38288 15.1466 7.69887 15.2015 7.01726C15.2439 6.44013 15.413 5.87943 15.6968 5.37509C15.9805 4.87074 16.372 4.43514 16.8432 4.09928C17.3145 3.76342 17.854 3.53557 18.4233 3.43194C18.9927 3.32831 19.5778 3.35144 20.1372 3.4997C20.6966 3.64795 21.2164 3.91768 21.6597 4.2897C22.103 4.66171 22.4588 5.12685 22.7018 5.65203C22.9449 6.1772 23.0692 6.74949 23.0659 7.32817C23.0626 7.90685 22.9318 8.4777 22.6828 9.00007H29.25C29.5484 9.00007 29.8345 9.1186 30.0455 9.32958C30.2565 9.54056 30.375 9.8267 30.375 10.1251V16.1298C29.7578 15.8353 29.0738 15.7092 28.3922 15.7641C27.815 15.8065 27.2543 15.9756 26.75 16.2594C26.2456 16.5431 25.81 16.9346 25.4742 17.4058C25.1383 17.8771 24.9105 18.4166 24.8068 18.9859C24.7032 19.5552 24.7263 20.1404 24.8746 20.6998C25.0229 21.2592 25.2926 21.779 25.6646 22.2223C26.0366 22.6655 26.5018 23.0214 27.0269 23.2644C27.5521 23.5075 28.1244 23.6318 28.7031 23.6285C29.2818 23.6252 29.8526 23.4944 30.375 23.2454V29.2501C30.375 29.5484 30.2565 29.8346 30.0455 30.0456C29.8345 30.2565 29.5484 30.3751 29.25 30.3751H8.99998Z" stroke="black" stroke-width="1.3" stroke-linecap="round" stroke-linejoin="round"/>
</svg>
