<svg width="460" height="446" viewBox="0 0 460 446" fill="none" xmlns="http://www.w3.org/2000/svg">
<g clip-path="url(#clip0_18_291)">
<path d="M40.3409 426.032C40.8326 426.055 41.3193 425.926 41.7351 425.663C42.1509 425.399 42.4757 425.015 42.6656 424.561C42.8555 424.107 42.9012 423.605 42.7965 423.124C42.6919 422.643 42.4419 422.206 42.0805 421.872L41.916 421.218C41.9377 421.166 41.9595 421.114 41.9814 421.061C42.4767 419.891 43.3066 418.894 44.3669 418.194C45.4272 417.495 46.6707 417.124 47.9411 417.129C49.2115 417.133 50.4522 417.513 51.5073 418.221C52.5624 418.928 53.3848 419.932 53.8714 421.105C55.8161 425.789 58.292 430.481 58.9016 435.433C59.1701 437.622 59.0568 439.841 58.5669 441.991C63.1344 432.028 65.5062 421.199 65.5214 410.238C65.5224 407.488 65.3696 404.74 65.0637 402.006C64.8109 399.765 64.4602 397.541 64.0116 395.332C61.5635 383.347 56.3074 372.113 48.6748 362.554C44.9807 360.538 41.9932 357.439 40.1149 353.673C39.4344 352.319 38.9535 350.874 38.687 349.383C39.1037 349.437 40.2584 343.091 39.9441 342.701C40.5248 341.82 41.5642 341.382 42.1985 340.522C45.3529 336.246 49.6988 336.992 51.9676 342.804C56.8143 345.25 56.8611 349.307 53.8873 353.208C51.9953 355.691 51.7353 359.049 50.0752 361.707C50.2461 361.925 50.4237 362.137 50.5945 362.356C53.7165 366.37 56.4376 370.681 58.7187 375.227C58.164 370.135 58.8261 364.983 60.6505 360.197C62.4996 355.736 65.9654 351.98 69.0174 348.123C72.6834 343.491 80.2008 345.513 80.8467 351.385C80.853 351.441 80.8591 351.498 80.865 351.555C80.4117 351.811 79.968 352.082 79.5338 352.369C78.9883 352.734 78.5657 353.255 78.3212 353.863C78.0767 354.472 78.0218 355.14 78.1637 355.781C78.3056 356.421 78.6377 357.004 79.1164 357.453C79.5951 357.901 80.1981 358.195 80.8464 358.294L80.9128 358.305C80.7513 359.939 80.4659 361.558 80.0589 363.148C83.9743 378.29 75.5213 383.805 63.4515 384.053C63.185 384.19 62.9254 384.326 62.6589 384.456C64.9508 390.951 66.3883 397.716 66.9355 404.582C67.2452 408.632 67.227 412.701 66.8808 416.749L66.9013 416.605C67.7758 412.104 70.1768 408.043 73.6988 405.108C78.9298 400.811 86.3201 399.228 91.9634 395.774C92.5631 395.389 93.2606 395.184 93.9733 395.182C94.686 395.18 95.3843 395.382 95.986 395.765C96.5876 396.147 97.0674 396.693 97.3687 397.339C97.6701 397.985 97.7805 398.703 97.6869 399.41C97.6793 399.46 97.6716 399.51 97.6638 399.561C96.8225 399.903 96.0035 400.298 95.2113 400.742C94.758 400.998 94.3142 401.27 93.88 401.557C93.3346 401.921 92.9119 402.442 92.6675 403.051C92.423 403.659 92.3681 404.328 92.51 404.968C92.6519 405.609 92.984 406.191 93.4626 406.64C93.9413 407.088 94.5444 407.382 95.1927 407.482L95.2591 407.492C95.3069 407.499 95.348 407.506 95.3957 407.512C93.9583 410.945 91.9409 414.103 89.4318 416.851C86.9836 430.069 76.4686 431.323 65.2208 427.474H65.214C63.9799 432.837 62.1918 438.057 59.8785 443.05H40.8186C40.7502 442.838 40.6887 442.62 40.6272 442.408C42.3914 442.519 44.1626 442.413 45.9012 442.094C44.4871 440.359 43.0729 438.61 41.6588 436.874C41.6272 436.842 41.5976 436.808 41.57 436.772C40.8526 435.884 40.1285 435.003 39.4112 434.115L39.4108 434.113C39.3726 431.391 39.685 428.675 40.3403 426.033L40.3409 426.032Z" fill="#F2F2F2"/>
<path d="M72.0999 256.545C67.0486 238.203 57.6258 222.582 42.4121 210.565C41.8101 209.635 40.8639 208.982 39.781 208.749C38.698 208.515 37.5668 208.721 36.6355 209.321L1.91056 231.742C0.980617 232.344 0.327405 233.29 0.0942412 234.373C-0.138923 235.456 0.0670281 236.587 0.666858 237.519L30.3547 283.498C30.9567 284.428 31.9029 285.081 32.9858 285.315C34.0688 285.548 35.2 285.342 36.1313 284.742L70.8562 262.321C71.7861 261.719 72.4393 260.773 72.6725 259.69C72.9057 258.607 72.6998 257.476 72.0999 256.545V256.545Z" fill="#F2F2F2"/>
<path d="M60.4694 244.377C59.1677 234.686 51.1509 224.779 41.3833 214.817C40.8196 213.946 39.9334 213.334 38.9192 213.116C37.905 212.897 36.8456 213.09 35.9734 213.652L6.13029 232.921C5.25933 233.484 4.64754 234.371 4.42915 235.385C4.21075 236.399 4.40354 237.459 4.96528 238.331L31.3835 279.247C31.9472 280.117 32.8334 280.729 33.8477 280.947C34.8619 281.166 35.9214 280.973 36.7936 280.411L55.2808 268.475C59.1602 265.963 61.8852 262.016 62.8579 257.498C63.8307 252.981 62.9717 248.262 60.4694 244.377V244.377Z" fill="white"/>
<path d="M57.8064 283.889C62.2128 265.382 61.478 247.154 53.9327 229.295C53.853 228.19 53.3384 227.162 52.5016 226.436C51.6648 225.71 50.5742 225.346 49.4692 225.423L8.23859 228.349C7.13371 228.428 6.10553 228.943 5.37963 229.78C4.65374 230.616 4.28943 231.707 4.36658 232.812L8.24037 287.406C8.32002 288.511 8.83469 289.539 9.67146 290.265C10.5082 290.991 11.5988 291.355 12.7039 291.278L53.9344 288.352C55.0393 288.273 56.0675 287.758 56.7934 286.921C57.5193 286.085 57.8836 284.994 57.8064 283.889V283.889Z" fill="#F2F2F2"/>
<path d="M53.4737 267.624C57.0001 258.504 54.7454 245.961 50.9833 232.526C50.9087 231.491 50.4267 230.528 49.643 229.848C48.8594 229.168 47.838 228.827 46.8031 228.9L11.3689 231.414C10.3341 231.488 9.37118 231.97 8.69132 232.754C8.01146 233.538 7.67022 234.559 7.74246 235.594L11.1896 284.175C11.2642 285.21 11.7463 286.173 12.53 286.853C13.3137 287.533 14.335 287.874 15.37 287.801L37.3207 286.244C41.9299 285.912 46.2192 283.765 49.2474 280.274C52.2757 276.783 53.7956 272.234 53.4737 267.624Z" fill="white"/>
<path d="M54.2512 169.64L71.9147 104.262C72.6712 101.495 74.4856 99.1355 76.9663 97.6938C79.4469 96.2521 82.395 95.8436 85.1742 96.5563C86.612 96.925 87.9596 97.5827 89.1349 98.4892C90.3102 99.3957 91.2885 100.532 92.0103 101.829C92.7321 103.126 93.1822 104.556 93.3331 106.033C93.4841 107.51 93.3327 109.001 92.8883 110.418L72.4582 177.767L61.7693 219.214C63.3261 220.403 64.4792 222.042 65.072 223.909C65.6647 225.776 65.6684 227.78 65.0825 229.649C64.4967 231.518 63.3496 233.161 61.7972 234.355C60.2449 235.55 58.3624 236.237 56.4056 236.325C54.4489 236.412 52.5127 235.895 50.8601 234.844C49.2075 233.792 47.9186 232.257 47.1686 230.448C46.4186 228.639 46.2437 226.642 46.6679 224.73C47.092 222.818 48.0945 221.082 49.5393 219.76L54.2512 169.64Z" fill="#FFB6B6"/>
<path d="M181.638 180.95L163.524 115.696C162.765 112.929 163.124 109.975 164.524 107.47C165.924 104.966 168.252 103.112 171.007 102.309C172.432 101.894 173.926 101.773 175.4 101.954C176.873 102.135 178.294 102.614 179.576 103.363C180.858 104.111 181.974 105.112 182.856 106.306C183.738 107.5 184.368 108.86 184.707 110.305L201.445 178.666L213.367 219.775C215.312 220.005 217.14 220.828 218.601 222.132C220.062 223.436 221.087 225.159 221.535 227.065C221.983 228.972 221.833 230.971 221.106 232.789C220.379 234.608 219.11 236.159 217.471 237.231C215.831 238.303 213.902 238.845 211.944 238.782C209.986 238.72 208.095 238.056 206.528 236.881C204.961 235.706 203.793 234.078 203.184 232.216C202.574 230.355 202.553 228.351 203.122 226.476L181.638 180.95Z" fill="#FFB6B6"/>
<path d="M77.9795 431.612L89.5226 431.611L95.0133 387.089L77.9778 387.09L77.9795 431.612Z" fill="#FFB6B6"/>
<path d="M77.5734 443.653L113.069 443.652V443.203C113.068 439.539 111.613 436.025 109.022 433.434C106.431 430.843 102.917 429.388 99.2528 429.388H99.252L92.7684 424.469L80.6714 429.388L77.5728 429.388L77.5734 443.653Z" fill="#2F2E41"/>
<path d="M159.208 431.728L170.572 429.701L168.162 384.906L151.391 387.897L159.208 431.728Z" fill="#FFB6B6"/>
<path d="M160.922 443.653L195.866 437.421L195.787 436.98C195.143 433.372 193.094 430.169 190.088 428.073C187.083 425.977 183.368 425.161 179.761 425.804L179.76 425.804L172.513 422.099L161.468 429.066L158.417 429.61L160.922 443.653Z" fill="#2F2E41"/>
<path d="M158.083 226.907C158.083 226.907 168.84 242.144 168.402 247.257C167.963 252.37 164.164 248.291 167.963 252.37C171.762 256.449 173.976 253.713 172.109 258.752C170.243 263.792 169.483 260.528 170.243 263.792C171.003 267.055 169.483 391.872 169.483 391.872H149.701C149.701 391.872 138.546 319.498 139.958 316.119C141.37 312.74 141.338 314.211 139.834 310.62C138.331 307.029 136.916 302.757 136.916 302.757L121.28 258.752L109.219 320.711L95.0214 394.335H76.0646C76.0646 394.335 72.8186 286.069 71.3833 284.72C69.9481 283.371 71.6651 280.339 73.4659 278.592C75.2667 276.844 74.9078 275.07 74.3274 271.47C73.7471 267.871 71.2989 265.863 71.3833 263.603C71.4677 261.344 66.149 225.449 74.5069 219.738C82.8649 214.028 158.083 226.907 158.083 226.907Z" fill="#2F2E41"/>
<path d="M91.9402 75.1351L114.068 69.4012L124.397 55.1552L148.927 58.1707L154.148 77.6024L171.612 87.7392C140.307 87.9263 157.165 178.618 152.564 184.47C148.82 189.231 171.253 200.559 164.222 207.786C157.192 215.012 159.791 212.12 161.422 219.987C163.054 227.855 174.946 236.18 161.422 236.098C147.899 236.015 66.2926 234.849 68.6242 225.523C70.9557 216.197 70.9191 218.565 74.4348 212.718C77.9506 206.87 80.3167 210.138 79.1336 201.509C77.9506 192.881 81.7932 186.207 79.1163 182.388C75.0076 176.528 79.1482 134.221 83.0225 135.35L91.9402 75.1351Z" fill="#112F91"/>
<path d="M98.2579 75.4375C98.2579 75.4375 82.0718 68.5611 76.2428 81.3848C74.3811 85.4807 72.8135 95.7685 71.303 93.4871C69.7925 91.2058 71.2499 96.2071 70.3149 96.2133C69.4803 96.2188 68.1972 94.8689 69.167 99.5194C69.4708 101.045 69.3833 102.623 68.9128 104.105C68.4422 105.588 67.6038 106.927 66.4759 107.998L94.608 124.847L98.2579 75.4375Z" fill="#112F91"/>
<path d="M159.073 87.0955C159.073 87.0955 175.259 80.2191 181.088 93.0429C182.727 96.6495 182.319 104.663 185.512 103.763C188.704 102.864 186.438 106.254 186.859 107.431C187.328 108.744 185.279 112.458 188.157 111.158C191.036 109.859 190.855 119.656 190.855 119.656L162.723 136.505L159.073 87.0955Z" fill="#112F91"/>
<path d="M151.398 67.8898L156.062 76.0504C156.062 76.0504 168.885 83.0451 168.885 84.2109C168.885 85.3767 166.554 94.8959 168.885 102.377C171.217 109.859 164.435 123.928 163.056 135.506C157.227 184.47 174.561 202.26 178.212 233.433L141.218 244.237C141.218 244.237 135.077 162.319 135.077 143.667C135.077 125.014 151.398 67.8898 151.398 67.8898Z" fill="#2F2E41"/>
<path d="M117.59 64.3923L108.06 69.8128C108.06 69.8128 95.589 72.5625 95.44 73.7187C95.2911 74.875 95.2468 87.1637 91.9787 94.2859C88.7106 101.408 89.6111 105.195 80.8096 126.25C76.3125 137.008 65.9885 223.077 65.9885 223.077L101.299 238.518C101.299 238.518 117.853 158.056 120.236 139.556C122.618 121.056 117.59 64.3923 117.59 64.3923Z" fill="#2F2E41"/>
<path d="M141.419 53.2775C128.106 53.2775 117.314 42.4852 117.314 29.1722C117.314 15.8592 128.106 5.06689 141.419 5.06689C154.732 5.06689 165.525 15.8592 165.525 29.1722C165.525 42.4852 154.732 53.2775 141.419 53.2775Z" fill="#FFB6B6"/>
<path d="M125.555 47.9011C131.253 43.4472 123.464 23.8541 132.874 28.0362C132.874 28.0362 144.375 20.7175 146.685 25.5269C149.361 31.0957 158.876 28.5694 164.721 26.6038C164.261 25.536 163.935 24.4159 163.748 23.2686C164.827 24.1186 165.97 24.8841 167.167 25.5583C167.97 25.1294 168.68 24.5467 169.258 23.8436C169.828 23.1906 170.185 22.3789 170.28 21.5173C170.376 20.6557 170.205 19.7855 169.791 19.0237C168.819 17.5286 166.812 17.0686 165.63 15.7408C165.494 15.554 165.405 15.337 165.37 15.1082C165.336 14.8795 165.358 14.6458 165.434 14.4273C165.575 13.8931 165.596 13.3344 165.496 12.791C165.396 12.2476 165.178 11.7329 164.857 11.2836C164.535 10.8343 164.118 10.4614 163.636 10.1915C163.154 9.92158 162.619 9.76131 162.068 9.72209C161.846 9.72886 161.626 9.68096 161.427 9.58261C160.435 8.97555 159.519 8.25253 158.698 7.42883C160.068 7.49156 158.393 -0.892297 144.814 0.695639C141.395 0.570187 139.61 4.34075 136.243 4.9367C128.082 0.273511 120.798 7.0002 117.254 13.4301C113.709 19.8601 109.872 40.5825 125.555 47.9011Z" fill="#2F2E41"/>
<path d="M228.411 13.3202H444.491C448.601 13.3236 452.543 14.9576 455.451 17.8636C458.358 20.7695 459.994 24.7102 460 28.8211V223.527C459.995 227.638 458.359 231.58 455.452 234.487C452.544 237.395 448.602 239.031 444.491 239.036H228.411C224.3 239.03 220.359 237.394 217.453 234.487C214.547 231.579 212.913 227.637 212.91 223.527V28.8211C212.913 24.7111 214.548 20.7706 217.454 17.8644C220.36 14.9583 224.301 13.3239 228.411 13.3202V13.3202Z" fill="white"/>
<path d="M327.141 58.0083H350.225C351.359 58.0083 352.446 57.5579 353.248 56.7562C354.05 55.9545 354.5 54.8672 354.5 53.7334C354.5 52.5996 354.05 51.5123 353.248 50.7106C352.446 49.9089 351.359 49.4585 350.225 49.4585H327.141C326.007 49.4585 324.919 49.9089 324.118 50.7106C323.316 51.5123 322.866 52.5996 322.866 53.7334C322.866 54.8672 323.316 55.9545 324.118 56.7562C324.919 57.5579 326.007 58.0083 327.141 58.0083Z" fill="#112F91"/>
<path d="M21.0563 254.426H44.1409C45.2746 254.426 46.362 253.975 47.1637 253.174C47.9654 252.372 48.4158 251.285 48.4158 250.151C48.4158 249.017 47.9654 247.93 47.1637 247.128C46.362 246.326 45.2746 245.876 44.1409 245.876H21.0563C19.9225 245.876 18.8352 246.326 18.0335 247.128C17.2318 247.93 16.7814 249.017 16.7814 250.151C16.7814 251.285 17.2318 252.372 18.0335 253.174C18.8352 253.975 19.9225 254.426 21.0563 254.426V254.426Z" fill="#112F91"/>
<path d="M267.292 147.553H410.074C411.208 147.553 412.295 147.102 413.097 146.301C413.899 145.499 414.349 144.412 414.349 143.278C414.349 142.144 413.899 141.057 413.097 140.255C412.295 139.453 411.208 139.003 410.074 139.003H267.292C266.158 139.003 265.071 139.453 264.269 140.255C263.467 141.057 263.017 142.144 263.017 143.278C263.017 144.412 263.467 145.499 264.269 146.301C265.071 147.102 266.158 147.553 267.292 147.553Z" fill="#E6E6E6"/>
<path d="M267.292 175.767H410.074C411.208 175.767 412.295 175.317 413.097 174.515C413.899 173.713 414.349 172.626 414.349 171.492C414.349 170.358 413.899 169.271 413.097 168.469C412.295 167.668 411.208 167.217 410.074 167.217H267.292C266.158 167.217 265.071 167.668 264.269 168.469C263.467 169.271 263.017 170.358 263.017 171.492C263.017 172.626 263.467 173.713 264.269 174.515C265.071 175.317 266.158 175.767 267.292 175.767Z" fill="#E6E6E6"/>
<path d="M267.292 203.982H410.074C411.208 203.982 412.295 203.531 413.097 202.73C413.899 201.928 414.349 200.841 414.349 199.707C414.349 198.573 413.899 197.486 413.097 196.684C412.295 195.882 411.208 195.432 410.074 195.432H267.292C266.158 195.432 265.071 195.882 264.269 196.684C263.467 197.486 263.017 198.573 263.017 199.707C263.017 200.841 263.467 201.928 264.269 202.73C265.071 203.531 266.158 203.982 267.292 203.982Z" fill="#E6E6E6"/>
<path d="M296.476 70.835H380.888C384.999 70.8384 388.941 72.4724 391.848 75.3783C394.756 78.2843 396.392 82.225 396.398 86.3358V111.754C396.392 115.866 394.757 119.808 391.849 122.715C388.942 125.623 385 127.259 380.888 127.264H296.476C292.365 127.258 288.424 125.622 285.518 122.715C282.612 119.807 280.978 115.865 280.975 111.754V86.3358C280.979 82.2259 282.613 78.2854 285.519 75.3792C288.425 72.473 292.366 70.8387 296.476 70.835ZM282.685 111.754C282.685 115.414 284.139 118.924 286.727 121.512C289.314 124.1 292.824 125.554 296.484 125.554H357.079C367.054 125.554 376.62 121.592 383.673 114.539C390.725 107.486 394.688 97.9199 394.688 87.9456V86.3358C394.682 82.6786 393.226 79.1729 390.639 76.5876C388.052 74.0023 384.546 72.5485 380.888 72.5449H296.476C292.819 72.5488 289.314 74.003 286.728 76.5885C284.143 79.1739 282.689 82.6794 282.685 86.3358V111.754Z" fill="#E6E6E6"/>
<path d="M228.411 13.3202H444.491C448.601 13.3236 452.543 14.9576 455.451 17.8636C458.358 20.7695 459.994 24.7102 460 28.8211V223.527C459.995 227.638 458.359 231.58 455.452 234.487C452.544 237.395 448.602 239.031 444.491 239.036H228.411C224.3 239.03 220.359 237.394 217.453 234.487C214.547 231.579 212.913 227.637 212.91 223.527V28.8211C212.913 24.7111 214.548 20.7706 217.454 17.8644C220.36 14.9583 224.301 13.3239 228.411 13.3202V13.3202ZM214.62 223.527C214.62 227.186 216.074 230.696 218.661 233.284C221.249 235.872 224.759 237.326 228.419 237.326H346.97C361.589 237.326 376.065 234.447 389.571 228.852C403.077 223.258 415.348 215.058 425.685 204.721C436.022 194.384 444.222 182.113 449.816 168.607C455.411 155.101 458.29 140.625 458.29 126.006V28.8211C458.284 25.1638 456.828 21.6581 454.241 19.0728C451.654 16.4875 448.148 15.0337 444.491 15.0302H228.411C224.754 15.034 221.249 16.4883 218.663 19.0737C216.078 21.6592 214.624 25.1647 214.62 28.8211V223.527Z" fill="#E6E6E6"/>
<path d="M2.66305 445.038L272.289 445.301C272.558 445.299 272.815 445.191 273.005 445.001C273.195 444.81 273.302 444.552 273.302 444.283C273.302 444.014 273.195 443.755 273.005 443.565C272.815 443.374 272.558 443.266 272.289 443.265L2.66305 443.002C2.39394 443.003 2.13632 443.111 1.94651 443.302C1.7567 443.493 1.65015 443.751 1.65015 444.02C1.65015 444.289 1.7567 444.547 1.94651 444.738C2.13632 444.929 2.39394 445.037 2.66305 445.038V445.038Z" fill="#CACACA"/>
<path d="M314.71 96.216C314.602 96.852 314.344 97.452 313.936 98.016C313.54 98.58 312.982 99.042 312.262 99.402C311.542 99.75 310.666 99.924 309.634 99.924H307.366L306.466 105H304.414L306.628 92.49H310.948C312.208 92.49 313.162 92.772 313.81 93.336C314.458 93.888 314.782 94.614 314.782 95.514C314.782 95.67 314.758 95.904 314.71 96.216ZM309.922 98.322C310.702 98.322 311.314 98.136 311.758 97.764C312.214 97.392 312.496 96.876 312.604 96.216C312.64 96.036 312.658 95.862 312.658 95.694C312.658 95.19 312.49 94.8 312.154 94.524C311.83 94.236 311.332 94.092 310.66 94.092H308.392L307.654 98.322H309.922ZM318.611 96.828C319.019 96.228 319.499 95.76 320.051 95.424C320.615 95.088 321.239 94.92 321.923 94.92L321.545 97.044H321.023C320.231 97.044 319.595 97.242 319.115 97.638C318.635 98.034 318.299 98.718 318.107 99.69L317.171 105H315.119L316.865 95.082H318.917L318.611 96.828ZM326.365 105.162C325.525 105.162 324.787 104.988 324.151 104.64C323.515 104.292 323.017 103.8 322.657 103.164C322.309 102.528 322.135 101.802 322.135 100.986C322.135 99.87 322.393 98.85 322.909 97.926C323.437 97.002 324.157 96.27 325.069 95.73C325.993 95.19 327.019 94.92 328.147 94.92C328.987 94.92 329.731 95.1 330.379 95.46C331.027 95.808 331.531 96.3 331.891 96.936C332.263 97.56 332.449 98.286 332.449 99.114C332.449 100.23 332.179 101.25 331.639 102.174C331.099 103.098 330.367 103.83 329.443 104.37C328.519 104.898 327.493 105.162 326.365 105.162ZM326.617 103.434C327.301 103.434 327.925 103.242 328.489 102.858C329.065 102.462 329.515 101.946 329.839 101.31C330.163 100.662 330.325 99.972 330.325 99.24C330.325 98.412 330.091 97.776 329.623 97.332C329.155 96.876 328.567 96.648 327.859 96.648C327.163 96.648 326.539 96.846 325.987 97.242C325.447 97.626 325.021 98.148 324.709 98.808C324.409 99.456 324.259 100.152 324.259 100.896C324.259 101.7 324.475 102.324 324.907 102.768C325.351 103.212 325.921 103.434 326.617 103.434ZM333.704 99.996C333.884 99 334.244 98.118 334.784 97.35C335.336 96.582 336.008 95.988 336.8 95.568C337.592 95.136 338.426 94.92 339.302 94.92C339.95 94.92 340.562 95.064 341.138 95.352C341.714 95.628 342.152 96 342.452 96.468L343.298 91.68H345.368L343.01 105H340.94L341.21 103.506C340.778 103.998 340.238 104.4 339.59 104.712C338.954 105.012 338.252 105.162 337.484 105.162C336.728 105.162 336.056 104.994 335.468 104.658C334.88 104.322 334.418 103.848 334.082 103.236C333.758 102.612 333.596 101.898 333.596 101.094C333.596 100.734 333.632 100.368 333.704 99.996ZM341.822 100.032C341.87 99.804 341.894 99.558 341.894 99.294C341.894 98.49 341.654 97.86 341.174 97.404C340.706 96.936 340.118 96.702 339.41 96.702C338.882 96.702 338.366 96.834 337.862 97.098C337.358 97.35 336.92 97.728 336.548 98.232C336.176 98.724 335.93 99.312 335.81 99.996C335.762 100.224 335.738 100.47 335.738 100.734C335.738 101.55 335.972 102.198 336.44 102.678C336.92 103.146 337.514 103.38 338.222 103.38C338.75 103.38 339.266 103.248 339.77 102.984C340.274 102.72 340.712 102.336 341.084 101.832C341.456 101.316 341.702 100.716 341.822 100.032ZM356.433 95.082L354.687 105H352.635L352.833 103.83C352.437 104.238 351.957 104.562 351.393 104.802C350.841 105.03 350.271 105.144 349.683 105.144C348.639 105.144 347.805 104.862 347.181 104.298C346.557 103.734 346.245 102.936 346.245 101.904C346.245 101.628 346.275 101.298 346.335 100.914L347.361 95.082H349.395L348.423 100.608C348.375 100.944 348.351 101.184 348.351 101.328C348.351 101.988 348.531 102.492 348.891 102.84C349.263 103.188 349.773 103.362 350.421 103.362C351.177 103.362 351.819 103.14 352.347 102.696C352.875 102.24 353.223 101.586 353.391 100.734L354.381 95.082H356.433ZM357.592 100.032C357.772 99.012 358.132 98.118 358.672 97.35C359.224 96.57 359.902 95.97 360.706 95.55C361.522 95.13 362.404 94.92 363.352 94.92C364.552 94.92 365.494 95.208 366.178 95.784C366.862 96.348 367.252 97.158 367.348 98.214H365.134C365.038 97.722 364.816 97.338 364.468 97.062C364.12 96.786 363.646 96.648 363.046 96.648C362.206 96.648 361.486 96.948 360.886 97.548C360.286 98.136 359.89 98.964 359.698 100.032C359.638 100.416 359.608 100.728 359.608 100.968C359.608 101.76 359.806 102.372 360.202 102.804C360.598 103.224 361.15 103.434 361.858 103.434C363.046 103.434 363.922 102.912 364.486 101.868H366.7C366.232 102.876 365.548 103.68 364.648 104.28C363.76 104.868 362.728 105.162 361.552 105.162C360.304 105.162 359.314 104.808 358.582 104.1C357.85 103.38 357.484 102.408 357.484 101.184C357.484 100.812 357.52 100.428 357.592 100.032ZM371.067 102.246C371.043 102.414 371.031 102.522 371.031 102.57C371.031 102.822 371.109 103.008 371.265 103.128C371.421 103.236 371.679 103.29 372.039 103.29H373.299L372.993 105H371.373C370.581 105 369.975 104.844 369.555 104.532C369.135 104.208 368.925 103.698 368.925 103.002C368.925 102.738 368.949 102.486 368.997 102.246L369.969 96.756H368.799L369.087 95.082H370.275L370.707 92.616H372.777L372.345 95.082H374.739L374.451 96.756H372.039L371.067 102.246Z" fill="#112F91"/>
</g>
<defs>
<clipPath id="clip0_18_291">
<rect width="460" height="444.805" fill="white" transform="matrix(-1 0 0 1 460 0.495483)"/>
</clipPath>
</defs>
</svg>
