<svg width="459" height="371" viewBox="0 0 459 371" fill="none" xmlns="http://www.w3.org/2000/svg">
<g clip-path="url(#clip0_26_2)">
<path d="M79.7671 251.88H78.3072C78.1137 251.88 77.9281 251.803 77.7913 251.666C77.6544 251.529 77.5775 251.343 77.5773 251.15V249.69C77.5775 249.496 77.6544 249.311 77.7913 249.174C77.9281 249.037 78.1137 248.96 78.3072 248.96H79.7671C79.9607 248.96 80.1462 249.037 80.2831 249.174C80.4199 249.311 80.4969 249.496 80.4971 249.69V251.15C80.4969 251.343 80.4199 251.529 80.2831 251.666C80.1462 251.803 79.9607 251.88 79.7671 251.88V251.88Z" fill="#CCCCCC"/>
<path d="M79.0646 250.271C79.0368 250.271 79.009 250.269 78.9816 250.264C78.9186 250.253 78.8584 250.23 78.8043 250.196C78.7503 250.162 78.7035 250.118 78.6666 250.065C78.6297 250.013 78.6035 249.954 78.5894 249.892C78.5753 249.83 78.5736 249.765 78.5844 249.702L83.3971 221.698C83.4197 221.571 83.4914 221.459 83.5966 221.385C83.7018 221.311 83.8319 221.282 83.9586 221.304C84.0852 221.326 84.1981 221.397 84.2726 221.501C84.3471 221.606 84.3772 221.736 84.3563 221.863L79.5436 249.867C79.5242 249.98 79.4654 250.082 79.3778 250.156C79.2902 250.23 79.1793 250.271 79.0646 250.271Z" fill="#CCCCCC"/>
<path d="M79.0634 250.271C78.9488 250.271 78.8379 250.23 78.7502 250.156C78.6626 250.082 78.6039 249.98 78.5844 249.867L73.7719 221.863C73.7509 221.736 73.781 221.606 73.8555 221.501C73.93 221.397 74.0429 221.326 74.1696 221.304C74.2962 221.282 74.4263 221.311 74.5315 221.385C74.6367 221.459 74.7085 221.571 74.7311 221.698L79.5436 249.702C79.5545 249.765 79.5528 249.83 79.5387 249.892C79.5246 249.954 79.4983 250.013 79.4614 250.065C79.4246 250.117 79.3778 250.162 79.3237 250.196C79.2697 250.23 79.2094 250.253 79.1464 250.264C79.119 250.269 79.0913 250.271 79.0634 250.271V250.271Z" fill="#CCCCCC"/>
<path d="M89.4247 216.904C89.8938 213.581 88.119 210.583 85.4602 210.207C82.8014 209.832 80.2659 212.222 79.7968 215.545C79.4011 218.348 80.6048 220.913 82.5856 221.875L82.4729 222.674L84.8798 223.014L84.9926 222.215C87.1623 221.839 89.029 219.707 89.4247 216.904Z" fill="#FF6584"/>
<path d="M78.2482 215.392C77.6723 212.085 75.0611 209.779 72.4158 210.239C69.7704 210.7 68.0931 213.754 68.669 217.06C69.1548 219.849 71.0892 221.92 73.2698 222.225L73.4083 223.02L75.8031 222.603L75.6646 221.808C77.6135 220.783 78.7339 218.181 78.2482 215.392Z" fill="#CCCCCC"/>
<path d="M79.0372 249.69C78.9081 249.69 78.7843 249.639 78.6931 249.547C78.6018 249.456 78.5505 249.332 78.5505 249.203V220.415C78.55 220.351 78.5621 220.287 78.5863 220.227C78.6105 220.168 78.6463 220.114 78.6915 220.068C78.7368 220.023 78.7906 219.986 78.8499 219.962C78.9092 219.937 78.9729 219.924 79.0371 219.924C79.1014 219.924 79.1651 219.937 79.2244 219.962C79.2837 219.986 79.3375 220.023 79.3828 220.068C79.428 220.114 79.4638 220.168 79.488 220.227C79.5122 220.287 79.5244 220.351 79.5238 220.415V249.203C79.5238 249.332 79.4725 249.456 79.3812 249.547C79.29 249.639 79.1662 249.69 79.0372 249.69Z" fill="#CCCCCC"/>
<path d="M83.5973 214.885C83.5973 211.529 81.4208 208.808 78.7356 208.808C76.0505 208.808 73.874 211.529 73.874 214.885C73.874 217.716 75.4244 220.087 77.5202 220.763V221.57H79.9511V220.763C82.0469 220.087 83.5973 217.716 83.5973 214.885Z" fill="#112F91"/>
<path d="M305.649 370.793L305.552 370.784L153.351 356.645L14.9494 369.502C13.0539 369.678 11.1425 369.457 9.33739 368.852C7.53231 368.248 5.87323 367.273 4.46625 365.991C3.05926 364.708 1.93533 363.146 1.16628 361.405C0.397226 359.664 -1.53694e-05 357.781 -4.60248e-05 355.877V26.7171C-0.014017 23.3031 1.25444 20.0082 3.5542 17.485C5.85395 14.9617 9.01733 13.394 12.418 13.0922L153.351 0L153.448 0.00924628L305.649 14.1479L444.05 1.29107C445.946 1.11499 447.857 1.33635 449.662 1.941C451.468 2.54565 453.127 3.52029 454.534 4.80262C455.941 6.08494 457.065 7.64673 457.834 9.38815C458.603 11.1296 459 13.0123 459 14.916V344.076C459.014 347.49 457.746 350.785 455.446 353.308C453.146 355.831 449.983 357.399 446.582 357.701L305.649 370.793ZM153.351 354.531L153.448 354.54L305.649 368.679L446.387 355.605C449.265 355.35 451.941 354.023 453.887 351.888C455.833 349.753 456.907 346.965 456.895 344.076V14.916C456.895 13.3052 456.559 11.7121 455.908 10.2385C455.257 8.76502 454.306 7.44349 453.116 6.35843C451.925 5.27337 450.521 4.44865 448.994 3.937C447.466 3.42535 445.849 3.23803 444.245 3.38701L305.649 16.2623L305.552 16.253L153.351 2.11445L12.6127 15.1881L12.5153 14.1402L12.6127 15.1881C9.73522 15.4436 7.05854 16.7702 5.1126 18.9053C3.16667 21.0404 2.09335 23.8283 2.10513 26.7171V355.877C2.10515 357.488 2.44127 359.081 3.092 360.555C3.74273 362.028 4.69375 363.35 5.88427 364.435C7.07479 365.52 8.47862 366.345 10.006 366.856C11.5334 367.368 13.1507 367.555 14.7546 367.406L153.351 354.531Z" fill="#E6E6E6"/>
<path d="M438.541 84.2432C438.541 74.8831 430.948 52.672 421.581 52.672C412.215 52.672 404.622 74.8831 404.622 84.2432C404.625 88.7394 406.413 93.0504 409.593 96.2287C412.773 99.407 417.085 101.192 421.581 101.192C426.078 101.192 430.39 99.407 433.57 96.2287C436.75 93.0504 438.538 88.7394 438.541 84.2432V84.2432Z" fill="#3F3D56"/>
<path d="M421.581 121.798C421.53 121.798 421.481 121.778 421.444 121.742C421.408 121.705 421.387 121.656 421.387 121.604V82.0139C421.388 81.9626 421.408 81.9136 421.445 81.8775C421.481 81.8413 421.53 81.821 421.581 81.821C421.633 81.821 421.682 81.8413 421.718 81.8775C421.755 81.9136 421.775 81.9626 421.775 82.0139V121.604C421.775 121.63 421.77 121.655 421.761 121.679C421.751 121.702 421.737 121.723 421.719 121.742C421.701 121.76 421.679 121.774 421.656 121.784C421.632 121.793 421.607 121.798 421.581 121.798V121.798Z" fill="#CCCCCC"/>
<path d="M421.582 89.4108C421.554 89.4108 421.526 89.4049 421.501 89.3933C421.476 89.3818 421.453 89.3649 421.435 89.3439L411.681 78.0955C411.648 78.0566 411.631 78.0061 411.635 77.9548C411.638 77.9036 411.662 77.856 411.701 77.8223C411.74 77.7887 411.79 77.7718 411.841 77.7754C411.893 77.7789 411.94 77.8027 411.974 77.8414L421.728 89.0898C421.752 89.1179 421.768 89.1523 421.773 89.1891C421.779 89.2259 421.773 89.2635 421.758 89.2973C421.742 89.3311 421.718 89.3598 421.686 89.3799C421.655 89.4 421.619 89.4108 421.582 89.4108V89.4108Z" fill="#CCCCCC"/>
<path d="M421.581 95.9024C421.543 95.9024 421.506 95.891 421.474 95.8697C421.442 95.8484 421.417 95.8181 421.402 95.7827C421.388 95.7472 421.384 95.7082 421.391 95.6706C421.399 95.633 421.417 95.5984 421.444 95.5713L426.987 90.0289C427.005 90.0109 427.026 89.9967 427.049 89.9869C427.073 89.9772 427.098 89.9722 427.124 89.9722C427.149 89.9722 427.174 89.9772 427.198 89.9869C427.221 89.9967 427.243 90.011 427.261 90.029C427.279 90.047 427.293 90.0683 427.303 90.0919C427.313 90.1154 427.318 90.1406 427.318 90.1661C427.318 90.1916 427.313 90.2168 427.303 90.2403C427.293 90.2638 427.279 90.2852 427.261 90.3032L421.719 95.8456C421.701 95.8636 421.679 95.8779 421.656 95.8877C421.632 95.8974 421.607 95.9024 421.581 95.9024V95.9024Z" fill="#CCCCCC"/>
<path d="M403.213 121.541C403.213 119.664 403.959 117.863 405.286 116.535C406.614 115.207 408.415 114.461 410.293 114.461C412.171 114.461 413.971 115.207 415.299 116.535C416.627 117.863 417.373 119.664 417.373 121.541" fill="#F2F2F2"/>
<path d="M410.293 121.541C410.242 121.541 410.193 121.521 410.157 121.485C410.122 121.449 410.101 121.401 410.101 121.35V117.619C410.101 117.568 410.122 117.519 410.157 117.483C410.193 117.447 410.242 117.427 410.293 117.427C410.344 117.427 410.392 117.447 410.428 117.483C410.464 117.519 410.484 117.568 410.484 117.619V121.35C410.484 121.401 410.464 121.449 410.428 121.485C410.392 121.521 410.344 121.541 410.293 121.541V121.541Z" fill="#CCCCCC"/>
<path d="M410.293 120.259C410.247 120.259 410.203 120.243 410.168 120.213L407.872 118.242C407.853 118.226 407.837 118.206 407.826 118.183C407.814 118.161 407.808 118.137 407.806 118.112C407.804 118.086 407.807 118.061 407.815 118.037C407.822 118.014 407.835 117.991 407.851 117.972C407.868 117.953 407.888 117.938 407.91 117.926C407.932 117.915 407.957 117.908 407.982 117.906C408.007 117.904 408.032 117.907 408.056 117.915C408.08 117.923 408.102 117.935 408.121 117.952L410.417 119.923C410.447 119.948 410.468 119.982 410.478 120.02C410.488 120.058 410.486 120.098 410.472 120.134C410.459 120.171 410.434 120.203 410.402 120.225C410.37 120.247 410.332 120.259 410.293 120.259H410.293Z" fill="#CCCCCC"/>
<path d="M425.027 121.541C425.027 119.664 425.773 117.863 427.101 116.535C428.429 115.207 430.229 114.461 432.107 114.461C433.985 114.461 435.786 115.207 437.114 116.535C438.441 117.863 439.187 119.664 439.187 121.541" fill="#F2F2F2"/>
<path d="M432.107 121.541C432.057 121.541 432.008 121.521 431.972 121.485C431.936 121.449 431.916 121.401 431.916 121.35V117.619C431.916 117.568 431.936 117.519 431.972 117.483C432.008 117.447 432.057 117.427 432.107 117.427C432.158 117.427 432.207 117.447 432.243 117.483C432.279 117.519 432.299 117.568 432.299 117.619V121.35C432.299 121.401 432.279 121.449 432.243 121.485C432.207 121.521 432.158 121.541 432.107 121.541V121.541Z" fill="#CCCCCC"/>
<path d="M432.107 120.259C432.062 120.259 432.017 120.243 431.983 120.213L429.686 118.242C429.648 118.209 429.625 118.162 429.621 118.112C429.617 118.061 429.634 118.011 429.667 117.973C429.7 117.935 429.746 117.911 429.797 117.907C429.847 117.903 429.897 117.919 429.936 117.952L432.232 119.923C432.262 119.948 432.283 119.982 432.293 120.02C432.302 120.058 432.3 120.098 432.287 120.134C432.273 120.171 432.249 120.203 432.217 120.225C432.185 120.247 432.146 120.259 432.107 120.259V120.259Z" fill="#CCCCCC"/>
<path d="M215.469 57.4347C220.12 50.7765 225.757 31.2036 219.094 26.549C212.432 21.8944 195.993 33.9206 191.341 40.5788C189.108 43.7784 188.236 47.7341 188.919 51.5761C189.601 55.4181 191.781 58.8318 194.98 61.0665C198.179 63.3012 202.134 64.174 205.977 63.4929C209.819 62.8119 213.233 60.6327 215.469 57.4347V57.4347Z" fill="#F2F2F2"/>
<path d="M184.742 75.721C184.706 75.6955 184.681 75.6564 184.673 75.6125C184.665 75.5685 184.675 75.5233 184.701 75.4867L204.375 47.3246C204.401 47.288 204.44 47.2631 204.484 47.2553C204.528 47.2475 204.573 47.2575 204.609 47.283C204.646 47.3086 204.671 47.3476 204.679 47.3916C204.686 47.4355 204.676 47.4808 204.651 47.5173L184.977 75.6794C184.951 75.716 184.912 75.741 184.868 75.7488C184.824 75.7566 184.779 75.7466 184.742 75.721V75.721Z" fill="#CCCCCC"/>
<path d="M200.837 52.6826C200.817 52.6688 200.801 52.6509 200.789 52.6301C200.776 52.6094 200.769 52.5862 200.766 52.5622L199.418 39.7137C199.413 39.6693 199.426 39.6249 199.454 39.5902C199.482 39.5555 199.523 39.5334 199.568 39.5288C199.612 39.5241 199.656 39.5373 199.691 39.5653C199.726 39.5934 199.748 39.6342 199.753 39.6786L201.101 52.527C201.104 52.5591 201.098 52.5915 201.084 52.6203C201.069 52.6491 201.047 52.6731 201.019 52.6895C200.991 52.7059 200.959 52.714 200.927 52.7127C200.895 52.7115 200.864 52.701 200.837 52.6826L200.837 52.6826Z" fill="#CCCCCC"/>
<path d="M197.611 57.3003C197.584 57.2813 197.563 57.2545 197.551 57.2235C197.539 57.1925 197.536 57.1586 197.543 57.1262C197.55 57.0937 197.567 57.064 197.591 57.041C197.615 57.0179 197.645 57.0025 197.678 56.9967L204.375 55.8084C204.397 55.8044 204.419 55.8048 204.441 55.8095C204.462 55.8141 204.483 55.8231 204.501 55.8357C204.519 55.8484 204.535 55.8645 204.547 55.8832C204.559 55.9018 204.567 55.9227 204.571 55.9445C204.575 55.9664 204.574 55.9888 204.569 56.0104C204.565 56.0321 204.556 56.0525 204.543 56.0707C204.53 56.0888 204.514 56.1043 204.495 56.1161C204.476 56.128 204.455 56.136 204.434 56.1398L197.737 57.3281C197.715 57.332 197.693 57.3315 197.671 57.3268C197.65 57.322 197.629 57.313 197.611 57.3003Z" fill="#CCCCCC"/>
<path d="M171.804 66.41C172.739 65.0784 174.163 64.172 175.766 63.8896C177.368 63.6071 179.017 63.9718 180.35 64.9036C181.684 65.8353 182.594 67.2581 182.88 68.8597C183.166 70.4613 182.805 72.111 181.876 73.4469" fill="#F2F2F2"/>
<path d="M176.84 69.9284C176.804 69.9032 176.779 69.8647 176.772 69.8213C176.764 69.7779 176.774 69.7333 176.799 69.6972L178.653 67.0429C178.679 67.0071 178.717 66.9828 178.76 66.9752C178.804 66.9677 178.848 66.9776 178.884 67.0027C178.92 67.0278 178.945 67.0661 178.952 67.1093C178.96 67.1525 178.95 67.197 178.926 67.2331L177.071 69.8874C177.046 69.9235 177.008 69.9481 176.964 69.9558C176.921 69.9635 176.876 69.9536 176.84 69.9284V69.9284Z" fill="#CCCCCC"/>
<path d="M177.477 69.0162C177.445 68.9935 177.421 68.9599 177.411 68.9215L176.757 66.3785C176.752 66.3573 176.751 66.3353 176.754 66.3136C176.757 66.292 176.764 66.2711 176.775 66.2523C176.786 66.2334 176.801 66.217 176.818 66.2038C176.836 66.1907 176.856 66.1811 176.877 66.1756C176.898 66.1702 176.92 66.169 176.942 66.1721C176.963 66.1752 176.984 66.1825 177.003 66.1937C177.022 66.2048 177.038 66.2196 177.051 66.2371C177.064 66.2546 177.074 66.2746 177.079 66.2958L177.733 68.8388C177.742 68.8717 177.74 68.9063 177.728 68.9381C177.716 68.9699 177.695 68.9973 177.667 69.0166C177.639 69.0359 177.606 69.0463 177.572 69.0462C177.538 69.0461 177.505 69.0357 177.477 69.0162V69.0162Z" fill="#CCCCCC"/>
<path d="M187.321 77.2505C187.782 76.5871 188.37 76.0212 189.05 75.5852C189.73 75.1491 190.49 74.8515 191.285 74.7095C192.081 74.5674 192.896 74.5836 193.685 74.7572C194.475 74.9308 195.222 75.2583 195.884 75.7211C196.546 76.1838 197.111 76.7726 197.545 77.4538C197.98 78.1351 198.276 78.8953 198.416 79.691C198.556 80.4867 198.538 81.3023 198.363 82.091C198.187 82.8797 197.858 83.6261 197.394 84.2874" fill="#F2F2F2"/>
<path d="M192.357 80.7689C192.321 80.7437 192.297 80.7052 192.289 80.6618C192.281 80.6185 192.291 80.5738 192.316 80.5377L194.171 77.8834C194.196 77.8473 194.235 77.8227 194.278 77.8151C194.321 77.8074 194.366 77.8172 194.402 77.8424C194.438 77.8676 194.463 77.9062 194.47 77.9495C194.478 77.9929 194.468 78.0375 194.443 78.0736L192.589 80.7279C192.564 80.764 192.525 80.7886 192.482 80.7963C192.438 80.804 192.394 80.7942 192.357 80.7689V80.7689Z" fill="#CCCCCC"/>
<path d="M192.995 79.8569C192.962 79.8342 192.939 79.8006 192.929 79.7621L192.275 77.2191C192.264 77.1765 192.271 77.1315 192.293 77.0938C192.316 77.056 192.352 77.0287 192.395 77.0178C192.437 77.0069 192.482 77.0132 192.52 77.0354C192.558 77.0577 192.585 77.094 192.597 77.1364L193.251 79.6794C193.259 79.7123 193.257 79.7469 193.245 79.7787C193.234 79.8105 193.212 79.8379 193.184 79.8573C193.156 79.8766 193.123 79.8869 193.089 79.8868C193.055 79.8868 193.022 79.8763 192.995 79.8569Z" fill="#CCCCCC"/>
<path d="M310.903 202.67C314.645 206.107 318.362 209.568 322.055 213.054C321.108 213.107 320.124 213.149 319.113 213.18C317.687 213.228 316.203 213.249 314.645 213.249C297.556 213.249 288.882 210.444 280.504 207.728C272.546 205.154 265.031 202.723 249.6 202.723C234.163 202.723 226.648 205.154 218.695 207.728C210.311 210.444 201.638 213.249 184.549 213.249C167.455 213.249 158.787 210.444 150.403 207.728C142.63 205.212 135.277 202.833 120.551 202.728C120.204 202.723 119.857 202.723 119.499 202.723V192.197C119.851 192.197 120.204 192.197 120.551 192.202C136.951 192.313 145.435 195.06 153.645 197.712C161.603 200.291 169.118 202.723 184.549 202.723C199.98 202.723 207.496 200.291 215.453 197.712C223.837 195.002 232.506 192.197 249.6 192.197C266.689 192.197 275.357 195.002 283.74 197.712C290.388 199.865 296.73 201.917 307.635 202.533C308.682 202.596 309.766 202.639 310.903 202.67Z" fill="#112F91"/>
<path d="M444.751 202.723V213.249C427.657 213.249 418.988 210.444 410.605 207.728C402.647 205.154 395.132 202.723 379.7 202.723C364.264 202.723 356.749 205.154 348.791 207.728C348.359 207.87 347.923 208.007 347.486 208.149C346.738 208.391 345.981 208.633 345.212 208.87C342.307 206.023 339.391 203.2 336.465 200.402C337.281 200.202 338.07 199.991 338.849 199.775C341.17 199.133 343.344 198.428 345.554 197.712C353.938 195.002 362.606 192.197 379.7 192.197C396.794 192.197 405.463 195.002 413.847 197.712C421.804 200.291 429.32 202.723 444.751 202.723Z" fill="#112F91"/>
<path d="M212.164 121.773C182.702 100.316 151.703 79.9692 120.036 61.3014L118.446 60.3646V123.678H214.78L212.164 121.773ZM120.551 121.573V64.0539C150.677 81.8743 180.176 101.211 208.306 121.573H120.551ZM361.269 251.89C348.528 238.643 335.456 225.697 322.055 213.054C318.36 209.565 314.643 206.103 310.903 202.67C288.077 181.702 264.501 161.761 240.174 142.846L239.889 142.625H118.446V253.674H362.985L361.269 251.89ZM120.551 251.568V144.73H239.168C262.626 162.977 285.448 182.245 307.635 202.533C311.487 206.054 315.313 209.603 319.113 213.18C332.397 225.664 345.37 238.46 358.033 251.568H120.551ZM361.269 251.89C348.528 238.643 335.456 225.697 322.055 213.054C318.36 209.565 314.643 206.103 310.903 202.67C288.077 181.702 264.501 161.761 240.174 142.846L239.889 142.625H118.446V253.674H362.985L361.269 251.89ZM120.551 251.568V144.73H239.168C262.626 162.977 285.448 182.245 307.635 202.533C311.487 206.054 315.313 209.603 319.113 213.18C332.397 225.664 345.37 238.46 358.033 251.568H120.551ZM212.164 121.773C182.702 100.316 151.703 79.9692 120.036 61.3014L118.446 60.3646V123.678H214.78L212.164 121.773ZM120.551 121.573V64.0539C150.677 81.8743 180.176 101.211 208.306 121.573H120.551ZM212.164 121.773C182.702 100.316 151.703 79.9692 120.036 61.3014L118.446 60.3646V123.678H214.78L212.164 121.773ZM120.551 121.573V64.0539C150.677 81.8743 180.176 101.211 208.306 121.573H120.551ZM361.269 251.89C348.528 238.643 335.456 225.697 322.055 213.054C318.36 209.565 314.643 206.103 310.903 202.67C288.077 181.702 264.501 161.761 240.174 142.846L239.889 142.625H118.446V253.674H362.985L361.269 251.89ZM120.551 251.568V144.73H239.168C262.626 162.977 285.448 182.245 307.635 202.533C311.487 206.054 315.313 209.603 319.113 213.18C332.397 225.664 345.37 238.46 358.033 251.568H120.551ZM14.2498 272.62V274.726H97.3943V305.251H14.2498V307.356H99.4995V272.62H14.2498ZM118.446 326.303V347.634L120.551 347.439V328.408H444.751V326.303H118.446ZM444.751 274.726V272.62H118.446V307.356H444.751V305.251H120.551V274.726H444.751ZM248.152 121.573C207.765 90.4184 165.114 62.3153 120.551 37.4969V16.1819L118.446 16.3766V37.8566L120.067 39.639C164.448 64.3898 206.927 92.4065 247.152 123.457L247.436 123.678H444.751V121.573H248.152ZM97.3943 121.573H14.2498V123.678H99.4995V18.1344L97.3943 18.3292V121.573ZM444.751 142.625H271.288L273.557 144.488C294.914 162.061 315.883 180.699 336.465 200.402C339.391 203.202 342.307 206.024 345.212 208.87C359.675 223.001 373.855 237.594 387.753 252.647L389.488 253.674H444.751V251.568H389.621C375.874 236.664 361.829 222.191 347.486 208.149C344.618 205.339 341.739 202.547 338.849 199.776C318.713 180.455 298.147 162.107 277.151 144.73H444.751V142.625ZM14.2498 326.303V328.408H97.3943V349.586L99.4995 349.391V326.303H14.2498ZM14.2498 142.625V144.73H97.3943V251.568H14.2498V253.674H99.4995V142.625H14.2498ZM212.164 121.773C182.702 100.316 151.703 79.9692 120.036 61.3014L118.446 60.3646V123.678H214.78L212.164 121.773ZM120.551 121.573V64.0539C150.677 81.8743 180.176 101.211 208.306 121.573H120.551ZM361.269 251.89C348.528 238.643 335.456 225.697 322.055 213.054C318.36 209.565 314.643 206.103 310.903 202.67C288.077 181.702 264.501 161.761 240.174 142.846L239.889 142.625H118.446V253.674H362.985L361.269 251.89ZM120.551 251.568V144.73H239.168C262.626 162.977 285.448 182.245 307.635 202.533C311.487 206.054 315.313 209.603 319.113 213.18C332.397 225.664 345.37 238.46 358.033 251.568H120.551ZM212.164 121.773C182.702 100.316 151.703 79.9692 120.036 61.3014L118.446 60.3646V123.678H214.78L212.164 121.773ZM120.551 121.573V64.0539C150.677 81.8743 180.176 101.211 208.306 121.573H120.551ZM361.269 251.89C348.528 238.643 335.456 225.697 322.055 213.054C318.36 209.565 314.643 206.103 310.903 202.67C288.077 181.702 264.501 161.761 240.174 142.846L239.889 142.625H118.446V253.674H362.985L361.269 251.89ZM120.551 251.568V144.73H239.168C262.626 162.977 285.448 182.245 307.635 202.533C311.487 206.054 315.313 209.603 319.113 213.18C332.397 225.664 345.37 238.46 358.033 251.568H120.551Z" fill="#3F3D56"/>
<path d="M267.224 193.362C267.224 184.093 274.738 162.098 284.007 162.098C293.276 162.098 300.79 184.093 300.79 193.362C300.79 197.813 299.022 202.082 295.875 205.229C292.727 208.376 288.458 210.145 284.007 210.145C279.556 210.145 275.287 208.376 272.14 205.229C268.993 202.082 267.224 197.813 267.224 193.362V193.362Z" fill="#F2F2F2"/>
<path d="M284.007 234.193C283.989 234.193 283.971 234.189 283.955 234.182C283.938 234.175 283.923 234.165 283.91 234.152C283.897 234.139 283.887 234.124 283.88 234.107C283.873 234.091 283.869 234.073 283.869 234.055V176.192C283.869 176.156 283.884 176.121 283.91 176.095C283.936 176.069 283.971 176.054 284.007 176.054C284.044 176.054 284.079 176.069 284.105 176.095C284.131 176.121 284.145 176.156 284.145 176.192V234.055C284.145 234.073 284.142 234.091 284.135 234.107C284.128 234.124 284.118 234.139 284.105 234.152C284.092 234.165 284.077 234.175 284.06 234.182C284.043 234.189 284.025 234.193 284.007 234.193V234.193Z" fill="#3F3D56"/>
<path d="M284.007 187.363C283.989 187.363 283.971 187.36 283.955 187.353C283.938 187.346 283.923 187.336 283.91 187.323L277.267 180.68C277.254 180.667 277.244 180.652 277.237 180.635C277.23 180.619 277.227 180.601 277.227 180.583C277.227 180.564 277.23 180.547 277.237 180.53C277.244 180.513 277.254 180.498 277.267 180.485C277.28 180.472 277.295 180.462 277.312 180.455C277.329 180.448 277.346 180.445 277.365 180.445C277.383 180.445 277.401 180.448 277.417 180.455C277.434 180.462 277.449 180.472 277.462 180.485L284.105 187.128C284.124 187.147 284.137 187.172 284.143 187.198C284.148 187.225 284.145 187.253 284.135 187.278C284.124 187.303 284.107 187.325 284.084 187.34C284.061 187.355 284.035 187.363 284.007 187.363V187.363Z" fill="#3F3D56"/>
<path d="M284.007 198.863C283.98 198.863 283.953 198.855 283.931 198.84C283.908 198.825 283.89 198.803 283.88 198.778C283.869 198.753 283.867 198.725 283.872 198.698C283.877 198.671 283.891 198.647 283.91 198.627L295.034 187.503C295.047 187.49 295.062 187.48 295.079 187.473C295.096 187.466 295.114 187.463 295.132 187.463C295.15 187.463 295.168 187.466 295.184 187.473C295.201 187.48 295.216 187.49 295.229 187.503C295.242 187.516 295.252 187.531 295.259 187.548C295.266 187.565 295.27 187.583 295.27 187.601C295.27 187.619 295.266 187.637 295.259 187.653C295.252 187.67 295.242 187.685 295.229 187.698L284.105 198.823C284.092 198.835 284.077 198.846 284.06 198.853C284.043 198.86 284.026 198.863 284.007 198.863V198.863Z" fill="#3F3D56"/>
<path d="M361.327 145.995C361.327 136.726 368.841 114.731 378.11 114.731C387.379 114.731 394.893 136.726 394.893 145.995C394.89 150.444 393.121 154.71 389.974 157.856C386.827 161.001 382.559 162.768 378.11 162.768C373.661 162.768 369.393 161.001 366.246 157.856C363.099 154.71 361.33 150.444 361.327 145.995V145.995Z" fill="#112F91"/>
<path d="M378.11 186.826C378.092 186.826 378.074 186.822 378.057 186.815C378.04 186.808 378.025 186.798 378.012 186.785C378 186.773 377.989 186.757 377.982 186.741C377.976 186.724 377.972 186.706 377.972 186.688V128.826C377.972 128.789 377.986 128.754 378.012 128.728C378.038 128.702 378.073 128.688 378.11 128.688C378.147 128.688 378.182 128.702 378.207 128.728C378.233 128.754 378.248 128.789 378.248 128.826V186.688C378.248 186.706 378.244 186.724 378.237 186.741C378.23 186.757 378.22 186.773 378.207 186.785C378.195 186.798 378.179 186.808 378.163 186.815C378.146 186.822 378.128 186.826 378.11 186.826V186.826Z" fill="#3F3D56"/>
<path d="M378.11 139.996C378.092 139.997 378.074 139.993 378.057 139.986C378.04 139.979 378.025 139.969 378.012 139.956L371.37 133.313C371.344 133.288 371.329 133.252 371.329 133.216C371.329 133.179 371.344 133.144 371.37 133.118C371.396 133.092 371.431 133.078 371.467 133.078C371.504 133.078 371.539 133.092 371.565 133.118L378.208 139.761C378.227 139.78 378.24 139.805 378.245 139.832C378.251 139.858 378.248 139.886 378.237 139.911C378.227 139.937 378.209 139.958 378.187 139.973C378.164 139.988 378.137 139.996 378.11 139.996H378.11Z" fill="#3F3D56"/>
<path d="M378.11 151.496C378.083 151.496 378.056 151.488 378.033 151.473C378.011 151.458 377.993 151.436 377.982 151.411C377.972 151.386 377.969 151.358 377.975 151.331C377.98 151.305 377.993 151.28 378.012 151.261L389.137 140.136C389.163 140.111 389.198 140.096 389.234 140.096C389.271 140.097 389.306 140.111 389.331 140.137C389.357 140.163 389.372 140.198 389.372 140.234C389.372 140.27 389.358 140.305 389.332 140.331L378.208 151.456C378.195 151.469 378.18 151.479 378.163 151.486C378.146 151.493 378.128 151.496 378.11 151.496V151.496Z" fill="#3F3D56"/>
<path d="M155.277 150.732C155.277 141.463 162.791 119.468 172.06 119.468C181.329 119.468 188.843 141.463 188.843 150.732C188.843 155.183 187.075 159.452 183.928 162.599C180.78 165.746 176.511 167.515 172.06 167.515C167.609 167.515 163.34 165.746 160.193 162.599C157.045 159.452 155.277 155.183 155.277 150.732V150.732Z" fill="#112F91"/>
<path d="M172.06 191.563C172.042 191.563 172.024 191.559 172.007 191.552C171.991 191.545 171.975 191.535 171.963 191.522C171.95 191.509 171.94 191.494 171.933 191.477C171.926 191.461 171.922 191.443 171.922 191.425V133.563C171.922 133.526 171.937 133.491 171.963 133.465C171.989 133.439 172.024 133.425 172.06 133.425C172.097 133.425 172.132 133.439 172.158 133.465C172.184 133.491 172.198 133.526 172.198 133.563V191.425C172.198 191.443 172.195 191.461 172.188 191.477C172.181 191.494 172.171 191.509 172.158 191.522C172.145 191.535 172.13 191.545 172.113 191.552C172.096 191.559 172.078 191.563 172.06 191.563V191.563Z" fill="#3F3D56"/>
<path d="M172.06 144.733C172.042 144.733 172.024 144.73 172.007 144.723C171.991 144.716 171.975 144.705 171.963 144.693L165.32 138.05C165.307 138.037 165.297 138.022 165.29 138.005C165.283 137.989 165.28 137.971 165.28 137.952C165.28 137.934 165.283 137.916 165.29 137.9C165.297 137.883 165.307 137.868 165.32 137.855C165.333 137.842 165.348 137.832 165.365 137.825C165.381 137.818 165.399 137.814 165.418 137.814C165.436 137.814 165.454 137.818 165.47 137.825C165.487 137.832 165.502 137.842 165.515 137.855L172.158 144.497C172.177 144.517 172.19 144.541 172.196 144.568C172.201 144.595 172.198 144.623 172.188 144.648C172.177 144.673 172.16 144.695 172.137 144.71C172.114 144.725 172.088 144.733 172.06 144.733V144.733Z" fill="#3F3D56"/>
<path d="M172.06 156.233C172.033 156.233 172.006 156.225 171.984 156.21C171.961 156.195 171.943 156.173 171.933 156.148C171.922 156.123 171.92 156.095 171.925 156.068C171.93 156.041 171.943 156.017 171.963 155.997L183.087 144.873C183.113 144.847 183.148 144.833 183.185 144.833C183.221 144.833 183.256 144.847 183.282 144.873C183.308 144.899 183.322 144.934 183.322 144.971C183.322 145.007 183.308 145.042 183.282 145.068L172.158 156.193C172.145 156.205 172.13 156.216 172.113 156.223C172.096 156.229 172.078 156.233 172.06 156.233V156.233Z" fill="#3F3D56"/>
<path d="M310.118 104.491C300.586 104.491 291.268 101.665 283.342 96.369C275.417 91.0732 269.239 83.5461 265.591 74.7395C261.944 65.9329 260.989 56.2424 262.849 46.8934C264.708 37.5443 269.299 28.9567 276.039 22.2164C282.779 15.4761 291.367 10.8859 300.716 9.02631C310.065 7.16667 319.755 8.1211 328.562 11.7689C337.369 15.4167 344.896 21.5941 350.192 29.5198C355.487 37.4455 358.314 46.7637 358.314 56.2959C358.3 69.0737 353.217 81.324 344.182 90.3593C335.147 99.3946 322.896 104.477 310.118 104.491V104.491ZM310.118 8.74717C300.714 8.74717 291.521 11.5358 283.702 16.7606C275.882 21.9853 269.788 29.4114 266.189 38.0998C262.59 46.7882 261.649 56.3486 263.483 65.5721C265.318 74.7957 269.847 83.2681 276.496 89.9179C283.146 96.5677 291.619 101.096 300.842 102.931C310.066 104.766 319.626 103.824 328.314 100.225C337.003 96.6263 344.429 90.5318 349.654 82.7125C354.878 74.8931 357.667 65.7001 357.667 56.2959C357.653 43.6895 352.639 31.6036 343.725 22.6896C334.811 13.7756 322.725 8.76143 310.118 8.74719V8.74717Z" fill="#CCCCCC"/>
<path d="M310.118 52.7379C310.033 52.7379 309.95 52.7038 309.89 52.6431C309.829 52.5825 309.795 52.5002 309.795 52.4144V8.4238C309.795 8.33801 309.829 8.25574 309.89 8.19508C309.95 8.13442 310.033 8.10034 310.118 8.10034C310.204 8.10034 310.286 8.13442 310.347 8.19508C310.408 8.25574 310.442 8.33801 310.442 8.4238V52.4144C310.442 52.5002 310.408 52.5825 310.347 52.6431C310.286 52.7038 310.204 52.7379 310.118 52.7379V52.7379Z" fill="#CCCCCC"/>
<path d="M357.991 56.6193H314C313.914 56.6193 313.832 56.5852 313.771 56.5246C313.711 56.4639 313.676 56.3817 313.676 56.2959C313.676 56.2101 313.711 56.1278 313.771 56.0672C313.832 56.0065 313.914 55.9724 314 55.9724H357.991C358.076 55.9724 358.159 56.0065 358.219 56.0672C358.28 56.1278 358.314 56.2101 358.314 56.2959C358.314 56.3817 358.28 56.4639 358.219 56.5246C358.159 56.5852 358.076 56.6193 357.991 56.6193Z" fill="#CCCCCC"/>
<path d="M306.237 56.6193H262.267C262.181 56.6193 262.099 56.5852 262.038 56.5246C261.978 56.4639 261.944 56.3817 261.944 56.2959C261.944 56.2101 261.978 56.1278 262.038 56.0672C262.099 56.0065 262.181 55.9724 262.267 55.9724H306.237C306.323 55.9724 306.405 56.0065 306.466 56.0672C306.526 56.1278 306.56 56.2101 306.56 56.2959C306.56 56.3817 306.526 56.4639 306.466 56.5246C306.405 56.5852 306.323 56.6193 306.237 56.6193V56.6193Z" fill="#CCCCCC"/>
<path d="M310.118 104.492C310.033 104.492 309.95 104.457 309.89 104.397C309.829 104.336 309.795 104.254 309.795 104.168V60.1775C309.795 60.0917 309.829 60.0094 309.89 59.9487C309.95 59.8881 310.033 59.854 310.118 59.854C310.204 59.854 310.286 59.8881 310.347 59.9487C310.408 60.0094 310.442 60.0917 310.442 60.1775V104.168C310.442 104.254 310.408 104.336 310.347 104.397C310.286 104.457 310.204 104.492 310.118 104.492V104.492Z" fill="#CCCCCC"/>
<path d="M312.97 53.9909C312.906 53.9909 312.844 53.9719 312.791 53.9364C312.737 53.9008 312.696 53.8503 312.672 53.7912C312.647 53.7321 312.641 53.6671 312.653 53.6044C312.666 53.5416 312.696 53.484 312.742 53.4388L343.711 22.4695C343.772 22.4092 343.854 22.3754 343.939 22.3756C344.025 22.3758 344.107 22.4098 344.167 22.4703C344.228 22.5308 344.262 22.6129 344.262 22.6984C344.262 22.784 344.228 22.8661 344.168 22.9269L313.199 53.8961C313.169 53.9262 313.133 53.9501 313.094 53.9664C313.055 53.9826 313.013 53.991 312.97 53.9909V53.9909Z" fill="#CCCCCC"/>
<path d="M307.267 53.9909C307.224 53.991 307.182 53.9826 307.143 53.9664C307.103 53.9501 307.068 53.9262 307.038 53.8961L276.069 22.9269C276.008 22.8661 275.975 22.784 275.975 22.6984C275.975 22.6129 276.009 22.5308 276.069 22.4703C276.13 22.4098 276.212 22.3758 276.298 22.3756C276.383 22.3754 276.465 22.4092 276.526 22.4695L307.495 53.4388C307.54 53.484 307.571 53.5416 307.584 53.6044C307.596 53.6671 307.59 53.7321 307.565 53.7912C307.541 53.8503 307.499 53.9008 307.446 53.9364C307.393 53.9719 307.331 53.9909 307.267 53.9909Z" fill="#CCCCCC"/>
<path d="M343.94 90.2171C343.897 90.2172 343.855 90.2089 343.816 90.1926C343.776 90.1763 343.741 90.1525 343.711 90.1224L312.742 59.1531C312.681 59.0923 312.648 59.0102 312.648 58.9246C312.648 58.8391 312.682 58.757 312.742 58.6965C312.803 58.636 312.885 58.602 312.971 58.6018C313.056 58.6016 313.138 58.6354 313.199 58.6957L344.168 89.665C344.213 89.7102 344.244 89.7678 344.257 89.8306C344.269 89.8933 344.263 89.9583 344.238 90.0174C344.214 90.0765 344.172 90.127 344.119 90.1626C344.066 90.1981 344.003 90.2171 343.94 90.2171V90.2171Z" fill="#CCCCCC"/>
<path d="M276.297 90.2171C276.233 90.2171 276.171 90.1981 276.118 90.1626C276.064 90.127 276.023 90.0765 275.998 90.0174C275.974 89.9583 275.968 89.8933 275.98 89.8306C275.993 89.7678 276.023 89.7102 276.069 89.665L307.038 58.6957C307.099 58.635 307.181 58.601 307.267 58.601C307.352 58.601 307.435 58.635 307.495 58.6957C307.556 58.7563 307.59 58.8386 307.59 58.9244C307.59 59.0102 307.556 59.0924 307.495 59.1531L276.526 90.1224C276.496 90.1524 276.46 90.1763 276.421 90.1926C276.382 90.2088 276.34 90.2172 276.297 90.2171V90.2171Z" fill="#CCCCCC"/>
<path d="M310.118 89.4505C303.561 89.4505 297.151 87.506 291.699 83.8629C286.246 80.2199 281.997 75.0418 279.487 68.9836C276.978 62.9253 276.322 56.259 277.601 49.8277C278.88 43.3963 282.038 37.4887 286.675 32.8519C291.311 28.2151 297.219 25.0575 303.65 23.7782C310.082 22.4989 316.748 23.1555 322.806 25.6649C328.864 28.1743 334.042 32.4238 337.686 37.8761C341.329 43.3283 343.273 49.7384 343.273 56.2958C343.263 65.086 339.767 73.5132 333.551 79.7288C327.336 85.9443 318.909 89.4406 310.118 89.4505V89.4505ZM310.118 23.7881C303.689 23.7881 297.404 25.6946 292.058 29.2666C286.712 32.8386 282.546 37.9156 280.085 43.8557C277.625 49.7957 276.981 56.3319 278.235 62.6378C279.49 68.9437 282.586 74.736 287.132 79.2823C291.678 83.8286 297.471 86.9247 303.776 88.179C310.082 89.4333 316.619 88.7896 322.559 86.3291C328.499 83.8687 333.576 79.7021 337.148 74.3562C340.72 69.0103 342.626 62.7253 342.626 56.2958C342.616 47.6772 339.188 39.4144 333.094 33.3201C327 27.2259 318.737 23.7978 310.118 23.7881V23.7881Z" fill="#CCCCCC"/>
<path d="M310.118 60.1774C312.262 60.1774 314 58.4395 314 56.2958C314 54.1521 312.262 52.4143 310.118 52.4143C307.975 52.4143 306.237 54.1521 306.237 56.2958C306.237 58.4395 307.975 60.1774 310.118 60.1774Z" fill="#3F3D56"/>
<path d="M295.091 121.86L291.681 121.959L308.326 54.7773L311.419 55.7213L295.091 121.86Z" fill="#3F3D56"/>
<path d="M325.146 121.86L328.555 121.959L311.911 54.7773L308.818 55.7213L325.146 121.86Z" fill="#3F3D56"/>
<path d="M315.294 18.1276H304.62V23.9499H315.294V18.1276Z" fill="#CCCCCC"/>
<path d="M309.471 19.4214H305.267V23.9498H309.471V19.4214Z" fill="white"/>
<path d="M314.647 19.4214H310.442V23.9498H314.647V19.4214Z" fill="white"/>
<path d="M309.957 30.2573C308.327 30.2555 306.765 29.6074 305.613 28.4552C304.461 27.3031 303.813 25.741 303.811 24.1116V23.9498C303.811 23.5639 303.965 23.194 304.238 22.9211C304.511 22.6482 304.881 22.4947 305.267 22.4943H314.647C315.033 22.4947 315.403 22.6482 315.676 22.9211C315.949 23.194 316.102 23.5639 316.102 23.9498V24.1116C316.101 25.741 315.453 27.3031 314.3 28.4552C313.148 29.6074 311.586 30.2555 309.957 30.2573V30.2573Z" fill="#CCCCCC"/>
<path d="M314.894 19.5832H305.019C304.882 19.5832 304.746 19.548 304.626 19.4808C304.505 19.4137 304.404 19.3169 304.332 19.1997C304.259 19.0824 304.218 18.9486 304.212 18.8109C304.205 18.6731 304.234 18.5361 304.296 18.4128L306.237 14.5313C306.304 14.3967 306.407 14.2834 306.535 14.2044C306.662 14.1254 306.81 14.0838 306.96 14.0844H312.953C313.103 14.0838 313.251 14.1254 313.379 14.2044C313.507 14.2834 313.61 14.3967 313.676 14.5313L315.617 18.4128C315.679 18.5361 315.708 18.6731 315.702 18.8109C315.696 18.9486 315.654 19.0824 315.582 19.1997C315.509 19.3169 315.408 19.4137 315.288 19.4808C315.167 19.548 315.032 19.5832 314.894 19.5832H314.894Z" fill="#112F91"/>
<path d="M344.082 31.0659H333.408V36.8882H344.082V31.0659Z" fill="#CCCCCC"/>
<path d="M338.259 32.3599H334.054V36.8883H338.259V32.3599Z" fill="white"/>
<path d="M343.435 32.3599H339.23V36.8883H343.435V32.3599Z" fill="white"/>
<path d="M338.745 43.1958C337.115 43.1939 335.553 42.5458 334.401 41.3937C333.249 40.2415 332.601 38.6794 332.599 37.05V36.8883C332.599 36.5024 332.753 36.1324 333.026 35.8595C333.299 35.5867 333.669 35.4332 334.055 35.4327H343.435C343.821 35.4332 344.191 35.5867 344.464 35.8595C344.736 36.1324 344.89 36.5024 344.89 36.8883V37.05C344.889 38.6794 344.24 40.2415 343.088 41.3937C341.936 42.5458 340.374 43.1939 338.745 43.1958V43.1958Z" fill="#CCCCCC"/>
<path d="M335.748 27.3462C335.658 27.3459 335.57 27.3709 335.493 27.4183C335.416 27.4657 335.354 27.5336 335.314 27.6144L333.373 31.4959C333.336 31.5699 333.319 31.6521 333.323 31.7347C333.326 31.8173 333.351 31.8976 333.395 31.968C333.438 32.0384 333.499 32.0964 333.571 32.1367C333.643 32.177 333.725 32.1981 333.807 32.1981H343.682C343.765 32.1981 343.846 32.177 343.918 32.1367C343.99 32.0964 344.051 32.0384 344.095 31.968C344.138 31.8976 344.163 31.8173 344.167 31.7347C344.17 31.6521 344.153 31.5699 344.116 31.4959L342.175 27.6144C342.135 27.5336 342.073 27.4657 341.997 27.4183C341.92 27.3709 341.831 27.3459 341.741 27.3462H335.748Z" fill="#112F91"/>
<path d="M355.403 60.1774H344.729V65.9997H355.403V60.1774Z" fill="#CCCCCC"/>
<path d="M349.581 61.4713H345.376V65.9998H349.581V61.4713Z" fill="white"/>
<path d="M354.756 61.4713H350.551V65.9998H354.756V61.4713Z" fill="white"/>
<path d="M350.066 72.3072C348.436 72.3054 346.874 71.6573 345.722 70.5051C344.57 69.353 343.922 67.7909 343.92 66.1615V65.9998C343.92 65.6139 344.074 65.2439 344.347 64.971C344.62 64.6981 344.99 64.5446 345.376 64.5442H354.756C355.142 64.5446 355.512 64.6981 355.785 64.971C356.058 65.2439 356.211 65.6139 356.212 65.9998V66.1615C356.21 67.7909 355.562 69.353 354.409 70.5051C353.257 71.6573 351.695 72.3054 350.066 72.3072V72.3072Z" fill="#CCCCCC"/>
<path d="M355.003 61.633H345.129C344.991 61.633 344.855 61.5978 344.735 61.5307C344.614 61.4635 344.513 61.3667 344.441 61.2495C344.368 61.1322 344.327 60.9984 344.321 60.8607C344.314 60.723 344.344 60.5859 344.405 60.4627L346.346 56.5811C346.413 56.4465 346.516 56.3332 346.644 56.2542C346.772 56.1752 346.919 56.1336 347.069 56.1342H353.062C353.213 56.1336 353.36 56.1752 353.488 56.2542C353.616 56.3332 353.719 56.4465 353.786 56.5811L355.726 60.4627C355.788 60.5859 355.817 60.723 355.811 60.8607C355.805 60.9984 355.763 61.1322 355.691 61.2495C355.618 61.3667 355.517 61.4635 355.397 61.5307C355.276 61.5978 355.141 61.633 355.003 61.633H355.003Z" fill="#112F91"/>
<path d="M343.435 87.3481H332.761V93.1704H343.435V87.3481Z" fill="#CCCCCC"/>
<path d="M337.613 88.642H333.408V93.1704H337.613V88.642Z" fill="white"/>
<path d="M342.788 88.642H338.583V93.1704H342.788V88.642Z" fill="white"/>
<path d="M338.098 99.4779C336.468 99.4761 334.906 98.828 333.754 97.6758C332.602 96.5237 331.954 94.9615 331.952 93.3321V93.1704C331.952 92.7845 332.106 92.4145 332.379 92.1416C332.652 91.8688 333.022 91.7153 333.408 91.7148H342.788C343.174 91.7153 343.544 91.8688 343.817 92.1416C344.09 92.4145 344.243 92.7845 344.243 93.1704V93.3321C344.242 94.9615 343.594 96.5236 342.441 97.6758C341.289 98.828 339.727 99.4761 338.098 99.4779V99.4779Z" fill="#CCCCCC"/>
<path d="M343.035 88.8036H333.161C333.023 88.8036 332.887 88.7684 332.767 88.7013C332.646 88.6342 332.545 88.5374 332.473 88.4201C332.4 88.3029 332.359 88.169 332.353 88.0313C332.346 87.8936 332.376 87.7566 332.437 87.6333L334.378 83.7518C334.445 83.6171 334.548 83.5039 334.676 83.4249C334.804 83.3459 334.951 83.3043 335.101 83.3048H341.094C341.245 83.3043 341.392 83.3459 341.52 83.4249C341.648 83.5039 341.751 83.6171 341.818 83.7518L343.758 87.6333C343.82 87.7566 343.849 87.8936 343.843 88.0313C343.837 88.169 343.795 88.3029 343.723 88.4201C343.65 88.5374 343.549 88.6342 343.429 88.7013C343.308 88.7684 343.173 88.8036 343.035 88.8036H343.035Z" fill="#112F91"/>
<path d="M276.155 36.8883H286.829V31.066H276.155V36.8883Z" fill="#CCCCCC"/>
<path d="M281.977 36.8883H286.182V32.3599H281.977V36.8883Z" fill="white"/>
<path d="M276.802 36.8883H281.007V32.3599H276.802V36.8883Z" fill="white"/>
<path d="M281.492 43.1958C279.863 43.1939 278.301 42.5458 277.149 41.3937C275.996 40.2415 275.348 38.6794 275.346 37.05V36.8883C275.347 36.5024 275.5 36.1324 275.773 35.8595C276.046 35.5867 276.416 35.4332 276.802 35.4327H286.182C286.568 35.4332 286.938 35.5867 287.211 35.8595C287.484 36.1324 287.637 36.5024 287.638 36.8883V37.05C287.636 38.6794 286.988 40.2415 285.836 41.3937C284.684 42.5458 283.122 43.1939 281.492 43.1958V43.1958Z" fill="#CCCCCC"/>
<path d="M286.429 32.5215H276.555C276.417 32.5215 276.281 32.4863 276.161 32.4192C276.041 32.3521 275.939 32.2553 275.867 32.138C275.794 32.0208 275.753 31.8869 275.747 31.7492C275.741 31.6115 275.77 31.4745 275.832 31.3512L277.772 27.4697C277.839 27.335 277.942 27.2218 278.07 27.1428C278.198 27.0638 278.345 27.0222 278.496 27.0227H284.489C284.639 27.0222 284.786 27.0638 284.914 27.1428C285.042 27.2218 285.145 27.335 285.212 27.4697L287.153 31.3512C287.214 31.4745 287.243 31.6115 287.237 31.7492C287.231 31.8869 287.19 32.0208 287.117 32.138C287.045 32.2553 286.944 32.3521 286.823 32.4192C286.703 32.4863 286.567 32.5215 286.429 32.5215H286.429Z" fill="#112F91"/>
<path d="M264.834 65.9998H275.508V60.1775H264.834V65.9998Z" fill="#CCCCCC"/>
<path d="M270.656 65.9998H274.861V61.4713H270.656V65.9998Z" fill="white"/>
<path d="M265.481 65.9998H269.686V61.4713H265.481V65.9998Z" fill="white"/>
<path d="M270.171 72.3072C268.542 72.3054 266.98 71.6573 265.827 70.5051C264.675 69.353 264.027 67.7909 264.025 66.1615V65.9998C264.026 65.6139 264.179 65.2439 264.452 64.971C264.725 64.6981 265.095 64.5446 265.481 64.5442H274.861C275.247 64.5446 275.617 64.6981 275.89 64.971C276.163 65.2439 276.316 65.6139 276.317 65.9998V66.1615C276.315 67.7909 275.667 69.353 274.515 70.5051C273.363 71.6573 271.8 72.3054 270.171 72.3072Z" fill="#CCCCCC"/>
<path d="M275.108 61.633H265.234C265.096 61.633 264.96 61.5978 264.84 61.5307C264.72 61.4635 264.618 61.3667 264.546 61.2495C264.473 61.1322 264.432 60.9984 264.426 60.8607C264.42 60.723 264.449 60.5859 264.511 60.4627L266.451 56.5811C266.518 56.4465 266.621 56.3332 266.749 56.2542C266.877 56.1752 267.024 56.1336 267.175 56.1342H273.168C273.318 56.1336 273.465 56.1752 273.593 56.2542C273.721 56.3332 273.824 56.4465 273.891 56.5811L275.832 60.4627C275.893 60.5859 275.922 60.723 275.916 60.8607C275.91 60.9984 275.869 61.1322 275.796 61.2495C275.724 61.3667 275.623 61.4635 275.502 61.5307C275.382 61.5978 275.246 61.633 275.108 61.633H275.108Z" fill="#112F91"/>
<path d="M276.802 93.1704H287.476V87.3481H276.802V93.1704Z" fill="#CCCCCC"/>
<path d="M282.624 93.1704H286.829V88.642H282.624V93.1704Z" fill="white"/>
<path d="M277.449 93.1704H281.654V88.642H277.449V93.1704Z" fill="white"/>
<path d="M282.139 99.4779C280.51 99.4761 278.948 98.828 277.795 97.6758C276.643 96.5237 275.995 94.9615 275.993 93.3321V93.1704C275.994 92.7845 276.147 92.4145 276.42 92.1416C276.693 91.8688 277.063 91.7153 277.449 91.7148H286.829C287.215 91.7153 287.585 91.8688 287.858 92.1416C288.131 92.4145 288.284 92.7845 288.285 93.1704V93.3321C288.283 94.9615 287.635 96.5236 286.483 97.6758C285.331 98.828 283.768 99.4761 282.139 99.4779V99.4779Z" fill="#CCCCCC"/>
<path d="M287.076 88.8036H277.202C277.064 88.8036 276.928 88.7684 276.808 88.7013C276.688 88.6342 276.586 88.5374 276.514 88.4201C276.441 88.3029 276.4 88.169 276.394 88.0313C276.388 87.8936 276.417 87.7566 276.479 87.6333L278.419 83.7518C278.486 83.6171 278.589 83.5039 278.717 83.4249C278.845 83.3459 278.992 83.3043 279.143 83.3048H285.136C285.286 83.3043 285.433 83.3459 285.561 83.4249C285.689 83.5039 285.792 83.6171 285.859 83.7518L287.8 87.6333C287.861 87.7566 287.89 87.8936 287.884 88.0313C287.878 88.169 287.837 88.3029 287.764 88.4201C287.692 88.5374 287.591 88.6342 287.47 88.7013C287.35 88.7684 287.214 88.8036 287.076 88.8036H287.076Z" fill="#112F91"/>
<path d="M315.294 99.6396H304.62V105.462H315.294V99.6396Z" fill="#CCCCCC"/>
<path d="M309.471 100.933H305.267V105.462H309.471V100.933Z" fill="white"/>
<path d="M314.647 100.933H310.442V105.462H314.647V100.933Z" fill="white"/>
<path d="M305.267 104.33C304.966 104.33 304.679 104.45 304.466 104.662C304.254 104.874 304.135 105.162 304.134 105.462V105.624C304.134 106.389 304.284 107.147 304.576 107.854C304.868 108.561 305.297 109.203 305.838 109.745C306.378 110.286 307.02 110.715 307.727 111.008C308.434 111.301 309.192 111.452 309.957 111.452C310.722 111.452 311.479 111.301 312.186 111.008C312.893 110.715 313.535 110.286 314.076 109.745C314.617 109.203 315.045 108.561 315.337 107.854C315.63 107.147 315.78 106.389 315.779 105.624V105.462C315.779 105.162 315.659 104.874 315.447 104.662C315.235 104.45 314.947 104.33 314.647 104.33H305.267Z" fill="#CCCCCC"/>
<path d="M306.96 95.9198C306.87 95.9195 306.782 95.9445 306.705 95.9919C306.628 96.0393 306.566 96.1072 306.526 96.188L304.585 100.07C304.548 100.143 304.531 100.226 304.535 100.308C304.538 100.391 304.563 100.471 304.607 100.542C304.65 100.612 304.711 100.67 304.783 100.71C304.855 100.751 304.937 100.772 305.019 100.772H314.894C314.977 100.772 315.058 100.751 315.13 100.71C315.202 100.67 315.263 100.612 315.307 100.542C315.35 100.471 315.375 100.391 315.379 100.308C315.382 100.226 315.365 100.143 315.328 100.07L313.387 96.188C313.347 96.1072 313.285 96.0393 313.209 95.9919C313.132 95.9445 313.043 95.9195 312.953 95.9198H306.96Z" fill="#112F91"/>
<path d="M167.553 180.362C167.65 180.362 167.743 180.323 167.811 180.255C167.88 180.186 167.918 180.094 167.918 179.997C167.918 179.9 167.88 179.807 167.811 179.739C167.743 179.67 167.65 179.632 167.553 179.632H164.086V178.172H167.553C167.65 178.172 167.743 178.133 167.811 178.065C167.88 177.997 167.918 177.904 167.918 177.807C167.918 177.71 167.88 177.617 167.811 177.549C167.743 177.48 167.65 177.442 167.553 177.442H137.99C137.893 177.442 137.8 177.48 137.732 177.549C137.663 177.617 137.625 177.71 137.625 177.807C137.625 177.904 137.663 177.997 137.732 178.065C137.8 178.133 137.893 178.172 137.99 178.172H141.457V179.632H137.99C137.893 179.632 137.8 179.67 137.732 179.739C137.663 179.807 137.625 179.9 137.625 179.997C137.625 180.094 137.663 180.186 137.732 180.255C137.8 180.323 137.893 180.362 137.99 180.362H141.457V181.822H137.99C137.893 181.822 137.8 181.86 137.732 181.929C137.663 181.997 137.625 182.09 137.625 182.187C137.625 182.283 137.663 182.376 137.732 182.445C137.8 182.513 137.893 182.552 137.99 182.552H141.457V184.012H138.355C138.161 184.012 137.976 184.088 137.839 184.225C137.702 184.362 137.625 184.548 137.625 184.741C137.625 184.935 137.702 185.121 137.839 185.258C137.976 185.395 138.161 185.471 138.355 185.471H141.308C141.287 185.53 141.275 185.592 141.275 185.654V190.764C141.275 190.909 141.332 191.048 141.435 191.151C141.538 191.253 141.677 191.311 141.822 191.311C141.967 191.311 142.107 191.253 142.209 191.151C142.312 191.048 142.37 190.909 142.37 190.764V185.654C142.369 185.592 142.358 185.53 142.336 185.471H163.207C163.185 185.53 163.174 185.592 163.173 185.654V190.764C163.173 190.909 163.231 191.048 163.334 191.151C163.436 191.253 163.576 191.311 163.721 191.311C163.866 191.311 164.005 191.253 164.108 191.151C164.211 191.048 164.268 190.909 164.268 190.764V185.654C164.268 185.592 164.256 185.53 164.235 185.471H167.188C167.382 185.471 167.567 185.395 167.704 185.258C167.841 185.121 167.918 184.935 167.918 184.741C167.918 184.548 167.841 184.362 167.704 184.225C167.567 184.088 167.382 184.012 167.188 184.012H164.086V182.552H167.553C167.65 182.552 167.743 182.513 167.811 182.445C167.88 182.376 167.918 182.283 167.918 182.187C167.918 182.09 167.88 181.997 167.811 181.929C167.743 181.86 167.65 181.822 167.553 181.822H164.086V180.362H167.553ZM142.187 178.172H163.356V179.632H142.187V178.172ZM163.356 184.012H142.187V182.552H163.356V184.012ZM163.356 181.822H142.187V180.362H163.356V181.822Z" fill="#3F3D56"/>
<path d="M281.606 224.044C281.702 224.044 281.795 224.006 281.864 223.937C281.932 223.869 281.971 223.776 281.971 223.679C281.971 223.583 281.932 223.49 281.864 223.421C281.795 223.353 281.702 223.314 281.606 223.314H278.138V221.854H281.606C281.702 221.854 281.795 221.816 281.864 221.748C281.932 221.679 281.971 221.586 281.971 221.489C281.971 221.393 281.932 221.3 281.864 221.231C281.795 221.163 281.702 221.125 281.606 221.125H252.042C251.945 221.125 251.853 221.163 251.784 221.231C251.716 221.3 251.677 221.393 251.677 221.489C251.677 221.586 251.716 221.679 251.784 221.748C251.853 221.816 251.945 221.854 252.042 221.854H255.51V223.314H252.042C251.945 223.314 251.853 223.353 251.784 223.421C251.716 223.49 251.677 223.583 251.677 223.679C251.677 223.776 251.716 223.869 251.784 223.937C251.853 224.006 251.945 224.044 252.042 224.044H255.51V225.504H252.042C251.945 225.504 251.853 225.543 251.784 225.611C251.716 225.68 251.677 225.772 251.677 225.869C251.677 225.966 251.716 226.059 251.784 226.127C251.853 226.196 251.945 226.234 252.042 226.234H255.51V227.694H252.407C252.214 227.694 252.028 227.771 251.891 227.908C251.754 228.045 251.677 228.23 251.677 228.424C251.677 228.618 251.754 228.803 251.891 228.94C252.028 229.077 252.214 229.154 252.407 229.154H255.361C255.339 229.213 255.328 229.274 255.327 229.337V234.446C255.327 234.518 255.341 234.59 255.368 234.656C255.396 234.723 255.436 234.784 255.487 234.835C255.538 234.886 255.598 234.926 255.665 234.954C255.731 234.981 255.802 234.996 255.875 234.996C255.947 234.996 256.018 234.981 256.084 234.954C256.151 234.926 256.211 234.886 256.262 234.835C256.313 234.784 256.353 234.723 256.381 234.656C256.408 234.59 256.422 234.518 256.422 234.446V229.337C256.421 229.274 256.41 229.213 256.389 229.154H277.259C277.238 229.213 277.226 229.274 277.226 229.337V234.446C277.226 234.591 277.283 234.731 277.386 234.833C277.489 234.936 277.628 234.994 277.773 234.994C277.918 234.994 278.058 234.936 278.16 234.833C278.263 234.731 278.321 234.591 278.321 234.446V229.337C278.32 229.274 278.309 229.213 278.287 229.154H281.241C281.434 229.154 281.62 229.077 281.757 228.94C281.894 228.803 281.971 228.618 281.971 228.424C281.971 228.23 281.894 228.045 281.757 227.908C281.62 227.771 281.434 227.694 281.241 227.694H278.138V226.234H281.606C281.702 226.234 281.795 226.196 281.864 226.127C281.932 226.059 281.971 225.966 281.971 225.869C281.971 225.772 281.932 225.68 281.864 225.611C281.795 225.543 281.702 225.504 281.606 225.504H278.138V224.044L281.606 224.044ZM256.24 221.854H277.408V223.314H256.24V221.854ZM277.408 227.694H256.24V226.234H277.408V227.694ZM277.408 225.504H256.24V224.044H277.408V225.504Z" fill="#3F3D56"/>
<path d="M373.603 176.151C373.7 176.151 373.793 176.113 373.861 176.044C373.929 175.976 373.968 175.883 373.968 175.786C373.968 175.689 373.929 175.597 373.861 175.528C373.793 175.46 373.7 175.421 373.603 175.421H370.136V173.961H373.603C373.7 173.961 373.793 173.923 373.861 173.855C373.929 173.786 373.968 173.693 373.968 173.596C373.968 173.5 373.929 173.407 373.861 173.338C373.793 173.27 373.7 173.231 373.603 173.231H344.04C343.943 173.231 343.85 173.27 343.782 173.338C343.713 173.407 343.675 173.5 343.675 173.596C343.675 173.693 343.713 173.786 343.782 173.855C343.85 173.923 343.943 173.961 344.04 173.961H347.507V175.421H344.04C343.943 175.421 343.85 175.46 343.782 175.528C343.713 175.597 343.675 175.689 343.675 175.786C343.675 175.883 343.713 175.976 343.782 176.044C343.85 176.113 343.943 176.151 344.04 176.151H347.507V177.611H344.04C343.943 177.611 343.85 177.65 343.782 177.718C343.713 177.787 343.675 177.879 343.675 177.976C343.675 178.073 343.713 178.166 343.782 178.234C343.85 178.303 343.943 178.341 344.04 178.341H347.507V179.801H344.405C344.211 179.802 344.026 179.879 343.89 180.016C343.753 180.152 343.677 180.338 343.677 180.531C343.677 180.724 343.753 180.91 343.89 181.046C344.026 181.183 344.211 181.26 344.405 181.261H347.358C347.336 181.319 347.325 181.381 347.325 181.443V186.553C347.325 186.698 347.382 186.838 347.485 186.94C347.588 187.043 347.727 187.101 347.872 187.101C348.017 187.101 348.156 187.043 348.259 186.94C348.362 186.838 348.419 186.698 348.419 186.553V181.443C348.419 181.381 348.407 181.319 348.386 181.261H369.257C369.235 181.319 369.224 181.381 369.223 181.443V186.553C369.223 186.698 369.281 186.838 369.384 186.94C369.486 187.043 369.625 187.101 369.771 187.101C369.916 187.101 370.055 187.043 370.158 186.94C370.26 186.838 370.318 186.698 370.318 186.553V181.443C370.317 181.381 370.306 181.319 370.285 181.261H373.238C373.334 181.261 373.429 181.243 373.518 181.206C373.607 181.169 373.688 181.116 373.756 181.048C373.824 180.98 373.877 180.9 373.914 180.811C373.951 180.722 373.97 180.627 373.97 180.531C373.97 180.435 373.951 180.34 373.914 180.251C373.877 180.162 373.824 180.082 373.756 180.014C373.688 179.946 373.607 179.893 373.518 179.856C373.429 179.819 373.334 179.801 373.238 179.801H370.136V178.341H373.603C373.7 178.341 373.793 178.303 373.861 178.234C373.929 178.166 373.968 178.073 373.968 177.976C373.968 177.879 373.929 177.787 373.861 177.718C373.793 177.65 373.7 177.611 373.603 177.611H370.136V176.151H373.603ZM348.237 173.961H369.406V175.421H348.237V173.961ZM369.406 179.801H348.237V178.341H369.406V179.801ZM369.406 177.611H348.237V176.151H369.406V177.611Z" fill="#3F3D56"/>
<path d="M235.048 267.921C235.048 258.561 227.455 236.35 218.089 236.35C208.722 236.35 201.129 258.561 201.129 267.921C201.132 272.417 202.92 276.728 206.1 279.907C209.281 283.085 213.593 284.87 218.089 284.87C222.585 284.87 226.897 283.085 230.077 279.907C233.257 276.728 235.046 272.417 235.048 267.921V267.921Z" fill="#F2F2F2"/>
<path d="M218.089 305.476C218.037 305.476 217.988 305.456 217.952 305.419C217.915 305.383 217.895 305.334 217.895 305.282V265.692C217.895 265.666 217.9 265.641 217.909 265.617C217.919 265.594 217.933 265.572 217.951 265.554C217.969 265.536 217.991 265.522 218.014 265.512C218.038 265.502 218.063 265.497 218.089 265.497C218.114 265.497 218.14 265.502 218.163 265.512C218.187 265.522 218.208 265.536 218.226 265.554C218.244 265.572 218.259 265.594 218.268 265.617C218.278 265.641 218.283 265.666 218.283 265.692V305.282C218.283 305.334 218.262 305.383 218.226 305.419C218.19 305.456 218.14 305.476 218.089 305.476V305.476Z" fill="#CCCCCC"/>
<path d="M218.089 273.089C218.061 273.089 218.034 273.083 218.008 273.071C217.983 273.06 217.96 273.043 217.942 273.022L208.188 261.773C208.155 261.734 208.138 261.684 208.142 261.633C208.146 261.582 208.17 261.534 208.209 261.501C208.247 261.467 208.298 261.45 208.349 261.454C208.4 261.457 208.448 261.481 208.482 261.519L218.235 272.768C218.26 272.796 218.275 272.83 218.281 272.867C218.286 272.904 218.281 272.941 218.265 272.975C218.25 273.009 218.225 273.038 218.194 273.058C218.162 273.078 218.126 273.089 218.089 273.089V273.089Z" fill="#CCCCCC"/>
<path d="M218.089 279.58C218.05 279.58 218.013 279.569 217.981 279.548C217.949 279.526 217.924 279.496 217.91 279.461C217.895 279.425 217.891 279.386 217.899 279.348C217.906 279.311 217.925 279.276 217.952 279.249L223.494 273.707C223.53 273.671 223.58 273.65 223.631 273.65C223.682 273.65 223.732 273.671 223.768 273.707C223.804 273.743 223.825 273.793 223.825 273.844C223.825 273.895 223.805 273.945 223.768 273.981L218.226 279.523C218.208 279.541 218.187 279.556 218.163 279.566C218.139 279.575 218.114 279.58 218.089 279.58V279.58Z" fill="#CCCCCC"/>
<path d="M73.2902 84.2432C73.2902 74.8831 65.6972 52.672 56.3308 52.672C46.9643 52.672 39.3713 74.8831 39.3713 84.2432C39.374 88.7394 41.162 93.0504 44.3423 96.2287C47.5225 99.407 51.8346 101.192 56.3308 101.192C60.8269 101.192 65.139 99.407 68.3193 96.2287C71.4995 93.0504 73.2875 88.7394 73.2902 84.2432V84.2432Z" fill="#3F3D56"/>
<path d="M56.3308 121.798C56.2793 121.798 56.23 121.778 56.1936 121.742C56.1572 121.705 56.1368 121.656 56.1368 121.604V82.0139C56.1371 81.9626 56.1577 81.9136 56.194 81.8775C56.2303 81.8413 56.2795 81.821 56.3308 81.821C56.382 81.821 56.4312 81.8413 56.4675 81.8775C56.5038 81.9136 56.5244 81.9626 56.5247 82.0139V121.604C56.5247 121.63 56.5197 121.655 56.5099 121.679C56.5002 121.702 56.4859 121.723 56.4679 121.742C56.4499 121.76 56.4285 121.774 56.405 121.784C56.3814 121.793 56.3562 121.798 56.3308 121.798Z" fill="#CCCCCC"/>
<path d="M56.3309 89.4108C56.3031 89.4108 56.2756 89.4049 56.2502 89.3933C56.2249 89.3818 56.2024 89.3649 56.1842 89.3439L46.4304 78.0955C46.3969 78.0566 46.3802 78.0061 46.3839 77.9548C46.3876 77.9036 46.4115 77.856 46.4503 77.8223C46.4891 77.7887 46.5396 77.7718 46.5908 77.7754C46.6421 77.7789 46.6898 77.8027 46.7235 77.8414L56.4773 89.0898C56.5016 89.1179 56.5174 89.1523 56.5227 89.1891C56.528 89.2259 56.5226 89.2635 56.5072 89.2973C56.4918 89.3311 56.4669 89.3598 56.4357 89.3799C56.4044 89.4 56.368 89.4108 56.3309 89.4108V89.4108Z" fill="#CCCCCC"/>
<path d="M56.3308 95.9024C56.2924 95.9024 56.2549 95.891 56.223 95.8697C56.1911 95.8484 56.1663 95.8181 56.1516 95.7827C56.1369 95.7472 56.1331 95.7082 56.1406 95.6706C56.148 95.633 56.1665 95.5984 56.1936 95.5713L61.7359 90.0289C61.7539 90.0109 61.7753 89.9967 61.7988 89.9869C61.8223 89.9772 61.8476 89.9722 61.873 89.9722C61.8985 89.9722 61.9237 89.9772 61.9472 89.9869C61.9708 89.9967 61.9921 90.011 62.0101 90.029C62.0281 90.047 62.0424 90.0683 62.0522 90.0919C62.0619 90.1154 62.0669 90.1406 62.0669 90.1661C62.0669 90.1916 62.0619 90.2168 62.0522 90.2403C62.0424 90.2638 62.0281 90.2852 62.0101 90.3032L56.4679 95.8456C56.4499 95.8636 56.4285 95.8779 56.405 95.8877C56.3815 95.8974 56.3562 95.9024 56.3308 95.9024Z" fill="#CCCCCC"/>
<path d="M37.962 121.541C37.962 119.664 38.7079 117.863 40.0357 116.535C41.3635 115.207 43.1644 114.461 45.0421 114.461C46.9199 114.461 48.7208 115.207 50.0486 116.535C51.3764 117.863 52.1223 119.664 52.1223 121.541" fill="#F2F2F2"/>
<path d="M45.0421 121.541C44.9914 121.541 44.9427 121.521 44.9068 121.485C44.871 121.449 44.8508 121.401 44.8508 121.35V117.619C44.8508 117.568 44.8709 117.519 44.9068 117.483C44.9427 117.447 44.9914 117.427 45.0421 117.427C45.0929 117.427 45.1416 117.447 45.1774 117.483C45.2133 117.519 45.2335 117.568 45.2335 117.619V121.35C45.2335 121.401 45.2133 121.449 45.1774 121.485C45.1416 121.521 45.0929 121.541 45.0421 121.541Z" fill="#CCCCCC"/>
<path d="M45.042 120.259C44.9963 120.259 44.9521 120.243 44.9175 120.213L42.6213 118.242C42.6022 118.226 42.5865 118.206 42.5752 118.183C42.5638 118.161 42.557 118.137 42.5551 118.112C42.5532 118.086 42.5562 118.061 42.564 118.037C42.5719 118.014 42.5843 117.991 42.6007 117.972C42.617 117.953 42.637 117.938 42.6594 117.926C42.6818 117.915 42.7063 117.908 42.7313 117.906C42.7564 117.904 42.7816 117.907 42.8055 117.915C42.8293 117.923 42.8514 117.935 42.8705 117.952L45.1668 119.923C45.1964 119.948 45.2176 119.982 45.2274 120.02C45.2372 120.058 45.2351 120.098 45.2216 120.134C45.208 120.171 45.1835 120.203 45.1514 120.225C45.1193 120.247 45.0811 120.259 45.042 120.259H45.042Z" fill="#CCCCCC"/>
<path d="M59.7765 121.541C59.7765 119.664 60.5225 117.863 61.8503 116.535C63.178 115.207 64.9789 114.461 66.8567 114.461C68.7345 114.461 70.5353 115.207 71.8631 116.535C73.1909 117.863 73.9368 119.664 73.9368 121.541" fill="#F2F2F2"/>
<path d="M66.8567 121.541C66.8059 121.541 66.7572 121.521 66.7214 121.485C66.6855 121.449 66.6653 121.401 66.6653 121.35V117.619C66.6653 117.568 66.6855 117.519 66.7214 117.483C66.7572 117.447 66.8059 117.427 66.8567 117.427C66.9074 117.427 66.9561 117.447 66.992 117.483C67.0279 117.519 67.048 117.568 67.048 117.619V121.35C67.048 121.401 67.0278 121.449 66.992 121.485C66.9561 121.521 66.9074 121.541 66.8567 121.541V121.541Z" fill="#CCCCCC"/>
<path d="M66.8566 120.259C66.8109 120.259 66.7666 120.243 66.732 120.213L64.4358 118.242C64.3976 118.209 64.374 118.162 64.3703 118.112C64.3666 118.061 64.383 118.011 64.4159 117.973C64.4489 117.935 64.4957 117.911 64.5461 117.907C64.5965 117.903 64.6465 117.919 64.685 117.952L66.9813 119.923C67.011 119.948 67.0321 119.982 67.0419 120.02C67.0517 120.058 67.0497 120.098 67.0361 120.134C67.0225 120.171 66.998 120.203 66.9659 120.225C66.9338 120.247 66.8957 120.259 66.8566 120.259V120.259Z" fill="#CCCCCC"/>
<path d="M429.594 267.395C429.594 258.035 422.001 235.823 412.634 235.823C403.268 235.823 395.675 258.035 395.675 267.395C395.678 271.891 397.466 276.202 400.646 279.38C403.826 282.558 408.138 284.344 412.634 284.344C417.13 284.344 421.443 282.558 424.623 279.38C427.803 276.202 429.591 271.891 429.594 267.395V267.395Z" fill="#112F91"/>
<path d="M412.634 304.95C412.583 304.95 412.534 304.929 412.497 304.893C412.461 304.857 412.44 304.807 412.44 304.756V265.165C412.44 265.14 412.445 265.115 412.455 265.091C412.465 265.067 412.479 265.046 412.497 265.028C412.515 265.01 412.536 264.995 412.56 264.985C412.583 264.975 412.609 264.97 412.634 264.97C412.66 264.97 412.685 264.975 412.709 264.985C412.732 264.995 412.754 265.01 412.772 265.028C412.79 265.046 412.804 265.067 412.814 265.091C412.824 265.115 412.828 265.14 412.828 265.165V304.756C412.828 304.807 412.808 304.857 412.771 304.893C412.735 304.929 412.686 304.95 412.634 304.95V304.95Z" fill="#CCCCCC"/>
<path d="M412.634 272.562C412.607 272.562 412.579 272.557 412.554 272.545C412.529 272.533 412.506 272.517 412.488 272.496L402.734 261.247C402.701 261.208 402.684 261.158 402.688 261.107C402.692 261.056 402.715 261.008 402.754 260.974C402.793 260.941 402.843 260.924 402.894 260.927C402.946 260.931 402.993 260.955 403.027 260.993L412.781 272.241C412.805 272.27 412.821 272.304 412.826 272.341C412.832 272.378 412.826 272.415 412.811 272.449C412.795 272.483 412.771 272.511 412.739 272.532C412.708 272.552 412.672 272.562 412.634 272.562V272.562Z" fill="#CCCCCC"/>
<path d="M412.634 279.054C412.596 279.054 412.558 279.043 412.527 279.021C412.495 279 412.47 278.97 412.455 278.934C412.441 278.899 412.437 278.86 412.444 278.822C412.452 278.785 412.47 278.75 412.497 278.723L418.04 273.181C418.058 273.163 418.079 273.148 418.102 273.139C418.126 273.129 418.151 273.124 418.177 273.124C418.202 273.124 418.227 273.129 418.251 273.139C418.274 273.148 418.296 273.163 418.314 273.181C418.332 273.199 418.346 273.22 418.356 273.243C418.366 273.267 418.371 273.292 418.371 273.318C418.371 273.343 418.366 273.368 418.356 273.392C418.346 273.415 418.332 273.437 418.314 273.455L412.771 278.997C412.753 279.015 412.732 279.03 412.709 279.039C412.685 279.049 412.66 279.054 412.634 279.054V279.054Z" fill="#CCCCCC"/>
<path d="M163.375 270.362H160.089C159.844 270.362 159.609 270.265 159.435 270.091C159.262 269.918 159.165 269.683 159.164 269.438V265.124C159.165 264.879 159.262 264.644 159.435 264.471C159.609 264.297 159.844 264.2 160.089 264.2H163.375C163.621 264.2 163.855 264.297 164.029 264.471C164.202 264.644 164.3 264.879 164.3 265.124V269.438C164.3 269.683 164.202 269.918 164.029 270.091C163.855 270.265 163.621 270.362 163.375 270.362V270.362Z" fill="#3F3D56"/>
<path d="M191.107 305.489H174.263C173.8 305.489 173.356 305.305 173.029 304.977C172.701 304.65 172.517 304.206 172.517 303.743V271.081C172.517 270.618 172.701 270.175 173.029 269.847C173.356 269.52 173.8 269.336 174.263 269.335H191.107C191.57 269.336 192.014 269.52 192.341 269.847C192.669 270.175 192.853 270.618 192.853 271.081V303.743C192.853 304.206 192.669 304.65 192.341 304.977C192.014 305.305 191.57 305.489 191.107 305.489Z" fill="#3F3D56"/>
<path d="M181.042 305.489H151.872C151.409 305.489 150.965 305.305 150.638 304.977C150.31 304.65 150.126 304.206 150.126 303.743V271.081C150.126 270.618 150.31 270.175 150.638 269.847C150.965 269.52 151.409 269.336 151.872 269.335H181.042C181.505 269.336 181.948 269.52 182.276 269.847C182.603 270.175 182.787 270.618 182.788 271.081V303.743C182.787 304.206 182.603 304.65 182.276 304.977C181.948 305.305 181.505 305.489 181.042 305.489Z" fill="#112F91"/>
<path d="M160.294 270.362H157.007C156.762 270.362 156.527 270.265 156.354 270.091C156.181 269.918 156.083 269.683 156.083 269.438V265.124C156.083 264.879 156.181 264.644 156.354 264.471C156.527 264.297 156.762 264.2 157.007 264.2H160.294C160.539 264.2 160.774 264.297 160.947 264.471C161.121 264.644 161.218 264.879 161.219 265.124V269.438C161.218 269.683 161.121 269.918 160.947 270.091C160.774 270.265 160.539 270.362 160.294 270.362V270.362Z" fill="#112F91"/>
<path d="M164.608 285.461H160.705C160.569 285.46 160.438 285.406 160.342 285.31C160.246 285.214 160.192 285.083 160.191 284.947V278.99C160.192 278.854 160.246 278.723 160.342 278.627C160.438 278.531 160.569 278.476 160.705 278.476H164.608C164.744 278.476 164.875 278.531 164.971 278.627C165.067 278.723 165.121 278.854 165.122 278.99V284.947C165.121 285.083 165.067 285.214 164.971 285.31C164.875 285.406 164.744 285.46 164.608 285.461V285.461Z" fill="white"/>
<path d="M172.209 285.461H168.306C168.169 285.46 168.039 285.406 167.943 285.31C167.846 285.214 167.792 285.083 167.792 284.947V278.99C167.792 278.854 167.846 278.723 167.943 278.627C168.039 278.531 168.169 278.476 168.306 278.476H172.209C172.345 278.476 172.475 278.531 172.571 278.627C172.668 278.723 172.722 278.854 172.722 278.99V284.947C172.722 285.083 172.668 285.214 172.571 285.31C172.475 285.406 172.345 285.46 172.209 285.461V285.461Z" fill="white"/>
<path d="M164.608 296.348H160.705C160.569 296.348 160.438 296.294 160.342 296.197C160.246 296.101 160.192 295.971 160.191 295.835V289.877C160.192 289.741 160.246 289.611 160.342 289.514C160.438 289.418 160.569 289.364 160.705 289.364H164.608C164.744 289.364 164.875 289.418 164.971 289.514C165.067 289.611 165.121 289.741 165.122 289.877V295.835C165.121 295.971 165.067 296.101 164.971 296.197C164.875 296.294 164.744 296.348 164.608 296.348V296.348Z" fill="white"/>
<path d="M172.209 296.348H168.306C168.169 296.348 168.039 296.294 167.943 296.197C167.846 296.101 167.792 295.971 167.792 295.835V289.877C167.792 289.741 167.846 289.611 167.943 289.514C168.039 289.418 168.169 289.364 168.306 289.364H172.209C172.345 289.364 172.475 289.418 172.571 289.514C172.668 289.611 172.722 289.741 172.722 289.877V295.835C172.722 295.971 172.668 296.101 172.571 296.197C172.475 296.294 172.345 296.348 172.209 296.348V296.348Z" fill="white"/>
<path d="M46.4578 167.98H42.5813C42.2922 167.98 42.0151 167.865 41.8107 167.66C41.6063 167.456 41.4913 167.179 41.491 166.89V157.925C41.4913 157.636 41.6063 157.359 41.8107 157.155C42.0151 156.95 42.2922 156.835 42.5813 156.835H46.4578C46.7469 156.835 47.024 156.95 47.2284 157.155C47.4328 157.359 47.5478 157.636 47.5481 157.925V166.89C47.5478 167.179 47.4328 167.456 47.2284 167.66C47.024 167.865 46.7469 167.98 46.4578 167.98V167.98Z" fill="#3F3D56"/>
<path d="M61.7218 251.569H41.8544C41.3084 251.568 40.785 251.351 40.3989 250.965C40.0128 250.579 39.7956 250.055 39.795 249.509V169.313C39.7956 168.767 40.0128 168.243 40.3989 167.857C40.785 167.471 41.3084 167.254 41.8544 167.253H61.7218C62.2678 167.254 62.7913 167.471 63.1774 167.857C63.5635 168.243 63.7806 168.767 63.7813 169.313V249.509C63.7806 250.055 63.5635 250.579 63.1774 250.965C62.7913 251.351 62.2678 251.568 61.7218 251.569V251.569Z" fill="#3F3D56"/>
<path d="M49.8499 251.569H29.9824C29.4364 251.568 28.913 251.351 28.5269 250.965C28.1408 250.579 27.9236 250.055 27.923 249.509V169.313C27.9236 168.767 28.1408 168.243 28.5269 167.857C28.913 167.471 29.4364 167.254 29.9824 167.253H49.8499C50.3959 167.254 50.9193 167.471 51.3054 167.857C51.6915 168.243 51.9087 168.767 51.9093 169.313V249.509C51.9087 250.055 51.6915 250.579 51.3054 250.965C50.9193 251.351 50.3959 251.568 49.8499 251.569V251.569Z" fill="#112F91"/>
<path d="M42.8236 167.98H38.947C38.6579 167.98 38.3808 167.865 38.1764 167.66C37.972 167.456 37.857 167.179 37.8567 166.89V157.925C37.857 157.636 37.972 157.359 38.1764 157.155C38.3808 156.95 38.6579 156.835 38.947 156.835H42.8236C43.1126 156.835 43.3898 156.95 43.5942 157.155C43.7986 157.359 43.9135 157.636 43.9138 157.925V166.89C43.9135 167.179 43.7986 167.456 43.5942 167.66C43.3898 167.865 43.1126 167.98 42.8236 167.98Z" fill="#112F91"/>
<path d="M37.7356 185.425H33.1322C32.9716 185.425 32.8176 185.361 32.704 185.247C32.5905 185.134 32.5266 184.98 32.5264 184.819V177.793C32.5266 177.632 32.5905 177.478 32.704 177.365C32.8176 177.251 32.9716 177.187 33.1322 177.187H37.7356C37.8962 177.187 38.0501 177.251 38.1637 177.365C38.2772 177.478 38.3411 177.632 38.3413 177.793V184.819C38.3411 184.98 38.2772 185.134 38.1637 185.247C38.0501 185.361 37.8962 185.425 37.7356 185.425V185.425Z" fill="white"/>
<path d="M46.7001 185.425H42.0967C41.9361 185.425 41.7822 185.361 41.6686 185.247C41.5551 185.134 41.4912 184.98 41.491 184.819V177.793C41.4912 177.632 41.555 177.478 41.6686 177.365C41.7822 177.251 41.9361 177.187 42.0967 177.187H46.7001C46.8607 177.187 47.0147 177.251 47.1282 177.365C47.2418 177.478 47.3057 177.632 47.3058 177.793V184.819C47.3057 184.98 47.2418 185.134 47.1282 185.247C47.0147 185.361 46.8607 185.425 46.7001 185.425V185.425Z" fill="white"/>
<path d="M37.7356 198.266H33.1322C32.9716 198.266 32.8176 198.202 32.704 198.088C32.5905 197.975 32.5266 197.821 32.5264 197.66V190.634C32.5266 190.473 32.5905 190.319 32.704 190.206C32.8176 190.092 32.9716 190.028 33.1322 190.028H37.7356C37.8962 190.028 38.0501 190.092 38.1637 190.206C38.2772 190.319 38.3411 190.473 38.3413 190.634V197.66C38.3411 197.821 38.2772 197.975 38.1637 198.088C38.0501 198.202 37.8962 198.266 37.7356 198.266V198.266Z" fill="white"/>
<path d="M46.7001 198.266H42.0967C41.9361 198.266 41.7822 198.202 41.6686 198.088C41.5551 197.975 41.4912 197.821 41.491 197.66V190.634C41.4912 190.473 41.555 190.319 41.6686 190.206C41.7822 190.092 41.9361 190.028 42.0967 190.028H46.7001C46.8607 190.028 47.0147 190.092 47.1282 190.206C47.2418 190.319 47.3057 190.473 47.3058 190.634V197.66C47.3057 197.821 47.2418 197.975 47.1282 198.088C47.0147 198.202 46.8607 198.266 46.7001 198.266V198.266Z" fill="white"/>
<path d="M37.7356 211.107H33.1322C32.9716 211.107 32.8176 211.043 32.704 210.929C32.5905 210.816 32.5266 210.662 32.5264 210.501V203.475C32.5266 203.314 32.5905 203.16 32.704 203.047C32.8176 202.933 32.9716 202.869 33.1322 202.869H37.7356C37.8962 202.869 38.0501 202.933 38.1637 203.047C38.2772 203.16 38.3411 203.314 38.3413 203.475V210.501C38.3411 210.662 38.2772 210.816 38.1637 210.929C38.0501 211.043 37.8962 211.107 37.7356 211.107V211.107Z" fill="white"/>
<path d="M46.7001 211.107H42.0967C41.9361 211.107 41.7822 211.043 41.6686 210.929C41.555 210.816 41.4912 210.662 41.491 210.501V203.475C41.4912 203.314 41.5551 203.16 41.6686 203.047C41.7822 202.933 41.9361 202.869 42.0967 202.869H46.7001C46.8607 202.869 47.0147 202.933 47.1282 203.047C47.2418 203.16 47.3057 203.314 47.3058 203.475V210.501C47.3057 210.662 47.2418 210.816 47.1282 210.929C47.0147 211.043 46.8607 211.107 46.7001 211.107Z" fill="white"/>
<path d="M37.7356 223.948H33.1322C32.9716 223.948 32.8176 223.884 32.704 223.77C32.5905 223.657 32.5266 223.503 32.5264 223.342V216.316C32.5266 216.155 32.5905 216.001 32.704 215.888C32.8176 215.774 32.9716 215.71 33.1322 215.71H37.7356C37.8962 215.71 38.0501 215.774 38.1637 215.888C38.2772 216.001 38.3411 216.155 38.3413 216.316V223.342C38.3411 223.503 38.2772 223.657 38.1637 223.77C38.0501 223.884 37.8962 223.948 37.7356 223.948V223.948Z" fill="white"/>
<path d="M46.7001 223.948H42.0967C41.9361 223.948 41.7822 223.884 41.6686 223.77C41.555 223.657 41.4912 223.503 41.491 223.342V216.316C41.4912 216.155 41.5551 216.001 41.6686 215.888C41.7822 215.774 41.9361 215.71 42.0967 215.71H46.7001C46.8607 215.71 47.0147 215.774 47.1282 215.888C47.2418 216.001 47.3057 216.155 47.3058 216.316V223.342C47.3057 223.503 47.2418 223.657 47.1282 223.77C47.0147 223.884 46.8607 223.948 46.7001 223.948Z" fill="white"/>
<path d="M37.7356 236.789H33.1322C32.9716 236.789 32.8176 236.725 32.704 236.612C32.5905 236.498 32.5266 236.344 32.5264 236.183V229.157C32.5266 228.997 32.5905 228.843 32.704 228.729C32.8176 228.616 32.9716 228.552 33.1322 228.552H37.7356C37.8962 228.552 38.0501 228.616 38.1637 228.729C38.2772 228.843 38.3411 228.997 38.3413 229.157V236.183C38.3411 236.344 38.2772 236.498 38.1637 236.612C38.0501 236.725 37.8962 236.789 37.7356 236.789Z" fill="white"/>
<path d="M46.7001 236.789H42.0967C41.9361 236.789 41.7822 236.725 41.6686 236.612C41.5551 236.498 41.4912 236.344 41.491 236.183V229.157C41.4912 228.997 41.5551 228.843 41.6686 228.729C41.7822 228.616 41.9361 228.552 42.0967 228.552H46.7001C46.8607 228.552 47.0147 228.616 47.1282 228.729C47.2418 228.843 47.3057 228.997 47.3058 229.157V236.183C47.3057 236.344 47.2418 236.498 47.1282 236.612C47.0147 236.725 46.8607 236.789 46.7001 236.789Z" fill="white"/>
<path d="M354.788 270.472H351.501C351.256 270.472 351.021 270.375 350.848 270.201C350.675 270.028 350.577 269.793 350.577 269.548V265.234C350.577 264.989 350.675 264.754 350.848 264.581C351.021 264.408 351.256 264.31 351.501 264.31H354.788C355.033 264.31 355.268 264.408 355.441 264.581C355.615 264.754 355.712 264.989 355.712 265.234V269.548C355.712 269.793 355.615 270.028 355.441 270.201C355.268 270.375 355.033 270.472 354.788 270.472V270.472Z" fill="#3F3D56"/>
<path d="M382.52 305.599H365.675C365.212 305.599 364.769 305.415 364.441 305.087C364.114 304.76 363.93 304.316 363.929 303.853V271.191C363.93 270.728 364.114 270.285 364.441 269.957C364.769 269.63 365.212 269.446 365.675 269.445H382.52C382.983 269.446 383.426 269.63 383.754 269.957C384.081 270.285 384.265 270.728 384.266 271.191V303.853C384.265 304.316 384.081 304.76 383.754 305.087C383.426 305.415 382.983 305.599 382.52 305.599V305.599Z" fill="#3F3D56"/>
<path d="M372.454 305.599H343.284C342.821 305.599 342.378 305.415 342.05 305.087C341.723 304.76 341.539 304.316 341.538 303.853V271.191C341.539 270.728 341.723 270.285 342.05 269.957C342.378 269.63 342.821 269.446 343.284 269.445H372.454C372.917 269.446 373.361 269.63 373.688 269.957C374.016 270.285 374.2 270.728 374.2 271.191V303.853C374.2 304.316 374.016 304.76 373.688 305.087C373.361 305.415 372.917 305.599 372.454 305.599V305.599Z" fill="#112F91"/>
<path d="M351.707 270.472H348.42C348.175 270.472 347.94 270.375 347.767 270.201C347.593 270.028 347.496 269.793 347.496 269.548V265.234C347.496 264.989 347.593 264.754 347.767 264.581C347.94 264.408 348.175 264.31 348.42 264.31H351.707C351.952 264.31 352.187 264.408 352.36 264.581C352.533 264.754 352.631 264.989 352.631 265.234V269.548C352.631 269.793 352.533 270.028 352.36 270.201C352.187 270.375 351.952 270.472 351.707 270.472V270.472Z" fill="#112F91"/>
<path d="M356.021 285.571H352.118C351.981 285.571 351.851 285.517 351.755 285.42C351.658 285.324 351.604 285.194 351.604 285.057V279.1C351.604 278.964 351.658 278.834 351.755 278.737C351.851 278.641 351.981 278.587 352.118 278.587H356.021C356.157 278.587 356.287 278.641 356.383 278.737C356.48 278.834 356.534 278.964 356.534 279.1V285.057C356.534 285.194 356.48 285.324 356.383 285.42C356.287 285.517 356.157 285.571 356.021 285.571V285.571Z" fill="white"/>
<path d="M363.621 285.571H359.718C359.582 285.571 359.451 285.517 359.355 285.42C359.259 285.324 359.205 285.194 359.205 285.057V279.1C359.205 278.964 359.259 278.834 359.355 278.737C359.451 278.641 359.582 278.587 359.718 278.587H363.621C363.757 278.587 363.888 278.641 363.984 278.737C364.08 278.834 364.134 278.964 364.135 279.1V285.057C364.134 285.194 364.08 285.324 363.984 285.42C363.888 285.517 363.757 285.571 363.621 285.571Z" fill="white"/>
<path d="M356.021 296.458H352.118C351.981 296.458 351.851 296.404 351.755 296.308C351.658 296.211 351.604 296.081 351.604 295.945V289.987C351.604 289.851 351.658 289.721 351.755 289.624C351.851 289.528 351.981 289.474 352.118 289.474H356.021C356.157 289.474 356.287 289.528 356.383 289.624C356.48 289.721 356.534 289.851 356.534 289.987V295.945C356.534 296.081 356.48 296.211 356.383 296.308C356.287 296.404 356.157 296.458 356.021 296.458V296.458Z" fill="white"/>
<path d="M363.621 296.458H359.718C359.582 296.458 359.451 296.404 359.355 296.308C359.259 296.211 359.205 296.081 359.205 295.945V289.987C359.205 289.851 359.259 289.721 359.355 289.624C359.451 289.528 359.582 289.474 359.718 289.474H363.621C363.757 289.474 363.888 289.528 363.984 289.624C364.08 289.721 364.134 289.851 364.135 289.987V295.945C364.134 296.081 364.08 296.211 363.984 296.308C363.888 296.404 363.757 296.458 363.621 296.458V296.458Z" fill="white"/>
</g>
<defs>
<clipPath id="clip0_26_2">
<rect width="459" height="370.793" fill="white"/>
</clipPath>
</defs>
</svg>
