<svg width="152" height="152" viewBox="0 0 152 152" fill="none" xmlns="http://www.w3.org/2000/svg">
<path d="M114 34.2C114 31.1765 112.799 28.2769 110.661 26.139C108.523 24.0011 105.623 22.8 102.6 22.8H49.4C46.3765 22.8 43.4769 24.0011 41.339 26.139C39.2011 28.2769 38 31.1765 38 34.2V38H34.2C29.1609 38 24.3282 40.0018 20.765 43.565C17.2018 47.1282 15.2 51.9609 15.2 57V95C15.2 98.0235 16.4011 100.923 18.539 103.061C20.6769 105.199 23.5765 106.4 26.6 106.4H38V117.8C38 120.823 39.2011 123.723 41.339 125.861C43.4769 127.999 46.3765 129.2 49.4 129.2H102.6C105.623 129.2 108.523 127.999 110.661 125.861C112.799 123.723 114 120.823 114 117.8V106.4H125.4C128.423 106.4 131.323 105.199 133.461 103.061C135.599 100.923 136.8 98.0235 136.8 95V57C136.8 51.9609 134.798 47.1282 131.235 43.565C127.672 40.0018 122.839 38 117.8 38H114V34.2ZM106.4 38H45.6V34.2C45.6 33.1922 46.0004 32.2256 46.713 31.513C47.4256 30.8003 48.3922 30.4 49.4 30.4H102.6C103.608 30.4 104.574 30.8003 105.287 31.513C106 32.2256 106.4 33.1922 106.4 34.2V38ZM114 98.8V87.4C114 84.3765 112.799 81.4769 110.661 79.339C108.523 77.2011 105.623 76 102.6 76H49.4C46.3765 76 43.4769 77.2011 41.339 79.339C39.2011 81.4769 38 84.3765 38 87.4V98.8H26.6C25.5922 98.8 24.6256 98.3996 23.913 97.687C23.2003 96.9744 22.8 96.0078 22.8 95V57C22.8 53.9765 24.0011 51.0769 26.139 48.939C28.2769 46.8011 31.1765 45.6 34.2 45.6H117.8C120.823 45.6 123.723 46.8011 125.861 48.939C127.999 51.0769 129.2 53.9765 129.2 57V95C129.2 96.0078 128.8 96.9744 128.087 97.687C127.374 98.3996 126.408 98.8 125.4 98.8H114ZM102.6 83.6C103.608 83.6 104.574 84.0003 105.287 84.713C106 85.4256 106.4 86.3922 106.4 87.4V117.8C106.4 118.808 106 119.774 105.287 120.487C104.574 121.2 103.608 121.6 102.6 121.6H49.4C48.3922 121.6 47.4256 121.2 46.713 120.487C46.0004 119.774 45.6 118.808 45.6 117.8V87.4C45.6 86.3922 46.0004 85.4256 46.713 84.713C47.4256 84.0003 48.3922 83.6 49.4 83.6H102.6Z" fill="url(#paint0_linear_2_603)"/>
<defs>
<linearGradient id="paint0_linear_2_603" x1="76" y1="22.8" x2="76" y2="129.2" gradientUnits="userSpaceOnUse">
<stop stop-color="#4862B9"/>
<stop offset="1" stop-color="#112F91"/>
</linearGradient>
</defs>
</svg>
