<svg width="94" height="95" viewBox="0 0 94 95" fill="none" xmlns="http://www.w3.org/2000/svg">
<path d="M0.0508804 52.043C0.0104697 51.8503 -0.00597408 51.6534 0.00192261 51.4567V28.0047C0.00192261 20.7482 2.8904 13.7889 8.03192 8.65779C13.1734 3.52668 20.1468 0.644043 27.418 0.644043H66.5839C73.8551 0.644043 80.8285 3.52668 85.97 8.65779C91.1115 13.7889 94 20.7482 94 28.0047V67.0914C94 74.3479 91.1115 81.3072 85.97 86.4383C80.8285 91.5694 73.8551 94.452 66.5839 94.452H42.399L41.8604 94.3054C28.9847 90.0059 4.50599 65.5768 0.197746 52.727L0.0508804 52.1896V52.043ZM86.1668 67.0914V28.0047C86.1668 22.8215 84.1036 17.8506 80.4311 14.1855C76.7586 10.5204 71.7776 8.46138 66.5839 8.46138H27.418C22.2243 8.46138 17.2433 10.5204 13.5708 14.1855C9.89829 17.8506 7.83509 22.8215 7.83509 28.0047V47.548H19.5849C26.8561 47.548 33.8294 50.4307 38.971 55.5618C44.1125 60.6929 47.001 67.6522 47.001 74.9087V86.6347H66.5839C71.7776 86.6347 76.7586 84.5757 80.4311 80.9106C84.1036 77.2455 86.1668 72.2746 86.1668 67.0914ZM39.1678 84.2406V74.9087C39.1678 69.7255 37.1046 64.7546 33.4321 61.0895C29.7596 57.4244 24.7786 55.3654 19.5849 55.3654H10.234C16.1578 64.8927 29.6211 78.3288 39.1678 84.2406Z" fill="url(#paint0_linear_2_614)"/>
<defs>
<linearGradient id="paint0_linear_2_614" x1="47" y1="0.644043" x2="47" y2="94.452" gradientUnits="userSpaceOnUse">
<stop stop-color="#112F91"/>
<stop offset="1" stop-color="#3A4C89"/>
</linearGradient>
</defs>
</svg>
