<svg width="36" height="36" viewBox="0 0 36 36" fill="none" xmlns="http://www.w3.org/2000/svg">
<path d="M18 31.5C25.4558 31.5 31.5 25.4558 31.5 18C31.5 10.5442 25.4558 4.5 18 4.5C10.5442 4.5 4.5 10.5442 4.5 18C4.5 25.4558 10.5442 31.5 18 31.5Z" stroke="black" stroke-width="1.5" stroke-linecap="round" stroke-linejoin="round"/>
<path d="M18 22.5C21.1066 22.5 23.625 19.9816 23.625 16.875C23.625 13.7684 21.1066 11.25 18 11.25C14.8934 11.25 12.375 13.7684 12.375 16.875C12.375 19.9816 14.8934 22.5 18 22.5Z" stroke="black" stroke-width="1.5" stroke-linecap="round" stroke-linejoin="round"/>
<path d="M8.97192 28.0406C9.81836 26.3734 11.1099 24.9731 12.7035 23.995C14.297 23.0169 16.1303 22.4991 18 22.4991C19.8698 22.4991 21.7031 23.0169 23.2966 23.995C24.8902 24.9731 26.1817 26.3734 27.0282 28.0406" stroke="black" stroke-width="1.5" stroke-linecap="round" stroke-linejoin="round"/>
</svg>
