<svg width="40" height="40" viewBox="0 0 40 40" fill="none" xmlns="http://www.w3.org/2000/svg">
<g clip-path="url(#clip0_26_183)">
<path fill-rule="evenodd" clip-rule="evenodd" d="M29.2166 23.9701C28.7199 23.7217 26.2849 22.5251 25.8316 22.3584C25.3782 22.1934 25.0482 22.1117 24.7166 22.6084C24.3866 23.1017 23.4382 24.2184 23.1499 24.5484C22.8599 24.8801 22.5716 24.9201 22.0766 24.6734C21.5816 24.4234 19.9849 23.9017 18.0932 22.2151C16.6216 20.9017 15.6266 19.2801 15.3382 18.7834C15.0499 18.2884 15.3066 18.0201 15.5549 17.7734C15.7782 17.5517 16.0499 17.1951 16.2982 16.9067C16.5466 16.6167 16.6282 16.4101 16.7932 16.0784C16.9599 15.7484 16.8766 15.4601 16.7516 15.2117C16.6282 14.9634 15.6382 12.5251 15.2249 11.5334C14.8232 10.5684 14.4149 10.7001 14.1116 10.6834C13.8216 10.6701 13.4916 10.6667 13.1616 10.6667C12.8316 10.6667 12.2949 10.7901 11.8416 11.2867C11.3866 11.7817 10.1082 12.9801 10.1082 15.4184C10.1082 17.8551 11.8816 20.2101 12.1299 20.5417C12.3782 20.8717 15.6216 25.8751 20.5899 28.0201C21.7732 28.5301 22.6949 28.8351 23.4132 29.0617C24.5999 29.4401 25.6799 29.3867 26.5332 29.2584C27.4832 29.1167 29.4632 28.0601 29.8766 26.9034C30.2882 25.7467 30.2882 24.7551 30.1649 24.5484C30.0416 24.3417 29.7116 24.2184 29.2149 23.9701H29.2166ZM20.1799 36.3084H20.1732C17.2223 36.3089 14.3255 35.5157 11.7866 34.0117L11.1866 33.6551L4.94991 35.2917L6.61491 29.2117L6.22324 28.5884C4.57347 25.9623 3.7004 22.923 3.70491 19.8217C3.70824 10.7384 11.0982 3.3484 20.1866 3.3484C24.5866 3.3484 28.7232 5.06507 31.8332 8.1784C33.3672 9.70604 34.583 11.5227 35.4104 13.5232C36.2377 15.5238 36.6601 17.6685 36.6532 19.8334C36.6499 28.9167 29.2599 36.3084 20.1799 36.3084V36.3084ZM34.1999 5.8134C32.3636 3.96494 30.1786 2.4993 27.7717 1.5014C25.3648 0.503508 22.7838 -0.00679375 20.1782 6.82959e-05C9.25491 6.82959e-05 0.361574 8.89173 0.358241 19.8201C0.353179 23.298 1.26553 26.7157 3.00324 29.7284L0.191574 40.0001L10.6982 37.2434C13.6047 38.8269 16.8617 39.6567 20.1716 39.6567H20.1799C31.1032 39.6567 39.9966 30.7651 39.9999 19.8351C40.008 17.2305 39.4995 14.6502 38.504 12.2435C37.5084 9.83668 36.0455 7.65119 34.1999 5.8134" fill="#112F91"/>
</g>
<defs>
<clipPath id="clip0_26_183">
<rect width="40" height="40" fill="white"/>
</clipPath>
</defs>
</svg>
